999
dxflib 3.17.0.0
  0
SECTION
  2
HEADER
  9
$ACADVER
  1
AC1015
  9
$HANDSEED
  5
FFFF
  9
$DIMADEC
 70
0
  9
$DIMASZ
 40
2.5
  9
$DIMAUNIT
 70
0
  9
$DIMAZIN
 70
2
  9
$DIMDEC
 70
4
  9
$DIMDLI
 40
5.0
  9
$DIMDSEP
 70
46
  9
$DIMEXE
 40
1.25
  9
$DIMEXO
 40
0.625
  9
$DIMGAP
 40
0.625
  9
$DIMLUNIT
 70
2
  9
$DIMSCALE
 40
1.0
  9
$DIMTSZ
 40
0.0
  9
$DIMTXT
 40
2.5
  9
$DIMZIN
 70
8
  9
$DWGCODEPAGE
  3
ANSI_1252
  9
$INSUNITS
 70
4
  9
$LTSCALE
 40
1.0
  9
$MAXACTVP
 70
64
  9
$MEASUREMENT
 70
1
  9
$PDMODE
 70
0
  9
$PDSIZE
 40
0.0
  0
ENDSEC
  0
SECTION
  2
TABLES
  0
TABLE
  2
VPORT
  5
8
100
AcDbSymbolTable
 70
1
  0
VPORT
  5
30
100
AcDbSymbolTableRecord
100
AcDbViewportTableRecord
  2
*Active
 70
0
 10
0.0
 20
0.0
 11
1.0
 21
1.0
 12
286.30555555555549
 22
148.5
 13
0.0
 23
0.0
 14
10.0
 24
10.0
 15
10.0
 25
10.0
 16
0.0
 26
0.0
 36
1.0
 17
0.0
 27
0.0
 37
0.0
 40
297.0
 41
1.92798353909465
 42
50.0
 43
0.0
 44
0.0
 50
0.0
 51
0.0
 71
0
 72
100
 73
1
 74
3
 75
1
 76
1
 77
0
 78
0
281
0
 65
1
110
0.0
120
0.0
130
0.0
111
1.0
121
0.0
131
0.0
112
0.0
122
1.0
132
0.0
 79
0
146
0.0
  0
ENDTAB
  0
TABLE
  2
LTYPE
  5
5
100
AcDbSymbolTable
 70
41
  0
LTYPE
  5
16
100
AcDbSymbolTableRecord
100
AcDbLinetypeTableRecord
  2
Continuous
 70
0
  3
Solid line
 72
65
 73
0
 40
0.0
  0
LTYPE
  5
31
100
AcDbSymbolTableRecord
100
AcDbLinetypeTableRecord
  2
HIDDEN2
 70
0
  3
Hidden (.5x) _ _ _ _ _ _ _ _ _ _ _ _ _ _ _ _ _ 
 72
65
 73
2
 40
4.7624999999999993
 49
3.1749999999999998
 74
0
 49
-1.5874999999999999
 74
0
  0
LTYPE
  5
32
100
AcDbSymbolTableRecord
100
AcDbLinetypeTableRecord
  2
ACAD_ISO05W100
 70
0
  3
ISO long-dash double-dot ____ .. ____ .. ____ . 
 72
65
 73
6
 40
33.000000000000007
 49
24.0
 74
0
 49
-2.9500000000000002
 74
0
 49
0.1
 74
0
 49
-2.9000000000000004
 74
0
 49
0.1
 74
0
 49
-2.9500000000000002
 74
0
  0
LTYPE
  5
33
100
AcDbSymbolTableRecord
100
AcDbLinetypeTableRecord
  2
ACAD_ISO02W100
 70
0
  3
ISO dash __ __ __ __ __ __ __ __ __ __ __ __ __
 72
65
 73
2
 40
15.0
 49
12.0
 74
0
 49
-3.0
 74
0
  0
LTYPE
  5
34
100
AcDbSymbolTableRecord
100
AcDbLinetypeTableRecord
  2
ACAD_ISO14W100
 70
0
  3
ISO dash triple-dot __ . . . __ . . . __ . . . _
 72
65
 73
8
 40
24.000000000000004
 49
12.0
 74
0
 49
-2.9500000000000002
 74
0
 49
0.1
 74
0
 49
-2.9000000000000004
 74
0
 49
0.1
 74
0
 49
-2.9000000000000004
 74
0
 49
0.1
 74
0
 49
-2.9500000000000002
 74
0
  0
LTYPE
  5
35
100
AcDbSymbolTableRecord
100
AcDbLinetypeTableRecord
  2
DIVIDE
 70
0
  3
Divide ____ . . ____ . . ____ . . ____ . . ____
 72
65
 73
6
 40
31.750000000000004
 49
12.699999999999999
 74
0
 49
-6.2999999999999998
 74
0
 49
0.1
 74
0
 49
-6.25
 74
0
 49
0.1
 74
0
 49
-6.2999999999999998
 74
0
  0
LTYPE
  5
36
100
AcDbSymbolTableRecord
100
AcDbLinetypeTableRecord
  2
BORDER2
 70
0
  3
Border (.5x) __.__.__.__.__.__.__.__.__.__.__.
 72
65
 73
6
 40
22.225000000000001
 49
6.3499999999999996
 74
0
 49
-3.1749999999999998
 74
0
 49
6.3499999999999996
 74
0
 49
-3.125
 74
0
 49
0.1
 74
0
 49
-3.125
 74
0
  0
LTYPE
  5
37
100
AcDbSymbolTableRecord
100
AcDbLinetypeTableRecord
  2
BORDERX2
 70
0
  3
Border (2x) ____  ____  .  ____  ____  .  ___
 72
65
 73
6
 40
88.899999999999977
 49
25.399999999999999
 74
0
 49
-12.699999999999999
 74
0
 49
25.399999999999999
 74
0
 49
-12.649999999999999
 74
0
 49
0.1
 74
0
 49
-12.649999999999999
 74
0
  0
LTYPE
  5
38
100
AcDbSymbolTableRecord
100
AcDbLinetypeTableRecord
  2
ACAD_ISO07W100
 70
0
  3
ISO dot . . . . . . . . . . . . . . . . . . . . 
 72
65
 73
2
 40
3.0
 49
0.1
 74
0
 49
-2.8999999999999999
 74
0
  0
LTYPE
  5
39
100
AcDbSymbolTableRecord
100
AcDbLinetypeTableRecord
  2
ACAD_ISO04W100
 70
0
  3
ISO long-dash dot ____ . ____ . ____ . ____ . _
 72
65
 73
4
 40
30.0
 49
24.0
 74
0
 49
-2.9500000000000002
 74
0
 49
0.1
 74
0
 49
-2.9500000000000002
 74
0
  0
LTYPE
  5
3A
100
AcDbSymbolTableRecord
100
AcDbLinetypeTableRecord
  2
PHANTOM2
 70
0
  3
Phantom (.5x) ___ _ _ ___ _ _ ___ _ _ ___ _ _
 72
65
 73
6
 40
31.750000000000004
 49
15.875
 74
0
 49
-3.1749999999999998
 74
0
 49
3.1749999999999998
 74
0
 49
-3.1749999999999998
 74
0
 49
3.1749999999999998
 74
0
 49
-3.1749999999999998
 74
0
  0
LTYPE
  5
3B
100
AcDbSymbolTableRecord
100
AcDbLinetypeTableRecord
  2
HIDDEN
 70
0
  3
Hidden __ __ __ __ __ __ __ __ __ __ __ __ __ __
 72
65
 73
2
 40
9.5249999999999986
 49
6.3499999999999996
 74
0
 49
-3.1749999999999998
 74
0
  0
LTYPE
  5
15
100
AcDbSymbolTableRecord
100
AcDbLinetypeTableRecord
  2
BYLAYER
 70
0
  3

 72
65
 73
0
 40
0.0
  0
LTYPE
  5
3C
100
AcDbSymbolTableRecord
100
AcDbLinetypeTableRecord
  2
DASHED
 70
0
  3
Dashed __ __ __ __ __ __ __ __ __ __ __ __ __ _
 72
65
 73
2
 40
19.049999999999997
 49
12.699999999999999
 74
0
 49
-6.3499999999999996
 74
0
  0
LTYPE
  5
3D
100
AcDbSymbolTableRecord
100
AcDbLinetypeTableRecord
  2
ACAD_ISO11W100
 70
0
  3
ISO double-dash dot __ __ . __ __ . __ __ . __ _
 72
65
 73
6
 40
33.0
 49
12.0
 74
0
 49
-3.0
 74
0
 49
12.0
 74
0
 49
-2.9500000000000002
 74
0
 49
0.1
 74
0
 49
-2.9500000000000002
 74
0
  0
LTYPE
  5
3E
100
AcDbSymbolTableRecord
100
AcDbLinetypeTableRecord
  2
CENTER2
 70
0
  3
Center (.5x) ___ _ ___ _ ___ _ ___ _ ___ _ ___
 72
65
 73
4
 40
28.575000000000003
 49
19.050000000000001
 74
0
 49
-3.1749999999999998
 74
0
 49
3.1749999999999998
 74
0
 49
-3.1749999999999998
 74
0
  0
LTYPE
  5
3F
100
AcDbSymbolTableRecord
100
AcDbLinetypeTableRecord
  2
ACAD_ISO06W100
 70
0
  3
ISO long-dash triple-dot ____ ... ____ ... ____
 72
65
 73
8
 40
36.000000000000007
 49
24.0
 74
0
 49
-2.9500000000000002
 74
0
 49
0.1
 74
0
 49
-2.9000000000000004
 74
0
 49
0.1
 74
0
 49
-2.9000000000000004
 74
0
 49
0.1
 74
0
 49
-2.9500000000000002
 74
0
  0
LTYPE
  5
40
100
AcDbSymbolTableRecord
100
AcDbLinetypeTableRecord
  2
DASHEDX2
 70
0
  3
Dashed (2x) ____  ____  ____  ____  ____  ___
 72
65
 73
2
 40
38.099999999999994
 49
25.399999999999999
 74
0
 49
-12.699999999999999
 74
0
  0
LTYPE
  5
41
100
AcDbSymbolTableRecord
100
AcDbLinetypeTableRecord
  2
DASHDOT2
 70
0
  3
Dash dot (.5x) _._._._._._._._._._._._._._._.
 72
65
 73
4
 40
12.699999999999999
 49
6.3499999999999996
 74
0
 49
-3.125
 74
0
 49
0.1
 74
0
 49
-3.125
 74
0
  0
LTYPE
  5
42
100
AcDbSymbolTableRecord
100
AcDbLinetypeTableRecord
  2
BORDER
 70
0
  3
Border __ __ . __ __ . __ __ . __ __ . __ __ .
 72
65
 73
6
 40
44.449999999999996
 49
12.699999999999999
 74
0
 49
-6.3499999999999996
 74
0
 49
12.699999999999999
 74
0
 49
-6.2999999999999998
 74
0
 49
0.1
 74
0
 49
-6.2999999999999998
 74
0
  0
LTYPE
  5
43
100
AcDbSymbolTableRecord
100
AcDbLinetypeTableRecord
  2
DOTX2
 70
0
  3
Dot (2x) .  .  .  .  .  .  .  .  .  .  .  .  .  .
 72
65
 73
2
 40
12.699999999999999
 49
0.1
 74
0
 49
-12.6
 74
0
  0
LTYPE
  5
44
100
AcDbSymbolTableRecord
100
AcDbLinetypeTableRecord
  2
DASHDOTX2
 70
0
  3
Dash dot (2x) ____  .  ____  .  ____  .  ___
 72
65
 73
4
 40
50.799999999999997
 49
25.399999999999999
 74
0
 49
-12.649999999999999
 74
0
 49
0.1
 74
0
 49
-12.649999999999999
 74
0
  0
LTYPE
  5
45
100
AcDbSymbolTableRecord
100
AcDbLinetypeTableRecord
  2
DIVIDE2
 70
0
  3
Divide (.5x) __..__..__..__..__..__..__..__.._
 72
65
 73
6
 40
15.874999999999998
 49
6.3499999999999996
 74
0
 49
-3.125
 74
0
 49
0.1
 74
0
 49
-3.0750000000000002
 74
0
 49
0.1
 74
0
 49
-3.125
 74
0
  0
LTYPE
  5
46
100
AcDbSymbolTableRecord
100
AcDbLinetypeTableRecord
  2
CENTER
 70
0
  3
Center ____ _ ____ _ ____ _ ____ _ ____ _ ____
 72
65
 73
4
 40
50.800000000000004
 49
31.75
 74
0
 49
-6.3499999999999996
 74
0
 49
6.3499999999999996
 74
0
 49
-6.3499999999999996
 74
0
  0
LTYPE
  5
47
100
AcDbSymbolTableRecord
100
AcDbLinetypeTableRecord
  2
DIVIDEX2
 70
0
  3
Divide (2x) ________  .  .  ________  .  .  _
 72
65
 73
6
 40
63.5
 49
25.399999999999999
 74
0
 49
-12.649999999999999
 74
0
 49
0.1
 74
0
 49
-12.599999999999998
 74
0
 49
0.1
 74
0
 49
-12.649999999999999
 74
0
  0
LTYPE
  5
48
100
AcDbSymbolTableRecord
100
AcDbLinetypeTableRecord
  2
ACAD_ISO08W100
 70
0
  3
ISO long-dash short-dash ____ __ ____ __ ____ _
 72
65
 73
4
 40
36.0
 49
24.0
 74
0
 49
-3.0
 74
0
 49
6.0
 74
0
 49
-3.0
 74
0
  0
LTYPE
  5
49
100
AcDbSymbolTableRecord
100
AcDbLinetypeTableRecord
  2
ACAD_ISO12W100
 70
0
  3
ISO dash double-dot __ . . __ . . __ . . __ . . 
 72
65
 73
6
 40
21.0
 49
12.0
 74
0
 49
-2.9500000000000002
 74
0
 49
0.1
 74
0
 49
-2.9000000000000004
 74
0
 49
0.1
 74
0
 49
-2.9500000000000002
 74
0
  0
LTYPE
  5
4A
100
AcDbSymbolTableRecord
100
AcDbLinetypeTableRecord
  2
ACAD_ISO13W100
 70
0
  3
ISO double-dash double-dot __ __ . . __ __ . . _
 72
65
 73
8
 40
36.000000000000007
 49
12.0
 74
0
 49
-3.0
 74
0
 49
12.0
 74
0
 49
-2.9500000000000002
 74
0
 49
0.1
 74
0
 49
-2.9000000000000004
 74
0
 49
0.1
 74
0
 49
-2.9500000000000002
 74
0
  0
LTYPE
  5
4B
100
AcDbSymbolTableRecord
100
AcDbLinetypeTableRecord
  2
ACAD_ISO15W100
 70
0
  3
ISO double-dash triple-dot __ __ . . . __ __ . .
 72
65
 73
10
 40
39.000000000000007
 49
12.0
 74
0
 49
-3.0
 74
0
 49
12.0
 74
0
 49
-2.9500000000000002
 74
0
 49
0.1
 74
0
 49
-2.9000000000000004
 74
0
 49
0.1
 74
0
 49
-2.9000000000000004
 74
0
 49
0.1
 74
0
 49
-2.9500000000000002
 74
0
  0
LTYPE
  5
14
100
AcDbSymbolTableRecord
100
AcDbLinetypeTableRecord
  2
BYBLOCK
 70
0
  3

 72
65
 73
0
 40
0.0
  0
LTYPE
  5
4C
100
AcDbSymbolTableRecord
100
AcDbLinetypeTableRecord
  2
DOT2
 70
0
  3
Dot (.5x) ........................................
 72
65
 73
2
 40
3.1749999999999998
 49
0.1
 74
0
 49
-3.0749999999999997
 74
0
  0
LTYPE
  5
4D
100
AcDbSymbolTableRecord
100
AcDbLinetypeTableRecord
  2
DASHDOT
 70
0
  3
Dash dot __ . __ . __ . __ . __ . __ . __ . __
 72
65
 73
4
 40
25.400000000000002
 49
12.699999999999999
 74
0
 49
-6.2999999999999998
 74
0
 49
0.1
 74
0
 49
-6.2999999999999998
 74
0
  0
LTYPE
  5
4E
100
AcDbSymbolTableRecord
100
AcDbLinetypeTableRecord
  2
DASHED2
 70
0
  3
Dashed (.5x) _ _ _ _ _ _ _ _ _ _ _ _ _ _ _ _ _ 
 72
65
 73
2
 40
9.5249999999999986
 49
6.3499999999999996
 74
0
 49
-3.1749999999999998
 74
0
  0
LTYPE
  5
4F
100
AcDbSymbolTableRecord
100
AcDbLinetypeTableRecord
  2
ACAD_ISO03W100
 70
0
  3
ISO dash space __    __    __    __    __    __
 72
65
 73
2
 40
30.0
 49
12.0
 74
0
 49
-18.0
 74
0
  0
LTYPE
  5
50
100
AcDbSymbolTableRecord
100
AcDbLinetypeTableRecord
  2
ACAD_ISO10W100
 70
0
  3
ISO dash dot __ . __ . __ . __ . __ . __ . __ . 
 72
65
 73
4
 40
18.0
 49
12.0
 74
0
 49
-2.9500000000000002
 74
0
 49
0.1
 74
0
 49
-2.9500000000000002
 74
0
  0
LTYPE
  5
51
100
AcDbSymbolTableRecord
100
AcDbLinetypeTableRecord
  2
PHANTOM
 70
0
  3
Phantom ______  __  __  ______  __  __  ______ 
 72
65
 73
6
 40
63.500000000000007
 49
31.75
 74
0
 49
-6.3499999999999996
 74
0
 49
6.3499999999999996
 74
0
 49
-6.3499999999999996
 74
0
 49
6.3499999999999996
 74
0
 49
-6.3499999999999996
 74
0
  0
LTYPE
  5
52
100
AcDbSymbolTableRecord
100
AcDbLinetypeTableRecord
  2
CENTERX2
 70
0
  3
Center (2x) ________  __  ________  __  _____
 72
65
 73
4
 40
101.60000000000001
 49
63.5
 74
0
 49
-12.699999999999999
 74
0
 49
12.699999999999999
 74
0
 49
-12.699999999999999
 74
0
  0
LTYPE
  5
53
100
AcDbSymbolTableRecord
100
AcDbLinetypeTableRecord
  2
HIDDENX2
 70
0
  3
Hidden (2x) ____ ____ ____ ____ ____ ____ ____ 
 72
65
 73
2
 40
19.049999999999997
 49
12.699999999999999
 74
0
 49
-6.3499999999999996
 74
0
  0
LTYPE
  5
54
100
AcDbSymbolTableRecord
100
AcDbLinetypeTableRecord
  2
ACAD_ISO09W100
 70
0
  3
ISO long-dash double-short-dash ____ __ __ ____
 72
65
 73
6
 40
45.0
 49
24.0
 74
0
 49
-3.0
 74
0
 49
6.0
 74
0
 49
-3.0
 74
0
 49
6.0
 74
0
 49
-3.0
 74
0
  0
LTYPE
  5
55
100
AcDbSymbolTableRecord
100
AcDbLinetypeTableRecord
  2
PHANTOMX2
 70
0
  3
Phantom (2x) ____________    ____    ____   _
 72
65
 73
6
 40
127.00000000000001
 49
63.5
 74
0
 49
-12.699999999999999
 74
0
 49
12.699999999999999
 74
0
 49
-12.699999999999999
 74
0
 49
12.699999999999999
 74
0
 49
-12.699999999999999
 74
0
  0
LTYPE
  5
56
100
AcDbSymbolTableRecord
100
AcDbLinetypeTableRecord
  2
DOT
 70
0
  3
Dot . . . . . . . . . . . . . . . . . . . . . . . .
 72
65
 73
2
 40
6.3499999999999996
 49
0.1
 74
0
 49
-6.25
 74
0
  0
ENDTAB
  0
TABLE
  2
LAYER
  5
2
100
AcDbSymbolTable
 70
1
  0
LAYER
  5
10
100
AcDbSymbolTableRecord
100
AcDbLayerTableRecord
  2
0
 70
0
 62
7
420
16777215
  6
Continuous
370
25
390
F
  0
ENDTAB
  0
TABLE
  2
STYLE
  5
3
100
AcDbSymbolTable
 70
1
  0
STYLE
  5
57
100
AcDbSymbolTableRecord
100
AcDbTextStyleTableRecord
  2
Standard
 70
0
 40
0.0
 41
1.0
 50
0.0
 71
0
 42
2.5
  3

  4

1001
ACAD
1000
txt
1071
0
  0
ENDTAB
  0
TABLE
  2
VIEW
  5
6
100
AcDbSymbolTable
 70
0
  0
ENDTAB
  0
TABLE
  2
UCS
  5
7
100
AcDbSymbolTable
 70
0
  0
ENDTAB
  0
TABLE
  2
APPID
  5
9
100
AcDbSymbolTable
 70
1
  0
APPID
  5
12
100
AcDbSymbolTableRecord
100
AcDbRegAppTableRecord
  2
ACAD
 70
0
  0
APPID
  5
58
100
AcDbSymbolTableRecord
100
AcDbRegAppTableRecord
  2
QCAD
 70
0
  0
ENDTAB
  0
TABLE
  2
DIMSTYLE
  5
A
100
AcDbSymbolTable
 70
1
100
AcDbDimStyleTable
 71
0
  0
DIMSTYLE
105
27
100
AcDbSymbolTableRecord
100
AcDbDimStyleTableRecord
  2
Standard
 41
2.5
 42
0.625
 43
3.75
 44
1.25
 70
0
 73
0
 74
0
 77
1
 78
8
140
2.5
141
2.5
143
0.03937007874016
147
0.625
171
3
172
1
271
2
272
2
274
3
278
44
283
0
284
8
340
57
  0
ENDTAB
  0
TABLE
  2
BLOCK_RECORD
  5
1
100
AcDbSymbolTable
 70
1
  0
BLOCK_RECORD
  5
1F
100
AcDbSymbolTableRecord
100
AcDbBlockTableRecord
  2
*Model_Space
340
22
  0
BLOCK_RECORD
  5
1B
100
AcDbSymbolTableRecord
100
AcDbBlockTableRecord
  2
*Paper_Space
340
1E
  0
BLOCK_RECORD
  5
23
100
AcDbSymbolTableRecord
100
AcDbBlockTableRecord
  2
*Paper_Space0
340
26
  0
BLOCK_RECORD
  5
59
100
AcDbSymbolTableRecord
100
AcDbBlockTableRecord
  2
triangle
340
0
  0
BLOCK_RECORD
  5
5A
100
AcDbSymbolTableRecord
100
AcDbBlockTableRecord
  2
basehalf
340
0
  0
ENDTAB
  0
ENDSEC
  0
SECTION
  2
BLOCKS
  0
BLOCK
  5
20
100
AcDbEntity
  8
0
100
AcDbBlockBegin
  2
*Model_Space
 70
0
 10
0.0
 20
0.0
 30
0.0
  3
*Model_Space
  1

  0
ENDBLK
  5
21
100
AcDbEntity
  8
0
100
AcDbBlockEnd
  0
BLOCK
  5
1C
100
AcDbEntity
 67
1
  8
0
100
AcDbBlockBegin
  2
*Paper_Space
 70
0
 10
0.0
 20
0.0
 30
0.0
  3
*Paper_Space
  1

  0
ENDBLK
  5
1D
100
AcDbEntity
 67
1
  8
0
100
AcDbBlockEnd
  0
BLOCK
  5
24
100
AcDbEntity
  8
0
100
AcDbBlockBegin
  2
*Paper_Space0
 70
0
 10
0.0
 20
0.0
 30
0.0
  3
*Paper_Space0
  1

  0
ENDBLK
  5
25
100
AcDbEntity
  8
0
100
AcDbBlockEnd
  0
BLOCK
  5
5B
100
AcDbEntity
  8
0
100
AcDbBlockBegin
  2
triangle
 70
0
 10
0.0
 20
0.0
 30
0.0
  3
triangle
  1

  0
LINE
  5
5C
100
AcDbEntity
  8
0
 62
256
370
-1
 48
1.0
  6
BYLAYER
100
AcDbLine
 10
0.0
 20
-2.3094010767584479
 30
0.0
 11
0.0000000000001137
 21
2.3094010767584479
 31
0.0
  0
ARC
  5
5D
100
AcDbEntity
  8
0
 62
256
370
-1
 48
1.0
  6
BYLAYER
100
AcDbCircle
 10
-1.9999999999998863
 20
2.3094010767584479
 30
0.0
 40
2.0
100
AcDbArc
 50
360.0
 51
120.00000000000065
  0
LINE
  5
5E
100
AcDbEntity
  8
0
 62
256
370
-1
 48
1.0
  6
BYLAYER
100
AcDbLine
 10
-2.9999999999998863
 20
4.0414518843273122
 30
0.0
 11
-6.9999999999998863
 21
1.7320508075688359
 31
0.0
  0
ARC
  5
5F
100
AcDbEntity
  8
0
 62
256
370
-1
 48
1.0
  6
BYLAYER
100
AcDbCircle
 10
-5.9999999999998863
 20
-0.0000000000000284
 30
0.0
 40
2.0
100
AcDbArc
 50
120.00000000000075
 51
239.99999999999932
  0
LINE
  5
60
100
AcDbEntity
  8
0
 62
256
370
-1
 48
1.0
  6
BYLAYER
100
AcDbLine
 10
-6.9999999999998863
 20
-1.7320508075688927
 30
0.0
 11
-3.0
 21
-4.0414518843273157
 31
0.0
  0
ARC
  5
61
100
AcDbEntity
  8
0
 62
256
370
-1
 48
1.0
  6
BYLAYER
100
AcDbCircle
 10
-2.0
 20
-2.3094010767584479
 30
0.0
 40
2.0
100
AcDbArc
 50
239.99999999999963
 51
360.0
  0
ENDBLK
  5
62
100
AcDbEntity
  8
0
100
AcDbBlockEnd
  0
BLOCK
  5
63
100
AcDbEntity
  8
0
100
AcDbBlockBegin
  2
basehalf
 70
0
 10
0.0
 20
0.0
 30
0.0
  3
basehalf
  1

  0
CIRCLE
  5
64
100
AcDbEntity
  8
0
 62
256
370
-1
 48
1.0
  6
BYLAYER
100
AcDbCircle
 10
-16.127073000000053
 20
-10.897185640522252
 30
0.0
 40
1.4750000000000001
  0
CIRCLE
  5
65
100
AcDbEntity
  8
0
 62
256
370
-1
 48
1.0
  6
BYLAYER
100
AcDbCircle
 10
-6.8180194846606241
 20
-20.206239125182833
 30
0.0
 40
1.4750000000000001
  0
CIRCLE
  5
66
100
AcDbEntity
  8
0
 62
256
370
-1
 48
1.0
  6
BYLAYER
100
AcDbCircle
 10
-16.127073000000053
 20
-83.022770695591987
 30
0.0
 40
1.4750000000000001
  0
CIRCLE
  5
67
100
AcDbEntity
  8
0
 62
256
370
-1
 48
1.0
  6
BYLAYER
100
AcDbCircle
 10
-6.8180194846606241
 20
-73.713717210931406
 30
0.0
 40
1.4750000000000001
  0
LINE
  5
68
100
AcDbEntity
  8
0
 62
256
370
-1
 48
1.0
  6
BYLAYER
100
AcDbLine
 10
-7.0
 20
-59.247465417451117
 30
0.0
 11
-6.9999999999999982
 21
-34.672490918663136
 31
0.0
  0
ARC
  5
69
100
AcDbEntity
  8
0
 62
256
370
-1
 48
1.0
  6
BYLAYER
100
AcDbCircle
 10
-16.127073000000053
 20
-83.022770695591987
 30
0.0
 40
4.5
100
AcDbArc
 50
135.00000000000006
 51
301.02583569582328
  0
ARC
  5
6A
100
AcDbEntity
  8
0
 62
256
370
-1
 48
1.0
  6
BYLAYER
100
AcDbCircle
 10
-16.127073000000053
 20
-10.897185640522252
 30
0.0
 40
4.5
100
AcDbArc
 50
131.48493026511932
 51
225.0
  0
LINE
  5
6B
100
AcDbEntity
  8
0
 62
256
370
-1
 48
1.0
  6
BYLAYER
100
AcDbLine
 10
-19.309053515339517
 20
-79.840790180252526
 30
0.0
 11
-12.857864376269056
 21
-73.389601041182061
 31
0.0
  0
ARC
  5
6C
100
AcDbEntity
  8
0
 62
256
370
-1
 48
1.0
  6
BYLAYER
100
AcDbCircle
 10
-27.0
 20
-59.247465417451117
 30
0.0
 40
20.0
100
AcDbArc
 50
315.0
 51
0.0
  0
LINE
  5
6D
100
AcDbEntity
  8
0
 62
256
370
-1
 48
1.0
  6
BYLAYER
100
AcDbLine
 10
-19.309053515339517
 20
-14.079166155861717
 30
0.0
 11
-12.857864376269045
 21
-20.530355294932193
 31
0.0
  0
ARC
  5
6E
100
AcDbEntity
  8
0
 62
256
370
-1
 48
1.0
  6
BYLAYER
100
AcDbCircle
 10
-27.0
 20
-34.672490918663136
 30
0.0
 40
20.0
100
AcDbArc
 50
0.0
 51
44.999999999999972
  0
ARC
  5
6F
100
AcDbEntity
  8
0
 62
256
370
-1
 48
1.0
  6
BYLAYER
100
AcDbCircle
 10
0.7647144586240575
 20
-30.0
 30
0.0
 40
30.0
100
AcDbArc
 50
91.460180830533943
 51
131.48493026511932
  0
ARC
  5
70
100
AcDbEntity
  8
0
 62
256
370
-1
 48
1.0
  6
BYLAYER
100
AcDbCircle
 10
-0.9220492274082094
 20
-108.30235241829691
 30
0.0
 40
25.0
100
AcDbArc
 50
87.886339450927835
 51
121.02583569582323
  0
ENDBLK
  5
71
100
AcDbEntity
  8
0
100
AcDbBlockEnd
  0
ENDSEC
  0
SECTION
  2
ENTITIES
  0
CIRCLE
  5
72
100
AcDbEntity
  8
0
 62
256
370
-1
 48
1.0
  6
BYLAYER
100
AcDbCircle
 10
-16.120000000000051
 20
25.785476220844064
 30
0.0
 40
1.3999999999999999
  0
CIRCLE
  5
73
100
AcDbEntity
  8
0
 62
256
370
-1
 48
1.0
  6
BYLAYER
100
AcDbCircle
 10
-16.128433507226223
 20
-25.781394653146911
 30
0.0
 40
1.3999999999999999
  0
CIRCLE
  5
74
100
AcDbEntity
  8
0
 62
256
370
-1
 48
1.0
  6
BYLAYER
100
AcDbCircle
 10
-10.0
 20
-10.0
 30
0.0
 40
1.3999999999999999
  0
CIRCLE
  5
75
100
AcDbEntity
  8
0
 62
256
370
-1
 48
1.0
  6
BYLAYER
100
AcDbCircle
 10
10.0
 20
-10.0
 30
0.0
 40
1.3999999999999999
  0
CIRCLE
  5
76
100
AcDbEntity
  8
0
 62
256
370
-1
 48
1.0
  6
BYLAYER
100
AcDbCircle
 10
10.0
 20
10.0
 30
0.0
 40
1.3999999999999999
  0
CIRCLE
  5
77
100
AcDbEntity
  8
0
 62
256
370
-1
 48
1.0
  6
BYLAYER
100
AcDbCircle
 10
-10.0
 20
10.0
 30
0.0
 40
1.3999999999999999
  0
CIRCLE
  5
78
100
AcDbEntity
  8
0
 62
256
370
-1
 48
1.0
  6
BYLAYER
100
AcDbCircle
 10
16.128433507226219
 20
-25.784115698278249
 30
0.0
 40
1.3999999999999999
  0
CIRCLE
  5
79
100
AcDbEntity
  8
0
 62
256
370
-1
 48
1.0
  6
BYLAYER
100
AcDbCircle
 10
-16.128433507226283
 20
25.784115698278391
 30
0.0
 40
1.3999999999999999
  0
CIRCLE
  5
7A
100
AcDbEntity
  8
0
 62
256
370
-1
 48
1.0
  6
BYLAYER
100
AcDbCircle
 10
-16.120000000000051
 20
25.785476220844064
 30
0.0
 40
1.3999999999999999
  0
CIRCLE
  5
7B
100
AcDbEntity
  8
0
 62
256
370
-1
 48
1.0
  6
BYLAYER
100
AcDbCircle
 10
-16.120000000000051
 20
25.785476220844064
 30
0.0
 40
1.3999999999999999
  0
CIRCLE
  5
7C
100
AcDbEntity
  8
0
 62
256
370
-1
 48
1.0
  6
BYLAYER
100
AcDbCircle
 10
-16.120000000000051
 20
25.785476220844064
 30
0.0
 40
1.3999999999999999
  0
CIRCLE
  5
7D
100
AcDbEntity
  8
0
 62
256
370
-1
 48
1.0
  6
BYLAYER
100
AcDbCircle
 10
0.0
 20
-18.031222920256965
 30
0.0
 40
1.0
  0
CIRCLE
  5
7E
100
AcDbEntity
  8
0
 62
256
370
-1
 48
1.0
  6
BYLAYER
100
AcDbCircle
 10
-18.031222920256958
 20
-0.0000000000000028
 30
0.0
 40
1.0
  0
CIRCLE
  5
7F
100
AcDbEntity
  8
0
 62
256
370
-1
 48
1.0
  6
BYLAYER
100
AcDbCircle
 10
18.031222920256965
 20
-0.0000000000000028
 30
0.0
 40
1.0
  0
CIRCLE
  5
80
100
AcDbEntity
  8
0
 62
256
370
-1
 48
1.0
  6
BYLAYER
100
AcDbCircle
 10
0.0000000000000022
 20
18.031222920256951
 30
0.0
 40
1.0
  0
CIRCLE
  5
81
100
AcDbEntity
  8
0
 62
256
370
-1
 48
1.0
  6
BYLAYER
100
AcDbCircle
 10
30.259999999999987
 20
-39.925476220844104
 30
0.0
 40
2.25
  0
CIRCLE
  5
82
100
AcDbEntity
  8
0
 62
256
370
-1
 48
1.0
  6
BYLAYER
100
AcDbCircle
 10
30.25999999999997
 20
39.925476220844061
 30
0.0
 40
2.25
  0
CIRCLE
  5
83
100
AcDbEntity
  8
0
 62
256
370
-1
 48
1.0
  6
BYLAYER
100
AcDbCircle
 10
30.260000000000169
 20
39.925476220844061
 30
0.0
 40
2.25
  0
CIRCLE
  5
84
100
AcDbEntity
  8
0
 62
256
370
-1
 48
1.0
  6
BYLAYER
100
AcDbCircle
 10
-30.260000000000026
 20
39.92547622084389
 30
0.0
 40
2.25
  0
CIRCLE
  5
85
100
AcDbEntity
  8
0
 62
256
370
-1
 48
1.0
  6
BYLAYER
100
AcDbCircle
 10
-10.0
 20
10.0
 30
0.0
 40
2.25
  0
CIRCLE
  5
86
100
AcDbEntity
  8
0
 62
256
370
-1
 48
1.0
  6
BYLAYER
100
AcDbCircle
 10
10.0
 20
10.0
 30
0.0
 40
2.25
  0
CIRCLE
  5
87
100
AcDbEntity
  8
0
 62
256
370
-1
 48
1.0
  6
BYLAYER
100
AcDbCircle
 10
10.0
 20
-10.0
 30
0.0
 40
2.25
  0
CIRCLE
  5
88
100
AcDbEntity
  8
0
 62
256
370
-1
 48
1.0
  6
BYLAYER
100
AcDbCircle
 10
-10.0
 20
-10.0
 30
0.0
 40
2.25
  0
CIRCLE
  5
89
100
AcDbEntity
  8
0
 62
256
370
-1
 48
1.0
  6
BYLAYER
100
AcDbCircle
 10
-30.260000000000026
 20
39.925476220844061
 30
0.0
 40
2.25
  0
CIRCLE
  5
8A
100
AcDbEntity
  8
0
 62
256
370
-1
 48
1.0
  6
BYLAYER
100
AcDbCircle
 10
-30.259999999999842
 20
-39.925476220843898
 30
0.0
 40
2.25
  0
CIRCLE
  5
8B
100
AcDbEntity
  8
0
 62
7
420
16777215
370
25
 48
1.0
  6
Continuous
100
AcDbCircle
 10
60.502721067526096
 20
-78.118197224449531
 30
0.0
 40
1.3999999999999999
  0
CIRCLE
  5
8C
100
AcDbEntity
  8
0
 62
7
420
16777215
370
25
 48
1.0
  6
Continuous
100
AcDbCircle
 10
68.448872886370339
 20
70.168197310063505
 30
0.0
 40
1.3999999999999999
  0
CIRCLE
  5
8D
100
AcDbEntity
  8
0
 62
7
420
16777215
370
25
 48
1.0
  6
Continuous
100
AcDbCircle
 10
-68.461154510831875
 20
-70.16411572067301
 30
0.0
 40
1.3999999999999999
  0
CIRCLE
  5
8E
100
AcDbEntity
  8
0
 62
7
420
16777215
370
25
 48
1.0
  6
Continuous
100
AcDbCircle
 10
-60.508433560300062
 20
78.114115656752745
 30
0.0
 40
1.3999999999999999
  0
CIRCLE
  5
8F
100
AcDbEntity
  8
0
 62
256
370
-1
 48
1.0
  6
BYLAYER
100
AcDbCircle
 10
-30.260000000000026
 20
-39.925476220843898
 30
0.0
 40
2.25
  0
CIRCLE
  5
90
100
AcDbEntity
  8
0
 62
256
370
-1
 48
1.0
  6
BYLAYER
100
AcDbCircle
 10
30.262721014452325
 20
-39.928197265975257
 30
0.0
 40
1.3999999999999999
  0
CIRCLE
  5
91
100
AcDbEntity
  8
0
 62
256
370
-1
 48
1.0
  6
BYLAYER
100
AcDbCircle
 10
30.258872912556569
 20
39.928197272329243
 30
0.0
 40
1.3999999999999999
  0
CIRCLE
  5
92
100
AcDbEntity
  8
0
 62
256
370
-1
 48
1.0
  6
BYLAYER
100
AcDbCircle
 10
-30.271154552357643
 20
-39.924115667599295
 30
0.0
 40
1.3999999999999999
  0
CIRCLE
  5
93
100
AcDbEntity
  8
0
 62
256
370
-1
 48
1.0
  6
BYLAYER
100
AcDbCircle
 10
-30.26843350722632
 20
39.924115698278456
 30
0.0
 40
1.3999999999999999
  0
ARC
  5
94
100
AcDbEntity
  8
0
 62
256
370
-1
 48
1.0
  6
BYLAYER
100
AcDbCircle
 10
-0.0013605072261935
 20
23.221323170743332
 30
0.0
 40
10.0
100
AcDbArc
 50
198.35159159177459
 51
341.64840840822376
  0
CIRCLE
  5
95
100
AcDbEntity
  8
0
 62
7
420
16777215
370
25
 48
1.0
  6
Continuous
100
AcDbCircle
 10
76.502721067526096
 20
-78.118197224449531
 30
0.0
 40
1.3999999999999999
  0
CIRCLE
  5
96
100
AcDbEntity
  8
0
 62
7
420
16777215
370
25
 48
1.0
  6
Continuous
100
AcDbCircle
 10
68.448872886370339
 20
86.168197310063476
 30
0.0
 40
1.3999999999999999
  0
CIRCLE
  5
97
100
AcDbEntity
  8
0
 62
7
420
16777215
370
25
 48
1.0
  6
Continuous
100
AcDbCircle
 10
-68.461154510831875
 20
-86.164115720673038
 30
0.0
 40
1.3999999999999999
  0
CIRCLE
  5
98
100
AcDbEntity
  8
0
 62
7
420
16777215
370
25
 48
1.0
  6
Continuous
100
AcDbCircle
 10
-76.508433560300006
 20
78.114115656752801
 30
0.0
 40
1.3999999999999999
  0
LINE
  5
99
100
AcDbEntity
  8
0
 62
256
370
-1
 48
1.0
  6
BYLAYER
100
AcDbLine
 10
9.4900630970756783
 20
20.072850848536717
 30
0.0
 11
11.854571870838187
 21
27.200928243271221
 31
0.0
  0
CIRCLE
  5
9A
100
AcDbEntity
  8
0
 62
7
420
16777215
370
25
 48
1.0
  6
Continuous
100
AcDbCircle
 10
68.502721067526238
 20
-86.118197224449332
 30
0.0
 40
1.3999999999999999
  0
CIRCLE
  5
9B
100
AcDbEntity
  8
0
 62
7
420
16777215
370
25
 48
1.0
  6
Continuous
100
AcDbCircle
 10
76.448872886370168
 20
78.168197310063533
 30
0.0
 40
1.3999999999999999
  0
CIRCLE
  5
9C
100
AcDbEntity
  8
0
 62
7
420
16777215
370
25
 48
1.0
  6
Continuous
100
AcDbCircle
 10
-76.461154510831705
 20
-78.164115720673095
 30
0.0
 40
1.3999999999999999
  0
CIRCLE
  5
9D
100
AcDbEntity
  8
0
 62
7
420
16777215
370
25
 48
1.0
  6
Continuous
100
AcDbCircle
 10
-68.508433560300119
 20
86.114115656752517
 30
0.0
 40
1.3999999999999999
  0
LINE
  5
9E
100
AcDbEntity
  8
0
 62
256
370
-1
 48
1.0
  6
BYLAYER
100
AcDbLine
 10
-9.492784111528179
 20
20.072850848536987
 30
0.0
 11
-11.857292885290347
 21
27.200928243271115
 31
0.0
  0
CIRCLE
  5
9F
100
AcDbEntity
  8
0
 62
7
420
16777215
370
25
 48
1.0
  6
Continuous
100
AcDbCircle
 10
68.502721067525869
 20
-70.118197224449787
 30
0.0
 40
1.3999999999999999
  0
CIRCLE
  5
A0
100
AcDbEntity
  8
0
 62
7
420
16777215
370
25
 48
1.0
  6
Continuous
100
AcDbCircle
 10
60.44887288637068
 20
78.168197310063192
 30
0.0
 40
1.3999999999999999
  0
CIRCLE
  5
A1
100
AcDbEntity
  8
0
 62
7
420
16777215
370
25
 48
1.0
  6
Continuous
100
AcDbCircle
 10
-60.461154510832159
 20
-78.164115720672783
 30
0.0
 40
1.3999999999999999
  0
CIRCLE
  5
A2
100
AcDbEntity
  8
0
 62
7
420
16777215
370
25
 48
1.0
  6
Continuous
100
AcDbCircle
 10
-68.508433560299835
 20
70.114115656752972
 30
0.0
 40
1.3999999999999999
  0
CIRCLE
  5
A3
100
AcDbEntity
  8
0
 62
256
370
-1
 48
1.0
  6
BYLAYER
100
AcDbCircle
 10
16.12272101445231
 20
-25.788197265975256
 30
0.0
 40
1.3999999999999999
  0
CIRCLE
  5
A4
100
AcDbEntity
  8
0
 62
256
370
-1
 48
1.0
  6
BYLAYER
100
AcDbCircle
 10
234.35281182859808
 20
210.55659376724063
 30
0.0
 40
1.3999999999999999
  0
CIRCLE
  5
A5
100
AcDbEntity
  8
0
 62
256
370
-1
 48
1.0
  6
BYLAYER
100
AcDbCircle
 10
-288.25249353925733
 20
-151.75380701299522
 30
0.0
 40
1.3999999999999999
  0
CIRCLE
  5
A6
100
AcDbEntity
  8
0
 62
256
370
-1
 48
1.0
  6
BYLAYER
100
AcDbCircle
 10
-16.128433507226276
 20
25.784115698278413
 30
0.0
 40
1.3999999999999999
  0
CIRCLE
  5
A7
100
AcDbEntity
  8
0
 62
256
370
-1
 48
1.0
  6
BYLAYER
100
AcDbCircle
 10
30.259999999999984
 20
-39.925476220843919
 30
0.0
 40
1.3999999999999999
  0
CIRCLE
  5
A8
100
AcDbEntity
  8
0
 62
256
370
-1
 48
1.0
  6
BYLAYER
100
AcDbCircle
 10
68.502721014452334
 20
-78.168197265975252
 30
0.0
 40
3.5
  0
CIRCLE
  5
A9
100
AcDbEntity
  8
0
 62
256
370
-1
 48
1.0
  6
BYLAYER
100
AcDbCircle
 10
68.498872912556578
 20
78.168197272329223
 30
0.0
 40
3.5
  0
CIRCLE
  5
AA
100
AcDbEntity
  8
0
 62
256
370
-1
 48
1.0
  6
BYLAYER
100
AcDbCircle
 10
-68.511154552357596
 20
-78.164115667599276
 30
0.0
 40
3.5
  0
CIRCLE
  5
AB
100
AcDbEntity
  8
0
 62
256
370
-1
 48
1.0
  6
BYLAYER
100
AcDbCircle
 10
-68.508433507226272
 20
78.164115698278465
 30
0.0
 40
3.5
  0
CIRCLE
  5
AC
100
AcDbEntity
  8
0
 62
256
370
-1
 48
1.0
  6
BYLAYER
100
AcDbCircle
 10
16.119999999999951
 20
25.785476220844064
 30
0.0
 40
1.3999999999999999
  0
LINE
  5
AD
100
AcDbEntity
  8
0
 62
256
370
-1
 48
1.0
  6
BYLAYER
100
AcDbLine
 10
83.785289112373505
 20
-80.028725270462658
 30
0.0
 11
76.179711424655522
 21
-83.028321398884245
 31
0.0
  0
LINE
  5
AE
100
AcDbEntity
  8
0
 62
256
370
-1
 48
1.0
  6
BYLAYER
100
AcDbLine
 10
70.359400932383437
 20
93.450765354910914
 30
0.0
 11
73.358997060805109
 21
85.845187667192818
 31
0.0
  0
LINE
  5
AF
100
AcDbEntity
  8
0
 62
256
370
-1
 48
1.0
  6
BYLAYER
100
AcDbLine
 10
-70.371682556845087
 20
-93.44668376552039
 30
0.0
 11
-73.371278685266645
 21
-85.84110607780238
 31
0.0
  0
LINE
  5
B0
100
AcDbEntity
  8
0
 62
256
370
-1
 48
1.0
  6
BYLAYER
100
AcDbLine
 10
-83.791001605147443
 20
80.024643702765843
 30
0.0
 11
-76.185423917429461
 21
83.024239831187458
 31
0.0
  0
CIRCLE
  5
B1
100
AcDbEntity
  8
0
 62
256
370
-1
 48
1.0
  6
BYLAYER
100
AcDbCircle
 10
16.125712492773793
 20
25.784115698278384
 30
0.0
 40
1.3999999999999999
  0
LINE
  5
B2
100
AcDbEntity
  8
0
 62
256
370
-1
 48
1.0
  6
BYLAYER
100
AcDbLine
 10
70.363249060465336
 20
-93.450765322370827
 30
0.0
 11
73.362845188886951
 21
-85.845187634652817
 31
0.0
  0
LINE
  5
B3
100
AcDbEntity
  8
0
 62
256
370
-1
 48
1.0
  6
BYLAYER
100
AcDbLine
 10
83.781440984291635
 20
80.028725303002716
 30
0.0
 11
76.175863296573539
 21
83.028321431424388
 31
0.0
  0
LINE
  5
B4
100
AcDbEntity
  8
0
 62
256
370
-1
 48
1.0
  6
BYLAYER
100
AcDbLine
 10
-83.793722608753171
 20
-80.024643713612306
 30
0.0
 11
-76.188144921035189
 21
-83.024239842033865
 31
0.0
  0
LINE
  5
B5
100
AcDbEntity
  8
0
 62
256
370
-1
 48
1.0
  6
BYLAYER
100
AcDbLine
 10
-70.368961553239359
 20
93.446683754673984
 30
0.0
 11
-73.368557681660917
 21
85.841106066956002
 31
0.0
  0
LINE
  5
B6
100
AcDbEntity
  8
0
 62
256
370
-1
 48
1.0
  6
BYLAYER
100
AcDbLine
 10
83.785289112373221
 20
-76.307669178437393
 30
0.0
 11
75.728668519759793
 21
-73.130184320608336
 31
0.0
  0
LINE
  5
B7
100
AcDbEntity
  8
0
 62
256
370
-1
 48
1.0
  6
BYLAYER
100
AcDbLine
 10
66.638344840358172
 20
93.450765354910573
 30
0.0
 11
63.460859982529144
 21
85.394144762297174
 31
0.0
  0
LINE
  5
B8
100
AcDbEntity
  8
0
 62
256
370
-1
 48
1.0
  6
BYLAYER
100
AcDbLine
 10
-66.650626464819823
 20
-93.446683765520049
 30
0.0
 11
-63.47314160699068
 21
-85.390063172906736
 31
0.0
  0
LINE
  5
B9
100
AcDbEntity
  8
0
 62
256
370
-1
 48
1.0
  6
BYLAYER
100
AcDbLine
 10
-83.791001605147159
 20
76.303587610740578
 30
0.0
 11
-75.73438101253376
 21
73.126102752911549
 31
0.0
  0
CIRCLE
  5
BA
100
AcDbEntity
  8
0
 62
256
370
-1
 48
1.0
  6
BYLAYER
100
AcDbCircle
 10
30.25999999999997
 20
39.925476220844061
 30
0.0
 40
1.3999999999999999
  0
LINE
  5
BB
100
AcDbEntity
  8
0
 62
256
370
-1
 48
1.0
  6
BYLAYER
100
AcDbLine
 10
66.642192968440099
 20
-93.450765322370543
 30
0.0
 11
63.464708110611042
 21
-85.394144729757116
 31
0.0
  0
LINE
  5
BC
100
AcDbEntity
  8
0
 62
256
370
-1
 48
1.0
  6
BYLAYER
100
AcDbLine
 10
83.781440984291351
 20
76.307669210977451
 30
0.0
 11
75.724820391677952
 21
73.130184353148366
 31
0.0
  0
LINE
  5
BD
100
AcDbEntity
  8
0
 62
256
370
-1
 48
1.0
  6
BYLAYER
100
AcDbLine
 10
-83.793722608752944
 20
-76.303587621586985
 30
0.0
 11
-75.737102016139431
 21
-73.126102763758013
 31
0.0
  0
LINE
  5
BE
100
AcDbEntity
  8
0
 62
256
370
-1
 48
1.0
  6
BYLAYER
100
AcDbLine
 10
-66.647905461213981
 20
93.446683754673757
 30
0.0
 11
-63.470420603384952
 21
85.390063162060358
 31
0.0
  0
LINE
  5
BF
100
AcDbEntity
  8
0
 62
256
370
-1
 48
1.0
  6
BYLAYER
100
AcDbLine
 10
73.285985556025565
 20
-71.068478090124941
 30
0.0
 11
70.21357580978713
 21
-65.993931213305032
 31
0.0
  0
LINE
  5
C0
100
AcDbEntity
  8
0
 62
256
370
-1
 48
1.0
  6
BYLAYER
100
AcDbLine
 10
61.399153752045777
 20
82.951461798562946
 30
0.0
 11
56.324606875225811
 21
79.879052052324539
 31
0.0
  0
LINE
  5
C1
100
AcDbEntity
  8
0
 62
256
370
-1
 48
1.0
  6
BYLAYER
100
AcDbLine
 10
-61.411435376507256
 20
-82.947380209172536
 30
0.0
 11
-56.336888499687404
 21
-79.874970462934016
 31
0.0
  0
LINE
  5
C2
100
AcDbEntity
  8
0
 62
256
370
-1
 48
1.0
  6
BYLAYER
100
AcDbLine
 10
-73.291698048799475
 20
71.064396522428183
 30
0.0
 11
-70.219288302561068
 21
65.989849645608217
 31
0.0
  0
CIRCLE
  5
C3
100
AcDbEntity
  8
0
 62
256
370
-1
 48
1.0
  6
BYLAYER
100
AcDbCircle
 10
-30.260000000000026
 20
39.925476220844118
 30
0.0
 40
1.3999999999999999
  0
LINE
  5
C4
100
AcDbEntity
  8
0
 62
256
370
-1
 48
1.0
  6
BYLAYER
100
AcDbLine
 10
61.403001880127647
 20
-82.951461766022888
 30
0.0
 11
56.32845500330771
 21
-79.879052019784453
 31
0.0
  0
LINE
  5
C5
100
AcDbEntity
  8
0
 62
256
370
-1
 48
1.0
  6
BYLAYER
100
AcDbLine
 10
73.282137427943724
 20
71.068478122664999
 30
0.0
 11
70.20972768170526
 21
65.993931245845147
 31
0.0
  0
LINE
  5
C6
100
AcDbEntity
  8
0
 62
256
370
-1
 48
1.0
  6
BYLAYER
100
AcDbLine
 10
-73.294419052405203
 20
-71.064396533274589
 30
0.0
 11
-70.222009306166797
 21
-65.98984965645468
 31
0.0
  0
LINE
  5
C7
100
AcDbEntity
  8
0
 62
256
370
-1
 48
1.0
  6
BYLAYER
100
AcDbLine
 10
-61.408714372901528
 20
82.947380198326073
 30
0.0
 11
-56.334167496081619
 21
79.874970452087666
 31
0.0
  0
ARC
  5
C8
100
AcDbEntity
  8
0
 62
256
370
-1
 48
1.0
  6
BYLAYER
100
AcDbCircle
 10
83.051507544057785
 20
-78.168197224449855
 30
0.0
 40
2.0
100
AcDbArc
 50
291.52399120472938
 51
68.476008795270687
  0
ARC
  5
C9
100
AcDbEntity
  8
0
 62
256
370
-1
 48
1.0
  6
BYLAYER
100
AcDbCircle
 10
68.498872886370691
 20
92.716983786595165
 30
0.0
 40
2.0
100
AcDbArc
 50
21.52399120472937
 51
158.4760087952707
  0
ARC
  5
CA
100
AcDbEntity
  8
0
 62
256
370
-1
 48
1.0
  6
BYLAYER
100
AcDbCircle
 10
-68.511154510832284
 20
-92.712902197204642
 30
0.0
 40
2.0
100
AcDbArc
 50
201.52399120472941
 51
338.47600879527067
  0
ARC
  5
CB
100
AcDbEntity
  8
0
 62
256
370
-1
 48
1.0
  6
BYLAYER
100
AcDbCircle
 10
-83.057220036831694
 20
78.164115656753154
 30
0.0
 40
2.0
100
AcDbArc
 50
111.52399120472931
 51
248.47600879527067
  0
CIRCLE
  5
CC
100
AcDbEntity
  8
0
 62
256
370
-1
 48
1.0
  6
BYLAYER
100
AcDbCircle
 10
-30.259999999999842
 20
-39.925476220843898
 30
0.0
 40
1.3999999999999999
  0
ARC
  5
CD
100
AcDbEntity
  8
0
 62
256
370
-1
 48
1.0
  6
BYLAYER
100
AcDbCircle
 10
68.502721014452533
 20
-92.716983754055107
 30
0.0
 40
2.0
100
AcDbArc
 50
201.52399120472933
 51
338.47600879527062
  0
ARC
  5
CE
100
AcDbEntity
  8
0
 62
256
370
-1
 48
1.0
  6
BYLAYER
100
AcDbCircle
 10
83.047659415975886
 20
78.16819725698997
 30
0.0
 40
2.0
100
AcDbArc
 50
291.52399120472933
 51
68.47600879527063
  0
ARC
  5
CF
100
AcDbEntity
  8
0
 62
256
370
-1
 48
1.0
  6
BYLAYER
100
AcDbCircle
 10
-83.059941040437479
 20
-78.164115667599418
 30
0.0
 40
2.0
100
AcDbArc
 50
111.52399120472931
 51
248.47600879527067
  0
ARC
  5
D0
100
AcDbEntity
  8
0
 62
256
370
-1
 48
1.0
  6
BYLAYER
100
AcDbCircle
 10
-68.508433507226442
 20
92.712902186358349
 30
0.0
 40
2.0
100
AcDbArc
 50
21.523991204729317
 51
158.47600879527056
  0
CIRCLE
  5
D1
100
AcDbEntity
  8
0
 62
256
370
-1
 48
1.0
  6
BYLAYER
100
AcDbCircle
 10
16.119999999999951
 20
25.785476220844064
 30
0.0
 40
1.3999999999999999
  0
ARC
  5
D2
100
AcDbEntity
  8
0
 62
256
370
-1
 48
1.0
  6
BYLAYER
100
AcDbCircle
 10
68.502721055977617
 20
-67.029776767124659
 30
0.0
 40
2.0
100
AcDbArc
 50
31.19301834296768
 51
82.383637189181854
  0
ARC
  5
D3
100
AcDbEntity
  8
0
 62
256
370
-1
 48
1.0
  6
BYLAYER
100
AcDbCircle
 10
57.360452429045438
 20
78.168197298515054
 30
0.0
 40
2.0
100
AcDbArc
 50
121.19301834296768
 51
172.38363718918185
  0
ARC
  5
D4
100
AcDbEntity
  8
0
 62
256
370
-1
 48
1.0
  6
BYLAYER
100
AcDbCircle
 10
-57.372734053507031
 20
-78.16411570912453
 30
0.0
 40
2.0
100
AcDbArc
 50
301.19301834296766
 51
352.38363718918185
  0
ARC
  5
D5
100
AcDbEntity
  8
0
 62
256
370
-1
 48
1.0
  6
BYLAYER
100
AcDbCircle
 10
-68.508433548751526
 20
67.025695199427901
 30
0.0
 40
2.0
100
AcDbArc
 50
211.19301834296766
 51
262.38363718918185
  0
CIRCLE
  5
D6
100
AcDbEntity
  8
0
 62
256
370
-1
 48
1.0
  6
BYLAYER
100
AcDbCircle
 10
16.119999999999951
 20
25.785476220844064
 30
0.0
 40
1.3999999999999999
  0
ARC
  5
D7
100
AcDbEntity
  8
0
 62
256
370
-1
 48
1.0
  6
BYLAYER
100
AcDbCircle
 10
57.364300557127365
 20
-78.168197265974939
 30
0.0
 40
2.0
100
AcDbArc
 50
187.61636281081817
 51
238.80698165703234
  0
ARC
  5
D8
100
AcDbEntity
  8
0
 62
256
370
-1
 48
1.0
  6
BYLAYER
100
AcDbCircle
 10
68.498872927895775
 20
67.029776799664688
 30
0.0
 40
2.0
100
AcDbArc
 50
277.61636281081815
 51
328.80698165703234
  0
ARC
  5
D9
100
AcDbEntity
  8
0
 62
256
370
-1
 48
1.0
  6
BYLAYER
100
AcDbCircle
 10
-68.511154552357311
 20
-67.02569521027425
 30
0.0
 40
2.0
100
AcDbArc
 50
97.616362810818202
 51
148.80698165703228
  0
ARC
  5
DA
100
AcDbEntity
  8
0
 62
256
370
-1
 48
1.0
  6
BYLAYER
100
AcDbCircle
 10
-57.370013049901303
 20
78.164115698278181
 30
0.0
 40
2.0
100
AcDbArc
 50
7.6163628108181953
 51
58.806981657032317
  0
CIRCLE
  5
DB
100
AcDbEntity
  8
0
 62
256
370
-1
 48
1.0
  6
BYLAYER
100
AcDbCircle
 10
30.259999999999987
 20
-39.925476220844104
 30
0.0
 40
1.3999999999999999
  0
ARC
  5
DC
100
AcDbEntity
  8
0
 62
256
370
-1
 48
1.0
  6
BYLAYER
100
AcDbCircle
 10
78.014165303918986
 20
-87.679641555441933
 30
0.0
 40
5.0
100
AcDbArc
 50
111.52399120472931
 51
158.47600879527064
  0
ARC
  5
DD
100
AcDbEntity
  8
0
 62
256
370
-1
 48
1.0
  6
BYLAYER
100
AcDbCircle
 10
78.010317202023259
 20
87.679641561795847
 30
0.0
 40
5.0
100
AcDbArc
 50
201.52399120472933
 51
248.47600879527067
  0
ARC
  5
DE
100
AcDbEntity
  8
0
 62
256
370
-1
 48
1.0
  6
BYLAYER
100
AcDbCircle
 10
-78.02259884182422
 20
-87.675559957065957
 30
0.0
 40
5.0
100
AcDbArc
 50
21.523991204729317
 51
68.476008795270687
  0
ARC
  5
DF
100
AcDbEntity
  8
0
 62
256
370
-1
 48
1.0
  6
BYLAYER
100
AcDbCircle
 10
-78.019877796692896
 20
87.675559987745146
 30
0.0
 40
5.0
100
AcDbArc
 50
291.52399120472933
 51
338.47600879527067
  0
CIRCLE
  5
E0
100
AcDbEntity
  8
0
 62
256
370
-1
 48
1.0
  6
BYLAYER
100
AcDbCircle
 10
30.25999999999997
 20
39.925476220844061
 30
0.0
 40
1.3999999999999999
  0
ARC
  5
E1
100
AcDbEntity
  8
0
 62
256
370
-1
 48
1.0
  6
BYLAYER
100
AcDbCircle
 10
77.563122440549137
 20
-68.478864205576215
 30
0.0
 40
5.0
100
AcDbArc
 50
211.19301834296766
 51
248.47600879527067
  0
ARC
  5
E2
100
AcDbEntity
  8
0
 62
256
370
-1
 48
1.0
  6
BYLAYER
100
AcDbCircle
 10
58.809539867496994
 20
87.228598683086489
 30
0.0
 40
5.0
100
AcDbArc
 50
301.19301834296766
 51
338.47600879527067
  0
ARC
  5
E3
100
AcDbEntity
  8
0
 62
256
370
-1
 48
1.0
  6
BYLAYER
100
AcDbCircle
 10
-58.821821491958588
 20
-87.224517093696022
 30
0.0
 40
5.0
100
AcDbArc
 50
121.19301834296762
 51
158.4760087952707
  0
ARC
  5
E4
100
AcDbEntity
  8
0
 62
256
370
-1
 48
1.0
  6
BYLAYER
100
AcDbCircle
 10
-77.568834933323075
 20
68.4747826378794
 30
0.0
 40
5.0
100
AcDbArc
 50
31.193018342967626
 51
68.476008795270687
  0
CIRCLE
  5
E5
100
AcDbEntity
  8
0
 62
256
370
-1
 48
1.0
  6
BYLAYER
100
AcDbCircle
 10
-30.260000000000026
 20
39.92547622084389
 30
0.0
 40
1.3999999999999999
  0
ARC
  5
E6
100
AcDbEntity
  8
0
 62
256
370
-1
 48
1.0
  6
BYLAYER
100
AcDbCircle
 10
58.813387995578893
 20
-87.228598650546459
 30
0.0
 40
5.0
100
AcDbArc
 50
21.523991204729327
 51
58.806981657032367
  0
ARC
  5
E7
100
AcDbEntity
  8
0
 62
256
370
-1
 48
1.0
  6
BYLAYER
100
AcDbCircle
 10
77.559274312467267
 20
68.478864238116245
 30
0.0
 40
5.0
100
AcDbArc
 50
111.52399120472933
 51
148.80698165703237
  0
ARC
  5
E8
100
AcDbEntity
  8
0
 62
256
370
-1
 48
1.0
  6
BYLAYER
100
AcDbCircle
 10
-77.571555936928746
 20
-68.474782648725892
 30
0.0
 40
5.0
100
AcDbArc
 50
291.52399120472933
 51
328.8069816570324
  0
ARC
  5
E9
100
AcDbEntity
  8
0
 62
256
370
-1
 48
1.0
  6
BYLAYER
100
AcDbCircle
 10
-58.819100488352859
 20
87.224517082849673
 30
0.0
 40
5.0
100
AcDbArc
 50
201.52399120472933
 51
238.80698165703237
  0
CIRCLE
  5
EA
100
AcDbEntity
  8
0
 62
256
370
-1
 48
1.0
  6
BYLAYER
100
AcDbCircle
 10
-30.260000000000026
 20
-39.925476220843898
 30
0.0
 40
1.3999999999999999
  0
LINE
  5
EB
100
AcDbEntity
  8
0
 62
256
370
-1
 48
1.0
  6
BYLAYER
100
AcDbLine
 10
12.939364994083803
 20
-28.968802276284709
 30
0.0
 11
47.101153412674961
 21
-63.130590694876084
 31
0.0
  0
LINE
  5
EC
100
AcDbEntity
  8
0
 62
256
370
-1
 48
1.0
  6
BYLAYER
100
AcDbLine
 10
19.299477938205484
 20
22.60484123662124
 30
0.0
 11
53.461266356796898
 21
56.766629655212398
 31
0.0
  0
LINE
  5
ED
100
AcDbEntity
  8
0
 62
256
370
-1
 48
1.0
  6
BYLAYER
100
AcDbLine
 10
-19.311759562667021
 20
-22.600759647230774
 30
0.0
 11
-53.473547981258434
 21
-56.762548065821903
 31
0.0
  0
LINE
  5
EE
100
AcDbEntity
  8
0
 62
256
370
-1
 48
1.0
  6
BYLAYER
100
AcDbLine
 10
-12.945077486857798
 20
28.96472070858789
 30
0.0
 11
-47.106865905448871
 21
63.126509127179304
 31
0.0
  0
CIRCLE
  5
EF
100
AcDbEntity
  8
0
 62
256
370
-1
 48
1.0
  6
BYLAYER
100
AcDbCircle
 10
16.119999999999951
 20
25.785476220844064
 30
0.0
 40
1.3999999999999999
  0
LINE
  5
F0
100
AcDbEntity
  8
0
 62
256
370
-1
 48
1.0
  6
BYLAYER
100
AcDbLine
 10
19.304701571317139
 20
-22.606216709110484
 30
0.0
 11
53.465114484880388
 21
-56.766629622673989
 31
0.0
  0
LINE
  5
F1
100
AcDbEntity
  8
0
 62
256
370
-1
 48
1.0
  6
BYLAYER
100
AcDbLine
 10
12.936892371031263
 20
28.970177813854519
 30
0.0
 11
47.097305284594768
 21
63.130590727417797
 31
0.0
  0
LINE
  5
F2
100
AcDbEntity
  8
0
 62
256
370
-1
 48
1.0
  6
BYLAYER
100
AcDbLine
 10
-12.949173995492799
 20
-28.966096224464053
 30
0.0
 11
-47.109586909056361
 21
-63.126509138027302
 31
0.0
  0
LINE
  5
F3
100
AcDbEntity
  8
0
 62
256
370
-1
 48
1.0
  6
BYLAYER
100
AcDbLine
 10
-19.310414064091077
 20
22.602135141413669
 30
0.0
 11
-53.470826977654355
 21
56.762548054977231
 31
0.0
  0
ARC
  5
F4
100
AcDbEntity
  8
0
 62
256
370
-1
 48
1.0
  6
BYLAYER
100
AcDbCircle
 10
73.354483797630479
 20
-38.291473872293714
 30
0.0
 40
27.146240838461861
100
AcDbArc
 50
222.88888832926719
 51
260.56219962697963
  0
ARC
  5
F5
100
AcDbEntity
  8
0
 62
256
370
-1
 48
1.0
  6
BYLAYER
100
AcDbCircle
 10
28.622149534214486
 20
83.019960040167916
 30
0.0
 40
27.146240838461861
100
AcDbArc
 50
312.88888832926716
 51
350.56219962697963
  0
ARC
  5
F6
100
AcDbEntity
  8
0
 62
256
370
-1
 48
1.0
  6
BYLAYER
100
AcDbCircle
 10
-28.634431158676136
 20
-83.015878450777393
 30
0.0
 40
27.146240838461861
100
AcDbArc
 50
132.88888832926722
 51
170.56219962697958
  0
ARC
  5
F7
100
AcDbEntity
  8
0
 62
256
370
-1
 48
1.0
  6
BYLAYER
100
AcDbCircle
 10
-73.360196290404446
 20
38.287392304596949
 30
0.0
 40
27.146240838461861
100
AcDbArc
 50
42.888888329267211
 51
80.562199626979634
  0
ARC
  5
F8
100
AcDbEntity
  8
0
 62
256
370
-1
 48
1.0
  6
BYLAYER
100
AcDbCircle
 10
28.625997662296413
 20
-83.019960007627787
 30
0.0
 40
27.146240838461861
100
AcDbArc
 50
9.4378003730203783
 51
47.111111670732839
  0
ARC
  5
F9
100
AcDbEntity
  8
0
 62
256
370
-1
 48
1.0
  6
BYLAYER
100
AcDbCircle
 10
73.350635669548581
 20
38.291473904833765
 30
0.0
 40
27.146240838461861
100
AcDbArc
 50
99.437800373020366
 51
137.11111167073284
  0
ARC
  5
FA
100
AcDbEntity
  8
0
 62
256
370
-1
 48
1.0
  6
BYLAYER
100
AcDbCircle
 10
-73.362917294010174
 20
-38.287392315443299
 30
0.0
 40
27.146240838461861
100
AcDbArc
 50
279.43780037302037
 51
317.11111167073284
  0
ARC
  5
FB
100
AcDbEntity
  8
0
 62
256
370
-1
 48
1.0
  6
BYLAYER
100
AcDbCircle
 10
-28.631710155070294
 20
83.015878439930987
 30
0.0
 40
27.146240838461861
100
AcDbArc
 50
189.43780037302037
 51
227.11111167073281
  0
ARC
  5
FC
100
AcDbEntity
  8
0
 62
256
370
-1
 48
1.0
  6
BYLAYER
100
AcDbCircle
 10
16.119999999999976
 20
-25.785476220843925
 30
0.0
 40
4.5
100
AcDbArc
 50
44.951004261978881
 51
225.0242279563852
  0
ARC
  5
FD
100
AcDbEntity
  8
0
 62
256
370
-1
 48
1.0
  6
BYLAYER
100
AcDbCircle
 10
16.116151882764711
 20
25.785476242537385
 30
0.0
 40
4.5
100
AcDbArc
 50
134.95100426197888
 51
315.02422795638523
  0
ARC
  5
FE
100
AcDbEntity
  8
0
 62
256
370
-1
 48
1.0
  6
BYLAYER
100
AcDbCircle
 10
-16.128433507226248
 20
-25.781394653146918
 30
0.0
 40
4.5
100
AcDbArc
 50
314.95100426197888
 51
135.02422795638515
  0
ARC
  5
FF
100
AcDbEntity
  8
0
 62
256
370
-1
 48
1.0
  6
BYLAYER
100
AcDbCircle
 10
-16.125712492773943
 20
25.781394653147117
 30
0.0
 40
4.5
100
AcDbArc
 50
224.95100426197888
 51
45.024227956385204
  0
CIRCLE
  5
100
100
AcDbEntity
  8
0
 62
256
370
-1
 48
1.0
  6
BYLAYER
100
AcDbCircle
 10
16.119999999999983
 20
-25.785476220843922
 30
0.0
 40
1.3999999999999999
  0
CIRCLE
  5
101
100
AcDbEntity
  8
0
 62
256
370
-1
 48
1.0
  6
BYLAYER
100
AcDbCircle
 10
-16.120000000000019
 20
-25.785476220843922
 30
0.0
 40
1.3999999999999999
  0
CIRCLE
  5
102
100
AcDbEntity
  8
0
 62
256
370
-1
 48
1.0
  6
BYLAYER
100
AcDbCircle
 10
16.119999999999987
 20
-25.785476220844103
 30
0.0
 40
1.3999999999999999
  0
CIRCLE
  5
103
100
AcDbEntity
  8
0
 62
256
370
-1
 48
1.0
  6
BYLAYER
100
AcDbCircle
 10
16.119999999999955
 20
25.785476220844064
 30
0.0
 40
1.3999999999999999
  0
CIRCLE
  5
104
100
AcDbEntity
  8
0
 62
256
370
-1
 48
1.0
  6
BYLAYER
100
AcDbCircle
 10
-16.120000000000054
 20
25.785476220844064
 30
0.0
 40
1.3999999999999999
  0
CIRCLE
  5
105
100
AcDbEntity
  8
0
 62
256
370
-1
 48
1.0
  6
BYLAYER
100
AcDbCircle
 10
-16.120000000000019
 20
-25.785476220843918
 30
0.0
 40
1.3999999999999999
  0
CIRCLE
  5
106
100
AcDbEntity
  8
0
 62
256
370
-1
 48
1.0
  6
BYLAYER
100
AcDbCircle
 10
16.128433507226216
 20
-25.784115698278249
 30
0.0
 40
1.3999999999999999
  0
CIRCLE
  5
107
100
AcDbEntity
  8
0
 62
256
370
-1
 48
1.0
  6
BYLAYER
100
AcDbCircle
 10
16.119999999999997
 20
25.785476220844028
 30
0.0
 40
1.3999999999999999
  0
CIRCLE
  5
108
100
AcDbEntity
  8
0
 62
256
370
-1
 48
1.0
  6
BYLAYER
100
AcDbCircle
 10
-16.12000000000004
 20
25.785476220844078
 30
0.0
 40
1.3999999999999999
  0
CIRCLE
  5
109
100
AcDbEntity
  8
0
 62
256
370
-1
 48
1.0
  6
BYLAYER
100
AcDbCircle
 10
-16.119999999999813
 20
-25.785476220843911
 30
0.0
 40
1.3999999999999999
  0
CIRCLE
  5
10A
100
AcDbEntity
  8
0
 62
256
370
-1
 48
1.0
  6
BYLAYER
100
AcDbCircle
 10
16.119999999999983
 20
-25.785476220843922
 30
0.0
 40
1.3999999999999999
  0
CIRCLE
  5
10B
100
AcDbEntity
  8
0
 62
256
370
-1
 48
1.0
  6
BYLAYER
100
AcDbCircle
 10
-16.120000000000019
 20
-25.785476220843922
 30
0.0
 40
1.3999999999999999
  0
CIRCLE
  5
10C
100
AcDbEntity
  8
0
 62
256
370
-1
 48
1.0
  6
BYLAYER
100
AcDbCircle
 10
16.119999999999987
 20
-25.785476220844103
 30
0.0
 40
1.3999999999999999
  0
CIRCLE
  5
10D
100
AcDbEntity
  8
0
 62
256
370
-1
 48
1.0
  6
BYLAYER
100
AcDbCircle
 10
16.119999999999955
 20
25.785476220844064
 30
0.0
 40
1.3999999999999999
  0
CIRCLE
  5
10E
100
AcDbEntity
  8
0
 62
256
370
-1
 48
1.0
  6
BYLAYER
100
AcDbCircle
 10
-16.120000000000054
 20
25.785476220844064
 30
0.0
 40
1.3999999999999999
  0
CIRCLE
  5
10F
100
AcDbEntity
  8
0
 62
256
370
-1
 48
1.0
  6
BYLAYER
100
AcDbCircle
 10
-16.120000000000019
 20
-25.785476220843918
 30
0.0
 40
1.3999999999999999
  0
CIRCLE
  5
110
100
AcDbEntity
  8
0
 62
256
370
-1
 48
1.0
  6
BYLAYER
100
AcDbCircle
 10
-16.120000000000022
 20
-25.785476220843922
 30
0.0
 40
1.3999999999999999
  0
CIRCLE
  5
111
100
AcDbEntity
  8
0
 62
256
370
-1
 48
1.0
  6
BYLAYER
100
AcDbCircle
 10
-16.120000000000019
 20
-25.785476220843922
 30
0.0
 40
1.3999999999999999
  0
CIRCLE
  5
112
100
AcDbEntity
  8
0
 62
256
370
-1
 48
1.0
  6
BYLAYER
100
AcDbCircle
 10
16.119999999999987
 20
-25.785476220844103
 30
0.0
 40
1.3999999999999999
  0
CIRCLE
  5
113
100
AcDbEntity
  8
0
 62
256
370
-1
 48
1.0
  6
BYLAYER
100
AcDbCircle
 10
16.119999999999955
 20
25.785476220844064
 30
0.0
 40
1.3999999999999999
  0
CIRCLE
  5
114
100
AcDbEntity
  8
0
 62
256
370
-1
 48
1.0
  6
BYLAYER
100
AcDbCircle
 10
-16.120000000000054
 20
25.785476220844064
 30
0.0
 40
1.3999999999999999
  0
CIRCLE
  5
115
100
AcDbEntity
  8
0
 62
256
370
-1
 48
1.0
  6
BYLAYER
100
AcDbCircle
 10
-16.120000000000019
 20
-25.785476220843918
 30
0.0
 40
1.3999999999999999
  0
CIRCLE
  5
116
100
AcDbEntity
  8
0
 62
256
370
-1
 48
1.0
  6
BYLAYER
100
AcDbCircle
 10
16.119999999999983
 20
-25.785476220843922
 30
0.0
 40
1.3999999999999999
  0
CIRCLE
  5
117
100
AcDbEntity
  8
0
 62
256
370
-1
 48
1.0
  6
BYLAYER
100
AcDbCircle
 10
-16.120000000000019
 20
-25.785476220843922
 30
0.0
 40
1.3999999999999999
  0
CIRCLE
  5
118
100
AcDbEntity
  8
0
 62
256
370
-1
 48
1.0
  6
BYLAYER
100
AcDbCircle
 10
16.119999999999987
 20
-25.785476220844103
 30
0.0
 40
1.3999999999999999
  0
CIRCLE
  5
119
100
AcDbEntity
  8
0
 62
256
370
-1
 48
1.0
  6
BYLAYER
100
AcDbCircle
 10
16.119999999999955
 20
25.785476220844064
 30
0.0
 40
1.3999999999999999
  0
CIRCLE
  5
11A
100
AcDbEntity
  8
0
 62
256
370
-1
 48
1.0
  6
BYLAYER
100
AcDbCircle
 10
-16.120000000000054
 20
25.785476220844064
 30
0.0
 40
1.3999999999999999
  0
CIRCLE
  5
11B
100
AcDbEntity
  8
0
 62
256
370
-1
 48
1.0
  6
BYLAYER
100
AcDbCircle
 10
-16.120000000000019
 20
-25.785476220843918
 30
0.0
 40
1.3999999999999999
  0
CIRCLE
  5
11C
100
AcDbEntity
  8
0
 62
256
370
-1
 48
1.0
  6
BYLAYER
100
AcDbCircle
 10
-16.120000000000022
 20
-25.785476220843922
 30
0.0
 40
1.3999999999999999
  0
LINE
  5
11D
100
AcDbEntity
  8
0
 62
256
370
-1
 48
1.0
  6
BYLAYER
100
AcDbLine
 10
-450.0
 20
-900.0
 30
0.0
 11
450.0
 21
-900.0
 31
0.0
  0
LINE
  5
11E
100
AcDbEntity
  8
0
 62
256
370
-1
 48
1.0
  6
BYLAYER
100
AcDbLine
 10
450.0
 20
-900.0
 30
0.0
 11
450.0
 21
900.0
 31
0.0
  0
LINE
  5
11F
100
AcDbEntity
  8
0
 62
256
370
-1
 48
1.0
  6
BYLAYER
100
AcDbLine
 10
450.0
 20
900.0
 30
0.0
 11
-450.0
 21
900.0
 31
0.0
  0
LINE
  5
120
100
AcDbEntity
  8
0
 62
256
370
-1
 48
1.0
  6
BYLAYER
100
AcDbLine
 10
-450.0
 20
900.0
 30
0.0
 11
-450.0
 21
-900.0
 31
0.0
  0
LINE
  5
121
100
AcDbEntity
  8
0
 62
256
370
-1
 48
1.0
  6
BYLAYER
100
AcDbLine
 10
-417.0
 20
-867.0
 30
0.0
 11
483.0
 21
-867.0
 31
0.0
  0
LINE
  5
122
100
AcDbEntity
  8
0
 62
256
370
-1
 48
1.0
  6
BYLAYER
100
AcDbLine
 10
483.0
 20
-867.0
 30
0.0
 11
483.0
 21
933.0
 31
0.0
  0
LINE
  5
123
100
AcDbEntity
  8
0
 62
256
370
-1
 48
1.0
  6
BYLAYER
100
AcDbLine
 10
483.0
 20
933.0
 30
0.0
 11
-417.0
 21
933.0
 31
0.0
  0
LINE
  5
124
100
AcDbEntity
  8
0
 62
256
370
-1
 48
1.0
  6
BYLAYER
100
AcDbLine
 10
-417.0
 20
933.0
 30
0.0
 11
-417.0
 21
-867.0
 31
0.0
  0
LINE
  5
125
100
AcDbEntity
  8
0
 62
256
370
-1
 48
1.0
  6
BYLAYER
100
AcDbLine
 10
-417.0
 20
-900.0
 30
0.0
 11
483.0
 21
-900.0
 31
0.0
  0
LINE
  5
126
100
AcDbEntity
  8
0
 62
256
370
-1
 48
1.0
  6
BYLAYER
100
AcDbLine
 10
483.0
 20
-900.0
 30
0.0
 11
483.0
 21
900.0
 31
0.0
  0
LINE
  5
127
100
AcDbEntity
  8
0
 62
256
370
-1
 48
1.0
  6
BYLAYER
100
AcDbLine
 10
483.0
 20
900.0
 30
0.0
 11
-417.0
 21
900.0
 31
0.0
  0
LINE
  5
128
100
AcDbEntity
  8
0
 62
256
370
-1
 48
1.0
  6
BYLAYER
100
AcDbLine
 10
-417.0
 20
900.0
 30
0.0
 11
-417.0
 21
-900.0
 31
0.0
  0
LINE
  5
129
100
AcDbEntity
  8
0
 62
256
370
-1
 48
1.0
  6
BYLAYER
100
AcDbLine
 10
-450.0
 20
-867.0
 30
0.0
 11
450.0
 21
-867.0
 31
0.0
  0
LINE
  5
12A
100
AcDbEntity
  8
0
 62
256
370
-1
 48
1.0
  6
BYLAYER
100
AcDbLine
 10
450.0
 20
-867.0
 30
0.0
 11
450.0
 21
933.0
 31
0.0
  0
LINE
  5
12B
100
AcDbEntity
  8
0
 62
256
370
-1
 48
1.0
  6
BYLAYER
100
AcDbLine
 10
450.0
 20
933.0
 30
0.0
 11
-450.0
 21
933.0
 31
0.0
  0
LINE
  5
12C
100
AcDbEntity
  8
0
 62
256
370
-1
 48
1.0
  6
BYLAYER
100
AcDbLine
 10
-450.0
 20
933.0
 30
0.0
 11
-450.0
 21
-867.0
 31
0.0
  0
LINE
  5
12D
100
AcDbEntity
  8
0
 62
256
370
-1
 48
1.0
  6
BYLAYER
100
AcDbLine
 10
-424.0
 20
-886.0
 30
0.0
 11
476.0
 21
-886.0
 31
0.0
  0
LINE
  5
12E
100
AcDbEntity
  8
0
 62
256
370
-1
 48
1.0
  6
BYLAYER
100
AcDbLine
 10
476.0
 20
-886.0
 30
0.0
 11
476.0
 21
914.0
 31
0.0
  0
LINE
  5
12F
100
AcDbEntity
  8
0
 62
256
370
-1
 48
1.0
  6
BYLAYER
100
AcDbLine
 10
476.0
 20
914.0
 30
0.0
 11
-424.0
 21
914.0
 31
0.0
  0
LINE
  5
130
100
AcDbEntity
  8
0
 62
256
370
-1
 48
1.0
  6
BYLAYER
100
AcDbLine
 10
-424.0
 20
914.0
 30
0.0
 11
-424.0
 21
-886.0
 31
0.0
  0
CIRCLE
  5
131
100
AcDbEntity
  8
0
 62
256
370
-1
 48
1.0
  6
BYLAYER
100
AcDbCircle
 10
68.500000000000014
 20
-78.165476220843914
 30
0.0
 40
65.0
  0
CIRCLE
  5
132
100
AcDbEntity
  8
0
 62
256
370
-1
 48
1.0
  6
BYLAYER
100
AcDbCircle
 10
68.499999999999986
 20
78.165476220844056
 30
0.0
 40
65.0
  0
CIRCLE
  5
133
100
AcDbEntity
  8
0
 62
256
370
-1
 48
1.0
  6
BYLAYER
100
AcDbCircle
 10
-68.500000000000028
 20
78.165476220844113
 30
0.0
 40
65.0
  0
CIRCLE
  5
134
100
AcDbEntity
  8
0
 62
256
370
-1
 48
1.0
  6
BYLAYER
100
AcDbCircle
 10
-68.499999999999815
 20
-78.165476220843914
 30
0.0
 40
65.0
  0
ARC
  5
135
100
AcDbEntity
  8
0
 62
256
370
-1
 48
1.0
  6
BYLAYER
100
AcDbCircle
 10
-30.260000000000026
 20
39.925476220843898
 30
0.0
 40
4.5
100
AcDbArc
 50
48.629246454475123
 51
212.82454527691448
  0
ARC
  5
136
100
AcDbEntity
  8
0
 62
256
370
-1
 48
1.0
  6
BYLAYER
100
AcDbCircle
 10
-30.260000000000041
 20
-39.925476220843898
 30
0.0
 40
4.5
100
AcDbArc
 50
147.17545472308603
 51
311.37075354552491
  0
ARC
  5
137
100
AcDbEntity
  8
0
 62
256
370
-1
 48
1.0
  6
BYLAYER
100
AcDbCircle
 10
30.260000000000002
 20
-39.925476220844104
 30
0.0
 40
4.5
100
AcDbArc
 50
228.62924645447507
 51
32.824545276914257
  0
ARC
  5
138
100
AcDbEntity
  8
0
 62
256
370
-1
 48
1.0
  6
BYLAYER
100
AcDbCircle
 10
-16.128433507226223
 20
-25.781394653146911
 30
0.0
 40
4.5
100
AcDbArc
 50
168.4954960110625
 51
284.47582907909674
  0
ARC
  5
139
100
AcDbEntity
  8
0
 62
256
370
-1
 48
1.0
  6
BYLAYER
100
AcDbCircle
 10
16.128433507226219
 20
-25.784115698278249
 30
0.0
 40
4.5
100
AcDbArc
 50
255.52417092090323
 51
11.504503988937518
  0
ARC
  5
13A
100
AcDbEntity
  8
0
 62
256
370
-1
 48
1.0
  6
BYLAYER
100
AcDbCircle
 10
-16.128433507226283
 20
25.784115698278391
 30
0.0
 40
4.5
100
AcDbArc
 50
18.351591591774639
 51
191.50450398906631
  0
ARC
  5
13B
100
AcDbEntity
  8
0
 62
256
370
-1
 48
1.0
  6
BYLAYER
100
AcDbCircle
 10
16.128433507226276
 20
25.781394653147053
 30
0.0
 40
4.5
100
AcDbArc
 50
348.49549601093372
 51
161.64840840822535
  0
ARC
  5
13C
100
AcDbEntity
  8
0
 62
256
370
-1
 48
1.0
  6
BYLAYER
100
AcDbCircle
 10
-0.0052680846741971
 20
-88.233724767859371
 30
0.0
 40
60.0
100
AcDbArc
 50
75.514504489166271
 51
104.47582907909684
  0
ARC
  5
13D
100
AcDbEntity
  8
0
 62
256
370
-1
 48
1.0
  6
BYLAYER
100
AcDbCircle
 10
-0.0000000000000025
 20
-74.284048150414407
 30
0.0
 40
41.284048150414399
100
AcDbArc
 50
48.629246454475265
 51
131.37075354552474
  0
ARC
  5
13E
100
AcDbEntity
  8
0
 62
256
370
-1
 48
1.0
  6
BYLAYER
100
AcDbCircle
 10
0.0000000000000076
 20
74.284048150414407
 30
0.0
 40
41.284048150414399
100
AcDbArc
 50
228.62924645447526
 51
311.37075354552474
  0
ARC
  5
13F
100
AcDbEntity
  8
0
 62
256
370
-1
 48
1.0
  6
BYLAYER
100
AcDbCircle
 10
30.25999999999997
 20
39.925476220844054
 30
0.0
 40
4.5
100
AcDbArc
 50
327.17545472308592
 51
131.3707535455251
  0
ARC
  5
140
100
AcDbEntity
  8
0
 62
256
370
-1
 48
1.0
  6
BYLAYER
100
AcDbCircle
 10
-142.80375259932669
 20
0.0013605224192014
 30
0.0
 40
124.77252968648732
100
AcDbArc
 50
348.49549601106162
 51
11.504503989065636
  0
ARC
  5
141
100
AcDbEntity
  8
0
 62
256
370
-1
 48
1.0
  6
BYLAYER
100
AcDbCircle
 10
142.80375259932669
 20
-0.0013605225655979
 30
0.0
 40
124.77252968648732
100
AcDbArc
 50
168.49549601093435
 51
191.50450398893838
  0
ARC
  5
142
100
AcDbEntity
  8
0
 62
256
370
-1
 48
1.0
  6
BYLAYER
100
AcDbCircle
 10
92.15396477300979
 20
0.0
 30
0.0
 40
69.15396477300979
100
AcDbArc
 50
147.17545472308589
 51
212.82454527691411
  0
ARC
  5
143
100
AcDbEntity
  8
0
 62
256
370
-1
 48
1.0
  6
BYLAYER
100
AcDbCircle
 10
-92.153964773009108
 20
0.0
 30
0.0
 40
69.153964773009108
100
AcDbArc
 50
327.17545472308564
 51
32.824545276914314
  0
ENDSEC
  0
SECTION
  2
OBJECTS
  0
DICTIONARY
  5
C
100
AcDbDictionary
280
0
281
1
  3
ACAD_GROUP
350
D
  3
ACAD_LAYOUT
350
1A
  3
ACAD_MLINESTYLE
350
17
  3
ACAD_PLOTSETTINGS
350
19
  3
ACAD_PLOTSTYLENAME
350
E
  3
AcDbVariableDictionary
350
144
  3
QCAD_OBJECTS
350
145
  0
DICTIONARY
  5
D
100
AcDbDictionary
280
0
281
1
  0
ACDBDICTIONARYWDFLT
  5
E
100
AcDbDictionary
281
1
  3
Normal
350
F
100
AcDbDictionaryWithDefault
340
F
  0
ACDBPLACEHOLDER
  5
F
  0
DICTIONARY
  5
17
100
AcDbDictionary
280
0
281
1
  3
Standard
350
18
  0
MLINESTYLE
  5
18
100
AcDbMlineStyle
  2
STANDARD
 70
0
  3

 62
256
 51
90.0
 52
90.0
 71
2
 49
0.5
 62
256
  6
BYLAYER
 49
-0.5
 62
256
  6
BYLAYER
  0
DICTIONARY
  5
19
100
AcDbDictionary
280
0
281
1
  0
DICTIONARY
  5
1A
100
AcDbDictionary
281
1
  3
Layout1
350
1E
  3
Layout2
350
26
  3
Model
350
22
  0
LAYOUT
  5
1E
100
AcDbPlotSettings
  1

  2
none_device
  4

  6

 40
0.0
 41
0.0
 42
0.0
 43
0.0
 44
0.0
 45
0.0
 46
0.0
 47
0.0
 48
0.0
 49
0.0
140
0.0
141
0.0
142
1.0
143
1.0
 70
688
 72
0
 73
0
 74
5
  7

 75
16
147
1.0
148
0.0
149
0.0
100
AcDbLayout
  1
Layout1
 70
1
 71
1
 10
0.0
 20
0.0
 11
420.0
 21
297.0
 12
0.0
 22
0.0
 32
0.0
 14
100000000000000000000.0
 24
100000000000000000000.0
 34
100000000000000000000.0
 15
-100000000000000000000.0
 25
-100000000000000000000.0
 35
-100000000000000000000.0
146
0.0
 13
0.0
 23
0.0
 33
0.0
 16
1.0
 26
0.0
 36
0.0
 17
0.0
 27
1.0
 37
0.0
 76
0
330
1B
  0
LAYOUT
  5
22
100
AcDbPlotSettings
  1

  2
none_device
  4

  6

 40
0.0
 41
0.0
 42
0.0
 43
0.0
 44
0.0
 45
0.0
 46
0.0
 47
0.0
 48
0.0
 49
0.0
140
0.0
141
0.0
142
1.0
143
1.0
 70
1712
 72
0
 73
0
 74
0
  7

 75
0
147
1.0
148
0.0
149
0.0
100
AcDbLayout
  1
Model
 70
1
 71
0
 10
0.0
 20
0.0
 11
12.0
 21
9.0
 12
0.0
 22
0.0
 32
0.0
 14
0.0
 24
0.0
 34
0.0
 15
0.0
 25
0.0
 35
0.0
146
0.0
 13
0.0
 23
0.0
 33
0.0
 16
1.0
 26
0.0
 36
0.0
 17
0.0
 27
1.0
 37
0.0
 76
0
330
1F
  0
LAYOUT
  5
26
100
AcDbPlotSettings
  1

  2
none_device
  4

  6

 40
0.0
 41
0.0
 42
0.0
 43
0.0
 44
0.0
 45
0.0
 46
0.0
 47
0.0
 48
0.0
 49
0.0
140
0.0
141
0.0
142
1.0
143
1.0
 70
688
 72
0
 73
0
 74
5
  7

 75
16
147
1.0
148
0.0
149
0.0
100
AcDbLayout
  1
Layout2
 70
1
 71
2
 10
0.0
 20
0.0
 11
12.0
 21
9.0
 12
0.0
 22
0.0
 32
0.0
 14
0.0
 24
0.0
 34
0.0
 15
0.0
 25
0.0
 35
0.0
146
0.0
 13
0.0
 23
0.0
 33
0.0
 16
1.0
 26
0.0
 36
0.0
 17
0.0
 27
1.0
 37
0.0
 76
0
330
23
  0
DICTIONARY
  5
144
100
AcDbDictionary
281
1
  3
DIMASSOC
350
147
  3
HIDETEXT
350
146
  0
DICTIONARYVAR
  5
146
100
DictionaryVariables
280
0
  1
2
  0
DICTIONARYVAR
  5
147
100
DictionaryVariables
280
0
  1
1
  0
DICTIONARY
  5
145
100
AcDbDictionary
281
1
  3
ColorSettings/BackgroundColor
350
148
  3
ColorSettings/ColorMode
350
149
  3
Grid/DisplayGrid00
350
14A
  3
Grid/DisplayGrid01
350
14B
  3
Grid/DisplayGrid02
350
14C
  3
Grid/DisplayGrid03
350
14D
  3
Grid/GridSpacingX00
350
14E
  3
Grid/GridSpacingX01
350
14F
  3
Grid/GridSpacingX02
350
150
  3
Grid/GridSpacingX03
350
151
  3
Grid/GridSpacingY00
350
152
  3
Grid/GridSpacingY01
350
153
  3
Grid/GridSpacingY02
350
154
  3
Grid/GridSpacingY03
350
155
  3
Grid/IsometricGrid00
350
156
  3
Grid/IsometricGrid01
350
157
  3
Grid/IsometricGrid02
350
158
  3
Grid/IsometricGrid03
350
159
  3
Grid/IsometricProjection00
350
15A
  3
Grid/IsometricProjection01
350
15B
  3
Grid/IsometricProjection02
350
15C
  3
Grid/IsometricProjection03
350
15D
  3
Grid/MetaGridSpacingX00
350
15E
  3
Grid/MetaGridSpacingX01
350
15F
  3
Grid/MetaGridSpacingX02
350
160
  3
Grid/MetaGridSpacingX03
350
161
  3
Grid/MetaGridSpacingY00
350
162
  3
Grid/MetaGridSpacingY01
350
163
  3
Grid/MetaGridSpacingY02
350
164
  3
Grid/MetaGridSpacingY03
350
165
  3
MultiPageSettings/Columns
350
166
  3
MultiPageSettings/GlueMarginsBottom
350
167
  3
MultiPageSettings/GlueMarginsLeft
350
168
  3
MultiPageSettings/GlueMarginsRight
350
169
  3
MultiPageSettings/GlueMarginsTop
350
16A
  3
MultiPageSettings/PrintCropMarks
350
16B
  3
MultiPageSettings/Rows
350
16C
  3
PageSettings/OffsetX
350
16D
  3
PageSettings/OffsetY
350
16E
  3
PageSettings/PageOrientation
350
16F
  3
PageSettings/PaperHeight
350
170
  3
PageSettings/PaperWidth
350
171
  3
PageSettings/Scale
350
172
  3
PageSettings/ShowPaperBorders
350
173
  3
QCADVersion
350
174
  3
UnitSettings/PaperUnit
350
175
  3
ViewportCenter
350
176
  3
ViewportHeight
350
177
  3
ViewportWidth
350
178
  0
XRECORD
  5
148
330
145
100
AcDbXrecord
280
1
1000
White
  0
XRECORD
  5
149
330
145
100
AcDbXrecord
280
1
1000
FullColor
  0
XRECORD
  5
14A
330
145
100
AcDbXrecord
280
1
290
1
  0
XRECORD
  5
14B
330
145
100
AcDbXrecord
280
1
290
1
  0
XRECORD
  5
14C
330
145
100
AcDbXrecord
280
1
290
1
  0
XRECORD
  5
14D
330
145
100
AcDbXrecord
280
1
290
1
  0
XRECORD
  5
14E
330
145
100
AcDbXrecord
280
1
1000
auto
  0
XRECORD
  5
14F
330
145
100
AcDbXrecord
280
1
1000
auto
  0
XRECORD
  5
150
330
145
100
AcDbXrecord
280
1
1000
auto
  0
XRECORD
  5
151
330
145
100
AcDbXrecord
280
1
1000
auto
  0
XRECORD
  5
152
330
145
100
AcDbXrecord
280
1
1000
auto
  0
XRECORD
  5
153
330
145
100
AcDbXrecord
280
1
1000
auto
  0
XRECORD
  5
154
330
145
100
AcDbXrecord
280
1
1000
auto
  0
XRECORD
  5
155
330
145
100
AcDbXrecord
280
1
1000
auto
  0
XRECORD
  5
156
330
145
100
AcDbXrecord
280
1
290
0
  0
XRECORD
  5
157
330
145
100
AcDbXrecord
280
1
290
0
  0
XRECORD
  5
158
330
145
100
AcDbXrecord
280
1
290
0
  0
XRECORD
  5
159
330
145
100
AcDbXrecord
280
1
290
0
  0
XRECORD
  5
15A
330
145
100
AcDbXrecord
280
1
 90
65537
  0
XRECORD
  5
15B
330
145
100
AcDbXrecord
280
1
 90
65537
  0
XRECORD
  5
15C
330
145
100
AcDbXrecord
280
1
 90
65537
  0
XRECORD
  5
15D
330
145
100
AcDbXrecord
280
1
 90
65537
  0
XRECORD
  5
15E
330
145
100
AcDbXrecord
280
1
1000
auto
  0
XRECORD
  5
15F
330
145
100
AcDbXrecord
280
1
1000
auto
  0
XRECORD
  5
160
330
145
100
AcDbXrecord
280
1
1000
auto
  0
XRECORD
  5
161
330
145
100
AcDbXrecord
280
1
1000
auto
  0
XRECORD
  5
162
330
145
100
AcDbXrecord
280
1
1000
auto
  0
XRECORD
  5
163
330
145
100
AcDbXrecord
280
1
1000
auto
  0
XRECORD
  5
164
330
145
100
AcDbXrecord
280
1
1000
auto
  0
XRECORD
  5
165
330
145
100
AcDbXrecord
280
1
1000
auto
  0
XRECORD
  5
166
330
145
100
AcDbXrecord
280
1
 90
1
  0
XRECORD
  5
167
330
145
100
AcDbXrecord
280
1
 40
10.0
  0
XRECORD
  5
168
330
145
100
AcDbXrecord
280
1
 40
10.0
  0
XRECORD
  5
169
330
145
100
AcDbXrecord
280
1
 40
10.0
  0
XRECORD
  5
16A
330
145
100
AcDbXrecord
280
1
 40
10.0
  0
XRECORD
  5
16B
330
145
100
AcDbXrecord
280
1
290
0
  0
XRECORD
  5
16C
330
145
100
AcDbXrecord
280
1
 90
1
  0
XRECORD
  5
16D
330
145
100
AcDbXrecord
280
1
 40
0.0
  0
XRECORD
  5
16E
330
145
100
AcDbXrecord
280
1
 40
0.0
  0
XRECORD
  5
16F
330
145
100
AcDbXrecord
280
1
1000
Portrait
  0
XRECORD
  5
170
330
145
100
AcDbXrecord
280
1
 40
279.39999999999998
  0
XRECORD
  5
171
330
145
100
AcDbXrecord
280
1
 40
215.90000000000001
  0
XRECORD
  5
172
330
145
100
AcDbXrecord
280
1
1000
1:1
  0
XRECORD
  5
173
330
145
100
AcDbXrecord
280
1
290
1
  0
XRECORD
  5
174
330
145
100
AcDbXrecord
280
1
1000
3.23.0
  0
XRECORD
  5
175
330
145
100
AcDbXrecord
280
1
 90
4
  0
XRECORD
  5
177
330
145
100
AcDbXrecord
280
1
 40
391.27879807419413
  0
XRECORD
  5
178
330
145
100
AcDbXrecord
280
1
 40
755.02512321217966
  0
ENDSEC
  0
EOF
