999
dxflib 3.17.0.0
  0
SECTION
  2
HEADER
  9
$ACADVER
  1
AC1015
  9
$HANDSEED
  5
FFFF
  9
$DIMADEC
 70
0
  9
$DIMASZ
 40
2.5
  9
$DIMAUNIT
 70
0
  9
$DIMAZIN
 70
2
  9
$DIMDEC
 70
4
  9
$DIMDLI
 40
5.0
  9
$DIMDSEP
 70
46
  9
$DIMEXE
 40
1.25
  9
$DIMEXO
 40
0.625
  9
$DIMGAP
 40
0.625
  9
$DIMLUNIT
 70
2
  9
$DIMSCALE
 40
1.0
  9
$DIMTSZ
 40
0.0
  9
$DIMTXT
 40
2.5
  9
$DIMZIN
 70
8
  9
$DWGCODEPAGE
  3
ANSI_1252
  9
$INSUNITS
 70
4
  9
$LTSCALE
 40
1.0
  9
$MAXACTVP
 70
64
  9
$MEASUREMENT
 70
1
  9
$PDMODE
 70
0
  9
$PDSIZE
 40
0.0
  0
ENDSEC
  0
SECTION
  2
TABLES
  0
TABLE
  2
VPORT
  5
8
100
AcDbSymbolTable
 70
1
  0
VPORT
  5
30
100
AcDbSymbolTableRecord
100
AcDbViewportTableRecord
  2
*Active
 70
0
 10
0.0
 20
0.0
 11
1.0
 21
1.0
 12
286.30555555555549
 22
148.5
 13
0.0
 23
0.0
 14
10.0
 24
10.0
 15
10.0
 25
10.0
 16
0.0
 26
0.0
 36
1.0
 17
0.0
 27
0.0
 37
0.0
 40
297.0
 41
1.92798353909465
 42
50.0
 43
0.0
 44
0.0
 50
0.0
 51
0.0
 71
0
 72
100
 73
1
 74
3
 75
1
 76
1
 77
0
 78
0
281
0
 65
1
110
0.0
120
0.0
130
0.0
111
1.0
121
0.0
131
0.0
112
0.0
122
1.0
132
0.0
 79
0
146
0.0
  0
ENDTAB
  0
TABLE
  2
LTYPE
  5
5
100
AcDbSymbolTable
 70
41
  0
LTYPE
  5
16
100
AcDbSymbolTableRecord
100
AcDbLinetypeTableRecord
  2
Continuous
 70
0
  3
Solid line
 72
65
 73
0
 40
0.0
  0
LTYPE
  5
31
100
AcDbSymbolTableRecord
100
AcDbLinetypeTableRecord
  2
ACAD_ISO08W100
 70
0
  3
ISO long-dash short-dash ____ __ ____ __ ____ _
 72
65
 73
4
 40
36.0
 49
24.0
 74
0
 49
-3.0
 74
0
 49
6.0
 74
0
 49
-3.0
 74
0
  0
LTYPE
  5
32
100
AcDbSymbolTableRecord
100
AcDbLinetypeTableRecord
  2
DIVIDE2
 70
0
  3
Divide (.5x) __..__..__..__..__..__..__..__.._
 72
65
 73
6
 40
15.874999999999998
 49
6.3499999999999996
 74
0
 49
-3.125
 74
0
 49
0.1
 74
0
 49
-3.0750000000000002
 74
0
 49
0.1
 74
0
 49
-3.125
 74
0
  0
LTYPE
  5
33
100
AcDbSymbolTableRecord
100
AcDbLinetypeTableRecord
  2
DASHDOTX2
 70
0
  3
Dash dot (2x) ____  .  ____  .  ____  .  ___
 72
65
 73
4
 40
50.799999999999997
 49
25.399999999999999
 74
0
 49
-12.649999999999999
 74
0
 49
0.1
 74
0
 49
-12.649999999999999
 74
0
  0
LTYPE
  5
34
100
AcDbSymbolTableRecord
100
AcDbLinetypeTableRecord
  2
HIDDEN
 70
0
  3
Hidden __ __ __ __ __ __ __ __ __ __ __ __ __ __
 72
65
 73
2
 40
9.5249999999999986
 49
6.3499999999999996
 74
0
 49
-3.1749999999999998
 74
0
  0
LTYPE
  5
35
100
AcDbSymbolTableRecord
100
AcDbLinetypeTableRecord
  2
DOT2
 70
0
  3
Dot (.5x) ........................................
 72
65
 73
2
 40
3.1749999999999998
 49
0.1
 74
0
 49
-3.0749999999999997
 74
0
  0
LTYPE
  5
36
100
AcDbSymbolTableRecord
100
AcDbLinetypeTableRecord
  2
DASHDOT
 70
0
  3
Dash dot __ . __ . __ . __ . __ . __ . __ . __
 72
65
 73
4
 40
25.400000000000002
 49
12.699999999999999
 74
0
 49
-6.2999999999999998
 74
0
 49
0.1
 74
0
 49
-6.2999999999999998
 74
0
  0
LTYPE
  5
37
100
AcDbSymbolTableRecord
100
AcDbLinetypeTableRecord
  2
ACAD_ISO13W100
 70
0
  3
ISO double-dash double-dot __ __ . . __ __ . . _
 72
65
 73
8
 40
36.000000000000007
 49
12.0
 74
0
 49
-3.0
 74
0
 49
12.0
 74
0
 49
-2.9500000000000002
 74
0
 49
0.1
 74
0
 49
-2.9000000000000004
 74
0
 49
0.1
 74
0
 49
-2.9500000000000002
 74
0
  0
LTYPE
  5
38
100
AcDbSymbolTableRecord
100
AcDbLinetypeTableRecord
  2
DASHDOT2
 70
0
  3
Dash dot (.5x) _._._._._._._._._._._._._._._.
 72
65
 73
4
 40
12.699999999999999
 49
6.3499999999999996
 74
0
 49
-3.125
 74
0
 49
0.1
 74
0
 49
-3.125
 74
0
  0
LTYPE
  5
39
100
AcDbSymbolTableRecord
100
AcDbLinetypeTableRecord
  2
ACAD_ISO03W100
 70
0
  3
ISO dash space __    __    __    __    __    __
 72
65
 73
2
 40
30.0
 49
12.0
 74
0
 49
-18.0
 74
0
  0
LTYPE
  5
14
100
AcDbSymbolTableRecord
100
AcDbLinetypeTableRecord
  2
BYBLOCK
 70
0
  3

 72
65
 73
0
 40
0.0
  0
LTYPE
  5
3A
100
AcDbSymbolTableRecord
100
AcDbLinetypeTableRecord
  2
PHANTOMX2
 70
0
  3
Phantom (2x) ____________    ____    ____   _
 72
65
 73
6
 40
127.00000000000001
 49
63.5
 74
0
 49
-12.699999999999999
 74
0
 49
12.699999999999999
 74
0
 49
-12.699999999999999
 74
0
 49
12.699999999999999
 74
0
 49
-12.699999999999999
 74
0
  0
LTYPE
  5
3B
100
AcDbSymbolTableRecord
100
AcDbLinetypeTableRecord
  2
CENTERX2
 70
0
  3
Center (2x) ________  __  ________  __  _____
 72
65
 73
4
 40
101.60000000000001
 49
63.5
 74
0
 49
-12.699999999999999
 74
0
 49
12.699999999999999
 74
0
 49
-12.699999999999999
 74
0
  0
LTYPE
  5
15
100
AcDbSymbolTableRecord
100
AcDbLinetypeTableRecord
  2
BYLAYER
 70
0
  3

 72
65
 73
0
 40
0.0
  0
LTYPE
  5
3C
100
AcDbSymbolTableRecord
100
AcDbLinetypeTableRecord
  2
ACAD_ISO10W100
 70
0
  3
ISO dash dot __ . __ . __ . __ . __ . __ . __ . 
 72
65
 73
4
 40
18.0
 49
12.0
 74
0
 49
-2.9500000000000002
 74
0
 49
0.1
 74
0
 49
-2.9500000000000002
 74
0
  0
LTYPE
  5
3D
100
AcDbSymbolTableRecord
100
AcDbLinetypeTableRecord
  2
ACAD_ISO11W100
 70
0
  3
ISO double-dash dot __ __ . __ __ . __ __ . __ _
 72
65
 73
6
 40
33.0
 49
12.0
 74
0
 49
-3.0
 74
0
 49
12.0
 74
0
 49
-2.9500000000000002
 74
0
 49
0.1
 74
0
 49
-2.9500000000000002
 74
0
  0
LTYPE
  5
3E
100
AcDbSymbolTableRecord
100
AcDbLinetypeTableRecord
  2
ACAD_ISO05W100
 70
0
  3
ISO long-dash double-dot ____ .. ____ .. ____ . 
 72
65
 73
6
 40
33.000000000000007
 49
24.0
 74
0
 49
-2.9500000000000002
 74
0
 49
0.1
 74
0
 49
-2.9000000000000004
 74
0
 49
0.1
 74
0
 49
-2.9500000000000002
 74
0
  0
LTYPE
  5
3F
100
AcDbSymbolTableRecord
100
AcDbLinetypeTableRecord
  2
DASHEDX2
 70
0
  3
Dashed (2x) ____  ____  ____  ____  ____  ___
 72
65
 73
2
 40
38.099999999999994
 49
25.399999999999999
 74
0
 49
-12.699999999999999
 74
0
  0
LTYPE
  5
40
100
AcDbSymbolTableRecord
100
AcDbLinetypeTableRecord
  2
ACAD_ISO06W100
 70
0
  3
ISO long-dash triple-dot ____ ... ____ ... ____
 72
65
 73
8
 40
36.000000000000007
 49
24.0
 74
0
 49
-2.9500000000000002
 74
0
 49
0.1
 74
0
 49
-2.9000000000000004
 74
0
 49
0.1
 74
0
 49
-2.9000000000000004
 74
0
 49
0.1
 74
0
 49
-2.9500000000000002
 74
0
  0
LTYPE
  5
41
100
AcDbSymbolTableRecord
100
AcDbLinetypeTableRecord
  2
ACAD_ISO02W100
 70
0
  3
ISO dash __ __ __ __ __ __ __ __ __ __ __ __ __
 72
65
 73
2
 40
15.0
 49
12.0
 74
0
 49
-3.0
 74
0
  0
LTYPE
  5
42
100
AcDbSymbolTableRecord
100
AcDbLinetypeTableRecord
  2
ACAD_ISO07W100
 70
0
  3
ISO dot . . . . . . . . . . . . . . . . . . . . 
 72
65
 73
2
 40
3.0
 49
0.1
 74
0
 49
-2.8999999999999999
 74
0
  0
LTYPE
  5
43
100
AcDbSymbolTableRecord
100
AcDbLinetypeTableRecord
  2
ACAD_ISO14W100
 70
0
  3
ISO dash triple-dot __ . . . __ . . . __ . . . _
 72
65
 73
8
 40
24.000000000000004
 49
12.0
 74
0
 49
-2.9500000000000002
 74
0
 49
0.1
 74
0
 49
-2.9000000000000004
 74
0
 49
0.1
 74
0
 49
-2.9000000000000004
 74
0
 49
0.1
 74
0
 49
-2.9500000000000002
 74
0
  0
LTYPE
  5
44
100
AcDbSymbolTableRecord
100
AcDbLinetypeTableRecord
  2
ACAD_ISO12W100
 70
0
  3
ISO dash double-dot __ . . __ . . __ . . __ . . 
 72
65
 73
6
 40
21.0
 49
12.0
 74
0
 49
-2.9500000000000002
 74
0
 49
0.1
 74
0
 49
-2.9000000000000004
 74
0
 49
0.1
 74
0
 49
-2.9500000000000002
 74
0
  0
LTYPE
  5
45
100
AcDbSymbolTableRecord
100
AcDbLinetypeTableRecord
  2
HIDDEN2
 70
0
  3
Hidden (.5x) _ _ _ _ _ _ _ _ _ _ _ _ _ _ _ _ _ 
 72
65
 73
2
 40
4.7624999999999993
 49
3.1749999999999998
 74
0
 49
-1.5874999999999999
 74
0
  0
LTYPE
  5
46
100
AcDbSymbolTableRecord
100
AcDbLinetypeTableRecord
  2
BORDER
 70
0
  3
Border __ __ . __ __ . __ __ . __ __ . __ __ .
 72
65
 73
6
 40
44.449999999999996
 49
12.699999999999999
 74
0
 49
-6.3499999999999996
 74
0
 49
12.699999999999999
 74
0
 49
-6.2999999999999998
 74
0
 49
0.1
 74
0
 49
-6.2999999999999998
 74
0
  0
LTYPE
  5
47
100
AcDbSymbolTableRecord
100
AcDbLinetypeTableRecord
  2
BORDER2
 70
0
  3
Border (.5x) __.__.__.__.__.__.__.__.__.__.__.
 72
65
 73
6
 40
22.225000000000001
 49
6.3499999999999996
 74
0
 49
-3.1749999999999998
 74
0
 49
6.3499999999999996
 74
0
 49
-3.125
 74
0
 49
0.1
 74
0
 49
-3.125
 74
0
  0
LTYPE
  5
48
100
AcDbSymbolTableRecord
100
AcDbLinetypeTableRecord
  2
HIDDENX2
 70
0
  3
Hidden (2x) ____ ____ ____ ____ ____ ____ ____ 
 72
65
 73
2
 40
19.049999999999997
 49
12.699999999999999
 74
0
 49
-6.3499999999999996
 74
0
  0
LTYPE
  5
49
100
AcDbSymbolTableRecord
100
AcDbLinetypeTableRecord
  2
DIVIDEX2
 70
0
  3
Divide (2x) ________  .  .  ________  .  .  _
 72
65
 73
6
 40
63.5
 49
25.399999999999999
 74
0
 49
-12.649999999999999
 74
0
 49
0.1
 74
0
 49
-12.599999999999998
 74
0
 49
0.1
 74
0
 49
-12.649999999999999
 74
0
  0
LTYPE
  5
4A
100
AcDbSymbolTableRecord
100
AcDbLinetypeTableRecord
  2
DIVIDE
 70
0
  3
Divide ____ . . ____ . . ____ . . ____ . . ____
 72
65
 73
6
 40
31.750000000000004
 49
12.699999999999999
 74
0
 49
-6.2999999999999998
 74
0
 49
0.1
 74
0
 49
-6.25
 74
0
 49
0.1
 74
0
 49
-6.2999999999999998
 74
0
  0
LTYPE
  5
4B
100
AcDbSymbolTableRecord
100
AcDbLinetypeTableRecord
  2
ACAD_ISO15W100
 70
0
  3
ISO double-dash triple-dot __ __ . . . __ __ . .
 72
65
 73
10
 40
39.000000000000007
 49
12.0
 74
0
 49
-3.0
 74
0
 49
12.0
 74
0
 49
-2.9500000000000002
 74
0
 49
0.1
 74
0
 49
-2.9000000000000004
 74
0
 49
0.1
 74
0
 49
-2.9000000000000004
 74
0
 49
0.1
 74
0
 49
-2.9500000000000002
 74
0
  0
LTYPE
  5
4C
100
AcDbSymbolTableRecord
100
AcDbLinetypeTableRecord
  2
ACAD_ISO04W100
 70
0
  3
ISO long-dash dot ____ . ____ . ____ . ____ . _
 72
65
 73
4
 40
30.0
 49
24.0
 74
0
 49
-2.9500000000000002
 74
0
 49
0.1
 74
0
 49
-2.9500000000000002
 74
0
  0
LTYPE
  5
4D
100
AcDbSymbolTableRecord
100
AcDbLinetypeTableRecord
  2
CENTER
 70
0
  3
Center ____ _ ____ _ ____ _ ____ _ ____ _ ____
 72
65
 73
4
 40
50.800000000000004
 49
31.75
 74
0
 49
-6.3499999999999996
 74
0
 49
6.3499999999999996
 74
0
 49
-6.3499999999999996
 74
0
  0
LTYPE
  5
4E
100
AcDbSymbolTableRecord
100
AcDbLinetypeTableRecord
  2
PHANTOM2
 70
0
  3
Phantom (.5x) ___ _ _ ___ _ _ ___ _ _ ___ _ _
 72
65
 73
6
 40
31.750000000000004
 49
15.875
 74
0
 49
-3.1749999999999998
 74
0
 49
3.1749999999999998
 74
0
 49
-3.1749999999999998
 74
0
 49
3.1749999999999998
 74
0
 49
-3.1749999999999998
 74
0
  0
LTYPE
  5
4F
100
AcDbSymbolTableRecord
100
AcDbLinetypeTableRecord
  2
PHANTOM
 70
0
  3
Phantom ______  __  __  ______  __  __  ______ 
 72
65
 73
6
 40
63.500000000000007
 49
31.75
 74
0
 49
-6.3499999999999996
 74
0
 49
6.3499999999999996
 74
0
 49
-6.3499999999999996
 74
0
 49
6.3499999999999996
 74
0
 49
-6.3499999999999996
 74
0
  0
LTYPE
  5
50
100
AcDbSymbolTableRecord
100
AcDbLinetypeTableRecord
  2
DOTX2
 70
0
  3
Dot (2x) .  .  .  .  .  .  .  .  .  .  .  .  .  .
 72
65
 73
2
 40
12.699999999999999
 49
0.1
 74
0
 49
-12.6
 74
0
  0
LTYPE
  5
51
100
AcDbSymbolTableRecord
100
AcDbLinetypeTableRecord
  2
DASHED2
 70
0
  3
Dashed (.5x) _ _ _ _ _ _ _ _ _ _ _ _ _ _ _ _ _ 
 72
65
 73
2
 40
9.5249999999999986
 49
6.3499999999999996
 74
0
 49
-3.1749999999999998
 74
0
  0
LTYPE
  5
52
100
AcDbSymbolTableRecord
100
AcDbLinetypeTableRecord
  2
CENTER2
 70
0
  3
Center (.5x) ___ _ ___ _ ___ _ ___ _ ___ _ ___
 72
65
 73
4
 40
28.575000000000003
 49
19.050000000000001
 74
0
 49
-3.1749999999999998
 74
0
 49
3.1749999999999998
 74
0
 49
-3.1749999999999998
 74
0
  0
LTYPE
  5
53
100
AcDbSymbolTableRecord
100
AcDbLinetypeTableRecord
  2
DASHED
 70
0
  3
Dashed __ __ __ __ __ __ __ __ __ __ __ __ __ _
 72
65
 73
2
 40
19.049999999999997
 49
12.699999999999999
 74
0
 49
-6.3499999999999996
 74
0
  0
LTYPE
  5
54
100
AcDbSymbolTableRecord
100
AcDbLinetypeTableRecord
  2
BORDERX2
 70
0
  3
Border (2x) ____  ____  .  ____  ____  .  ___
 72
65
 73
6
 40
88.899999999999977
 49
25.399999999999999
 74
0
 49
-12.699999999999999
 74
0
 49
25.399999999999999
 74
0
 49
-12.649999999999999
 74
0
 49
0.1
 74
0
 49
-12.649999999999999
 74
0
  0
LTYPE
  5
55
100
AcDbSymbolTableRecord
100
AcDbLinetypeTableRecord
  2
DOT
 70
0
  3
Dot . . . . . . . . . . . . . . . . . . . . . . . .
 72
65
 73
2
 40
6.3499999999999996
 49
0.1
 74
0
 49
-6.25
 74
0
  0
LTYPE
  5
56
100
AcDbSymbolTableRecord
100
AcDbLinetypeTableRecord
  2
ACAD_ISO09W100
 70
0
  3
ISO long-dash double-short-dash ____ __ __ ____
 72
65
 73
6
 40
45.0
 49
24.0
 74
0
 49
-3.0
 74
0
 49
6.0
 74
0
 49
-3.0
 74
0
 49
6.0
 74
0
 49
-3.0
 74
0
  0
ENDTAB
  0
TABLE
  2
LAYER
  5
2
100
AcDbSymbolTable
 70
1
  0
LAYER
  5
10
100
AcDbSymbolTableRecord
100
AcDbLayerTableRecord
  2
0
 70
0
 62
7
420
16777215
  6
Continuous
370
25
390
F
  0
ENDTAB
  0
TABLE
  2
STYLE
  5
3
100
AcDbSymbolTable
 70
1
  0
STYLE
  5
57
100
AcDbSymbolTableRecord
100
AcDbTextStyleTableRecord
  2
Standard
 70
0
 40
0.0
 41
1.0
 50
0.0
 71
0
 42
2.5
  3

  4

1001
ACAD
1000
txt
1071
0
  0
ENDTAB
  0
TABLE
  2
VIEW
  5
6
100
AcDbSymbolTable
 70
0
  0
ENDTAB
  0
TABLE
  2
UCS
  5
7
100
AcDbSymbolTable
 70
0
  0
ENDTAB
  0
TABLE
  2
APPID
  5
9
100
AcDbSymbolTable
 70
1
  0
APPID
  5
12
100
AcDbSymbolTableRecord
100
AcDbRegAppTableRecord
  2
ACAD
 70
0
  0
APPID
  5
58
100
AcDbSymbolTableRecord
100
AcDbRegAppTableRecord
  2
QCAD
 70
0
  0
ENDTAB
  0
TABLE
  2
DIMSTYLE
  5
A
100
AcDbSymbolTable
 70
1
100
AcDbDimStyleTable
 71
0
  0
DIMSTYLE
105
27
100
AcDbSymbolTableRecord
100
AcDbDimStyleTableRecord
  2
Standard
 41
2.5
 42
0.625
 43
3.75
 44
1.25
 70
0
 73
0
 74
0
 77
1
 78
8
140
2.5
141
2.5
143
0.03937007874016
147
0.625
171
3
172
1
271
2
272
2
274
3
278
44
283
0
284
8
340
57
  0
ENDTAB
  0
TABLE
  2
BLOCK_RECORD
  5
1
100
AcDbSymbolTable
 70
1
  0
BLOCK_RECORD
  5
1F
100
AcDbSymbolTableRecord
100
AcDbBlockTableRecord
  2
*Model_Space
340
22
  0
BLOCK_RECORD
  5
1B
100
AcDbSymbolTableRecord
100
AcDbBlockTableRecord
  2
*Paper_Space
340
1E
  0
BLOCK_RECORD
  5
23
100
AcDbSymbolTableRecord
100
AcDbBlockTableRecord
  2
*Paper_Space0
340
26
  0
BLOCK_RECORD
  5
59
100
AcDbSymbolTableRecord
100
AcDbBlockTableRecord
  2
triangle
340
0
  0
BLOCK_RECORD
  5
5A
100
AcDbSymbolTableRecord
100
AcDbBlockTableRecord
  2
basehalf
340
0
  0
ENDTAB
  0
ENDSEC
  0
SECTION
  2
BLOCKS
  0
BLOCK
  5
20
100
AcDbEntity
  8
0
100
AcDbBlockBegin
  2
*Model_Space
 70
0
 10
0.0
 20
0.0
 30
0.0
  3
*Model_Space
  1

  0
ENDBLK
  5
21
100
AcDbEntity
  8
0
100
AcDbBlockEnd
  0
BLOCK
  5
1C
100
AcDbEntity
 67
1
  8
0
100
AcDbBlockBegin
  2
*Paper_Space
 70
0
 10
0.0
 20
0.0
 30
0.0
  3
*Paper_Space
  1

  0
ENDBLK
  5
1D
100
AcDbEntity
 67
1
  8
0
100
AcDbBlockEnd
  0
BLOCK
  5
24
100
AcDbEntity
  8
0
100
AcDbBlockBegin
  2
*Paper_Space0
 70
0
 10
0.0
 20
0.0
 30
0.0
  3
*Paper_Space0
  1

  0
ENDBLK
  5
25
100
AcDbEntity
  8
0
100
AcDbBlockEnd
  0
BLOCK
  5
5B
100
AcDbEntity
  8
0
100
AcDbBlockBegin
  2
triangle
 70
0
 10
0.0
 20
0.0
 30
0.0
  3
triangle
  1

  0
LINE
  5
5C
100
AcDbEntity
  8
0
 62
256
370
-1
 48
1.0
  6
BYLAYER
100
AcDbLine
 10
0.0
 20
-2.3094010767584479
 30
0.0
 11
0.0000000000001137
 21
2.3094010767584479
 31
0.0
  0
ARC
  5
5D
100
AcDbEntity
  8
0
 62
256
370
-1
 48
1.0
  6
BYLAYER
100
AcDbCircle
 10
-1.9999999999998863
 20
2.3094010767584479
 30
0.0
 40
2.0
100
AcDbArc
 50
360.0
 51
120.00000000000065
  0
LINE
  5
5E
100
AcDbEntity
  8
0
 62
256
370
-1
 48
1.0
  6
BYLAYER
100
AcDbLine
 10
-2.9999999999998863
 20
4.0414518843273122
 30
0.0
 11
-6.9999999999998863
 21
1.7320508075688359
 31
0.0
  0
ARC
  5
5F
100
AcDbEntity
  8
0
 62
256
370
-1
 48
1.0
  6
BYLAYER
100
AcDbCircle
 10
-5.9999999999998863
 20
-0.0000000000000284
 30
0.0
 40
2.0
100
AcDbArc
 50
120.00000000000075
 51
239.99999999999932
  0
LINE
  5
60
100
AcDbEntity
  8
0
 62
256
370
-1
 48
1.0
  6
BYLAYER
100
AcDbLine
 10
-6.9999999999998863
 20
-1.7320508075688927
 30
0.0
 11
-3.0
 21
-4.0414518843273157
 31
0.0
  0
ARC
  5
61
100
AcDbEntity
  8
0
 62
256
370
-1
 48
1.0
  6
BYLAYER
100
AcDbCircle
 10
-2.0
 20
-2.3094010767584479
 30
0.0
 40
2.0
100
AcDbArc
 50
239.99999999999963
 51
360.0
  0
ENDBLK
  5
62
100
AcDbEntity
  8
0
100
AcDbBlockEnd
  0
BLOCK
  5
63
100
AcDbEntity
  8
0
100
AcDbBlockBegin
  2
basehalf
 70
0
 10
0.0
 20
0.0
 30
0.0
  3
basehalf
  1

  0
CIRCLE
  5
64
100
AcDbEntity
  8
0
 62
256
370
-1
 48
1.0
  6
BYLAYER
100
AcDbCircle
 10
-16.127073000000053
 20
-10.897185640522252
 30
0.0
 40
1.4750000000000001
  0
CIRCLE
  5
65
100
AcDbEntity
  8
0
 62
256
370
-1
 48
1.0
  6
BYLAYER
100
AcDbCircle
 10
-6.8180194846606241
 20
-20.206239125182833
 30
0.0
 40
1.4750000000000001
  0
CIRCLE
  5
66
100
AcDbEntity
  8
0
 62
256
370
-1
 48
1.0
  6
BYLAYER
100
AcDbCircle
 10
-16.127073000000053
 20
-83.022770695591987
 30
0.0
 40
1.4750000000000001
  0
CIRCLE
  5
67
100
AcDbEntity
  8
0
 62
256
370
-1
 48
1.0
  6
BYLAYER
100
AcDbCircle
 10
-6.8180194846606241
 20
-73.713717210931406
 30
0.0
 40
1.4750000000000001
  0
LINE
  5
68
100
AcDbEntity
  8
0
 62
256
370
-1
 48
1.0
  6
BYLAYER
100
AcDbLine
 10
-7.0
 20
-59.247465417451117
 30
0.0
 11
-6.9999999999999982
 21
-34.672490918663136
 31
0.0
  0
ARC
  5
69
100
AcDbEntity
  8
0
 62
256
370
-1
 48
1.0
  6
BYLAYER
100
AcDbCircle
 10
-16.127073000000053
 20
-83.022770695591987
 30
0.0
 40
4.5
100
AcDbArc
 50
135.00000000000006
 51
301.02583569582328
  0
ARC
  5
6A
100
AcDbEntity
  8
0
 62
256
370
-1
 48
1.0
  6
BYLAYER
100
AcDbCircle
 10
-16.127073000000053
 20
-10.897185640522252
 30
0.0
 40
4.5
100
AcDbArc
 50
131.48493026511932
 51
225.0
  0
LINE
  5
6B
100
AcDbEntity
  8
0
 62
256
370
-1
 48
1.0
  6
BYLAYER
100
AcDbLine
 10
-19.309053515339517
 20
-79.840790180252526
 30
0.0
 11
-12.857864376269056
 21
-73.389601041182061
 31
0.0
  0
ARC
  5
6C
100
AcDbEntity
  8
0
 62
256
370
-1
 48
1.0
  6
BYLAYER
100
AcDbCircle
 10
-27.0
 20
-59.247465417451117
 30
0.0
 40
20.0
100
AcDbArc
 50
315.0
 51
0.0
  0
LINE
  5
6D
100
AcDbEntity
  8
0
 62
256
370
-1
 48
1.0
  6
BYLAYER
100
AcDbLine
 10
-19.309053515339517
 20
-14.079166155861717
 30
0.0
 11
-12.857864376269045
 21
-20.530355294932193
 31
0.0
  0
ARC
  5
6E
100
AcDbEntity
  8
0
 62
256
370
-1
 48
1.0
  6
BYLAYER
100
AcDbCircle
 10
-27.0
 20
-34.672490918663136
 30
0.0
 40
20.0
100
AcDbArc
 50
0.0
 51
44.999999999999972
  0
ARC
  5
6F
100
AcDbEntity
  8
0
 62
256
370
-1
 48
1.0
  6
BYLAYER
100
AcDbCircle
 10
0.7647144586240575
 20
-30.0
 30
0.0
 40
30.0
100
AcDbArc
 50
91.460180830533943
 51
131.48493026511932
  0
ARC
  5
70
100
AcDbEntity
  8
0
 62
256
370
-1
 48
1.0
  6
BYLAYER
100
AcDbCircle
 10
-0.9220492274082094
 20
-108.30235241829691
 30
0.0
 40
25.0
100
AcDbArc
 50
87.886339450927835
 51
121.02583569582323
  0
ENDBLK
  5
71
100
AcDbEntity
  8
0
100
AcDbBlockEnd
  0
ENDSEC
  0
SECTION
  2
ENTITIES
  0
CIRCLE
  5
72
100
AcDbEntity
  8
0
 62
256
370
-1
 48
1.0
  6
BYLAYER
100
AcDbCircle
 10
-16.120000000000001
 20
16.120000000000001
 30
0.0
 40
1.3999999999999999
  0
CIRCLE
  5
73
100
AcDbEntity
  8
0
 62
256
370
-1
 48
1.0
  6
BYLAYER
100
AcDbCircle
 10
-16.128433507226205
 20
-16.11591843230299
 30
0.0
 40
1.3999999999999999
  0
CIRCLE
  5
74
100
AcDbEntity
  8
0
 62
256
370
-1
 48
1.0
  6
BYLAYER
100
AcDbCircle
 10
-16.128433507226234
 20
16.118639477434328
 30
0.0
 40
1.3999999999999999
  0
CIRCLE
  5
75
100
AcDbEntity
  8
0
 62
256
370
-1
 48
1.0
  6
BYLAYER
100
AcDbCircle
 10
-16.120000000000001
 20
16.120000000000001
 30
0.0
 40
1.3999999999999999
  0
CIRCLE
  5
76
100
AcDbEntity
  8
0
 62
256
370
-1
 48
1.0
  6
BYLAYER
100
AcDbCircle
 10
-16.120000000000001
 20
16.120000000000001
 30
0.0
 40
1.3999999999999999
  0
CIRCLE
  5
77
100
AcDbEntity
  8
0
 62
256
370
-1
 48
1.0
  6
BYLAYER
100
AcDbCircle
 10
-16.120000000000001
 20
16.120000000000001
 30
0.0
 40
1.3999999999999999
  0
CIRCLE
  5
78
100
AcDbEntity
  8
0
 62
256
370
-1
 48
1.0
  6
BYLAYER
100
AcDbCircle
 10
0.0
 20
-18.031222920256965
 30
0.0
 40
1.0
  0
CIRCLE
  5
79
100
AcDbEntity
  8
0
 62
256
370
-1
 48
1.0
  6
BYLAYER
100
AcDbCircle
 10
-18.031222920256958
 20
-0.0000000000000028
 30
0.0
 40
1.0
  0
CIRCLE
  5
7A
100
AcDbEntity
  8
0
 62
256
370
-1
 48
1.0
  6
BYLAYER
100
AcDbCircle
 10
18.031222920256965
 20
-0.0000000000000028
 30
0.0
 40
1.0
  0
CIRCLE
  5
7B
100
AcDbEntity
  8
0
 62
256
370
-1
 48
1.0
  6
BYLAYER
100
AcDbCircle
 10
0.0000000000000022
 20
18.031222920256951
 30
0.0
 40
1.0
  0
CIRCLE
  5
7C
100
AcDbEntity
  8
0
 62
256
370
-1
 48
1.0
  6
BYLAYER
100
AcDbCircle
 10
30.260000000000005
 20
-30.260000000000183
 30
0.0
 40
2.25
  0
CIRCLE
  5
7D
100
AcDbEntity
  8
0
 62
256
370
-1
 48
1.0
  6
BYLAYER
100
AcDbCircle
 10
30.260000000000019
 20
30.259999999999994
 30
0.0
 40
2.25
  0
CIRCLE
  5
7E
100
AcDbEntity
  8
0
 62
256
370
-1
 48
1.0
  6
BYLAYER
100
AcDbCircle
 10
30.260000000000218
 20
30.259999999999994
 30
0.0
 40
2.25
  0
CIRCLE
  5
7F
100
AcDbEntity
  8
0
 62
256
370
-1
 48
1.0
  6
BYLAYER
100
AcDbCircle
 10
-30.259999999999977
 20
30.259999999999831
 30
0.0
 40
2.25
  0
CIRCLE
  5
80
100
AcDbEntity
  8
0
 62
256
370
-1
 48
1.0
  6
BYLAYER
100
AcDbCircle
 10
-30.259999999999977
 20
30.259999999999994
 30
0.0
 40
2.25
  0
CIRCLE
  5
81
100
AcDbEntity
  8
0
 62
256
370
-1
 48
1.0
  6
BYLAYER
100
AcDbCircle
 10
-30.259999999999824
 20
-30.259999999999977
 30
0.0
 40
2.25
  0
CIRCLE
  5
82
100
AcDbEntity
  8
0
 62
256
370
-1
 48
1.0
  6
BYLAYER
100
AcDbCircle
 10
-30.260000000000009
 20
-30.259999999999977
 30
0.0
 40
2.25
  0
ARC
  5
83
100
AcDbEntity
  8
0
 62
256
370
-1
 48
1.0
  6
BYLAYER
100
AcDbCircle
 10
-0.0013605072261438
 20
13.555846949899271
 30
0.0
 40
10.0
100
AcDbArc
 50
198.35159159177459
 51
341.64840840822376
  0
LINE
  5
84
100
AcDbEntity
  8
0
 62
256
370
-1
 48
1.0
  6
BYLAYER
100
AcDbLine
 10
9.490063097075728
 20
10.407374627692652
 30
0.0
 11
11.854571870838237
 21
17.535452022427158
 31
0.0
  0
LINE
  5
85
100
AcDbEntity
  8
0
 62
256
370
-1
 48
1.0
  6
BYLAYER
100
AcDbLine
 10
-9.4927841115281293
 20
10.407374627692926
 30
0.0
 11
-11.857292885290297
 21
17.535452022427052
 31
0.0
  0
CIRCLE
  5
86
100
AcDbEntity
  8
0
 62
7
420
16777215
370
25
 48
1.0
  6
Continuous
100
AcDbCircle
 10
60.500000053073784
 20
-68.44999995847428
 30
0.0
 40
1.3999999999999999
  0
CIRCLE
  5
87
100
AcDbEntity
  8
0
 62
256
370
-1
 48
1.0
  6
BYLAYER
100
AcDbCircle
 10
30.260000000000002
 20
-30.260000000000002
 30
0.0
 40
1.3999999999999999
  0
CIRCLE
  5
88
100
AcDbEntity
  8
0
 62
256
370
-1
 48
1.0
  6
BYLAYER
100
AcDbCircle
 10
16.120000000000001
 20
16.120000000000001
 30
0.0
 40
1.3999999999999999
  0
CIRCLE
  5
89
100
AcDbEntity
  8
0
 62
256
370
-1
 48
1.0
  6
BYLAYER
100
AcDbCircle
 10
16.125712492773843
 20
16.118639477434321
 30
0.0
 40
1.3999999999999999
  0
CIRCLE
  5
8A
100
AcDbEntity
  8
0
 62
7
420
16777215
370
25
 48
1.0
  6
Continuous
100
AcDbCircle
 10
68.449999958474308
 20
60.500000053073748
 30
0.0
 40
1.3999999999999999
  0
CIRCLE
  5
8B
100
AcDbEntity
  8
0
 62
256
370
-1
 48
1.0
  6
BYLAYER
100
AcDbCircle
 10
30.260000000000019
 20
30.259999999999994
 30
0.0
 40
1.3999999999999999
  0
CIRCLE
  5
8C
100
AcDbEntity
  8
0
 62
7
420
16777215
370
25
 48
1.0
  6
Continuous
100
AcDbCircle
 10
-60.500000053073762
 20
68.449999958474336
 30
0.0
 40
1.3999999999999999
  0
CIRCLE
  5
8D
100
AcDbEntity
  8
0
 62
256
370
-1
 48
1.0
  6
BYLAYER
100
AcDbCircle
 10
-30.259999999999977
 20
30.260000000000051
 30
0.0
 40
1.3999999999999999
  0
CIRCLE
  5
8E
100
AcDbEntity
  8
0
 62
7
420
16777215
370
25
 48
1.0
  6
Continuous
100
AcDbCircle
 10
-68.449999958474109
 20
-60.500000053073762
 30
0.0
 40
1.3999999999999999
  0
CIRCLE
  5
8F
100
AcDbEntity
  8
0
 62
256
370
-1
 48
1.0
  6
BYLAYER
100
AcDbCircle
 10
-30.259999999999824
 20
-30.259999999999977
 30
0.0
 40
1.3999999999999999
  0
CIRCLE
  5
90
100
AcDbEntity
  8
0
 62
256
370
-1
 48
1.0
  6
BYLAYER
100
AcDbCircle
 10
16.120000000000001
 20
16.120000000000001
 30
0.0
 40
1.3999999999999999
  0
CIRCLE
  5
91
100
AcDbEntity
  8
0
 62
256
370
-1
 48
1.0
  6
BYLAYER
100
AcDbCircle
 10
16.120000000000001
 20
16.120000000000001
 30
0.0
 40
1.3999999999999999
  0
CIRCLE
  5
92
100
AcDbEntity
  8
0
 62
256
370
-1
 48
1.0
  6
BYLAYER
100
AcDbCircle
 10
30.260000000000005
 20
-30.260000000000183
 30
0.0
 40
1.3999999999999999
  0
CIRCLE
  5
93
100
AcDbEntity
  8
0
 62
256
370
-1
 48
1.0
  6
BYLAYER
100
AcDbCircle
 10
30.260000000000019
 20
30.259999999999994
 30
0.0
 40
1.3999999999999999
  0
CIRCLE
  5
94
100
AcDbEntity
  8
0
 62
256
370
-1
 48
1.0
  6
BYLAYER
100
AcDbCircle
 10
-30.259999999999977
 20
30.259999999999831
 30
0.0
 40
1.3999999999999999
  0
CIRCLE
  5
95
100
AcDbEntity
  8
0
 62
256
370
-1
 48
1.0
  6
BYLAYER
100
AcDbCircle
 10
-30.260000000000009
 20
-30.259999999999977
 30
0.0
 40
1.3999999999999999
  0
CIRCLE
  5
96
100
AcDbEntity
  8
0
 62
256
370
-1
 48
1.0
  6
BYLAYER
100
AcDbCircle
 10
16.120000000000001
 20
16.120000000000001
 30
0.0
 40
1.3999999999999999
  0
CIRCLE
  5
97
100
AcDbEntity
  8
0
 62
7
420
16777215
370
25
 48
1.0
  6
Continuous
100
AcDbCircle
 10
76.500000053073762
 20
-68.44999995847428
 30
0.0
 40
1.3999999999999999
  0
CIRCLE
  5
98
100
AcDbEntity
  8
0
 62
7
420
16777215
370
25
 48
1.0
  6
Continuous
100
AcDbCircle
 10
68.449999958474308
 20
76.500000053073748
 30
0.0
 40
1.3999999999999999
  0
CIRCLE
  5
99
100
AcDbEntity
  8
0
 62
7
420
16777215
370
25
 48
1.0
  6
Continuous
100
AcDbCircle
 10
-76.500000053073748
 20
68.449999958474336
 30
0.0
 40
1.3999999999999999
  0
CIRCLE
  5
9A
100
AcDbEntity
  8
0
 62
7
420
16777215
370
25
 48
1.0
  6
Continuous
100
AcDbCircle
 10
-68.449999958474095
 20
-76.500000053073748
 30
0.0
 40
1.3999999999999999
  0
CIRCLE
  5
9B
100
AcDbEntity
  8
0
 62
7
420
16777215
370
25
 48
1.0
  6
Continuous
100
AcDbCircle
 10
68.500000053073904
 20
-76.449999958474081
 30
0.0
 40
1.3999999999999999
  0
CIRCLE
  5
9C
100
AcDbEntity
  8
0
 62
7
420
16777215
370
25
 48
1.0
  6
Continuous
100
AcDbCircle
 10
76.449999958474109
 20
68.500000053073876
 30
0.0
 40
1.3999999999999999
  0
CIRCLE
  5
9D
100
AcDbEntity
  8
0
 62
7
420
16777215
370
25
 48
1.0
  6
Continuous
100
AcDbCircle
 10
-68.50000005307389
 20
76.449999958474123
 30
0.0
 40
1.3999999999999999
  0
CIRCLE
  5
9E
100
AcDbEntity
  8
0
 62
7
420
16777215
370
25
 48
1.0
  6
Continuous
100
AcDbCircle
 10
-76.449999958473882
 20
-68.50000005307389
 30
0.0
 40
1.3999999999999999
  0
CIRCLE
  5
9F
100
AcDbEntity
  8
0
 62
7
420
16777215
370
25
 48
1.0
  6
Continuous
100
AcDbCircle
 10
68.500000053073535
 20
-60.449999958474535
 30
0.0
 40
1.3999999999999999
  0
CIRCLE
  5
A0
100
AcDbEntity
  8
0
 62
7
420
16777215
370
25
 48
1.0
  6
Continuous
100
AcDbCircle
 10
60.449999958474564
 20
68.500000053073506
 30
0.0
 40
1.3999999999999999
  0
CIRCLE
  5
A1
100
AcDbEntity
  8
0
 62
7
420
16777215
370
25
 48
1.0
  6
Continuous
100
AcDbCircle
 10
-68.500000053073521
 20
60.449999958474592
 30
0.0
 40
1.3999999999999999
  0
CIRCLE
  5
A2
100
AcDbEntity
  8
0
 62
7
420
16777215
370
25
 48
1.0
  6
Continuous
100
AcDbCircle
 10
-60.449999958474351
 20
-68.500000053073521
 30
0.0
 40
1.3999999999999999
  0
CIRCLE
  5
A3
100
AcDbEntity
  8
0
 62
256
370
-1
 48
1.0
  6
BYLAYER
100
AcDbCircle
 10
16.120000000000001
 20
-16.120000000000001
 30
0.0
 40
1.3999999999999999
  0
CIRCLE
  5
A4
100
AcDbEntity
  8
0
 62
256
370
-1
 48
1.0
  6
BYLAYER
100
AcDbCircle
 10
-16.120000000000001
 20
-16.120000000000001
 30
0.0
 40
1.3999999999999999
  0
CIRCLE
  5
A5
100
AcDbEntity
  8
0
 62
256
370
-1
 48
1.0
  6
BYLAYER
100
AcDbCircle
 10
16.120000000000005
 20
-16.120000000000182
 30
0.0
 40
1.3999999999999999
  0
CIRCLE
  5
A6
100
AcDbEntity
  8
0
 62
256
370
-1
 48
1.0
  6
BYLAYER
100
AcDbCircle
 10
16.120000000000005
 20
16.120000000000001
 30
0.0
 40
1.3999999999999999
  0
CIRCLE
  5
A7
100
AcDbEntity
  8
0
 62
256
370
-1
 48
1.0
  6
BYLAYER
100
AcDbCircle
 10
-16.120000000000005
 20
16.120000000000001
 30
0.0
 40
1.3999999999999999
  0
CIRCLE
  5
A8
100
AcDbEntity
  8
0
 62
256
370
-1
 48
1.0
  6
BYLAYER
100
AcDbCircle
 10
-16.120000000000001
 20
-16.119999999999997
 30
0.0
 40
1.3999999999999999
  0
CIRCLE
  5
A9
100
AcDbEntity
  8
0
 62
256
370
-1
 48
1.0
  6
BYLAYER
100
AcDbCircle
 10
16.128433507226234
 20
-16.118639477434328
 30
0.0
 40
1.3999999999999999
  0
CIRCLE
  5
AA
100
AcDbEntity
  8
0
 62
256
370
-1
 48
1.0
  6
BYLAYER
100
AcDbCircle
 10
16.120000000000047
 20
16.119999999999965
 30
0.0
 40
1.3999999999999999
  0
CIRCLE
  5
AB
100
AcDbEntity
  8
0
 62
256
370
-1
 48
1.0
  6
BYLAYER
100
AcDbCircle
 10
-16.11999999999999
 20
16.120000000000015
 30
0.0
 40
1.3999999999999999
  0
CIRCLE
  5
AC
100
AcDbEntity
  8
0
 62
256
370
-1
 48
1.0
  6
BYLAYER
100
AcDbCircle
 10
-16.119999999999795
 20
-16.11999999999999
 30
0.0
 40
1.3999999999999999
  0
CIRCLE
  5
AD
100
AcDbEntity
  8
0
 62
256
370
-1
 48
1.0
  6
BYLAYER
100
AcDbCircle
 10
16.120000000000001
 20
-16.120000000000001
 30
0.0
 40
1.3999999999999999
  0
CIRCLE
  5
AE
100
AcDbEntity
  8
0
 62
256
370
-1
 48
1.0
  6
BYLAYER
100
AcDbCircle
 10
-16.120000000000001
 20
-16.120000000000001
 30
0.0
 40
1.3999999999999999
  0
CIRCLE
  5
AF
100
AcDbEntity
  8
0
 62
256
370
-1
 48
1.0
  6
BYLAYER
100
AcDbCircle
 10
16.120000000000005
 20
-16.120000000000182
 30
0.0
 40
1.3999999999999999
  0
CIRCLE
  5
B0
100
AcDbEntity
  8
0
 62
256
370
-1
 48
1.0
  6
BYLAYER
100
AcDbCircle
 10
16.120000000000005
 20
16.120000000000001
 30
0.0
 40
1.3999999999999999
  0
CIRCLE
  5
B1
100
AcDbEntity
  8
0
 62
256
370
-1
 48
1.0
  6
BYLAYER
100
AcDbCircle
 10
-16.120000000000005
 20
16.120000000000001
 30
0.0
 40
1.3999999999999999
  0
CIRCLE
  5
B2
100
AcDbEntity
  8
0
 62
256
370
-1
 48
1.0
  6
BYLAYER
100
AcDbCircle
 10
-16.120000000000001
 20
-16.119999999999997
 30
0.0
 40
1.3999999999999999
  0
CIRCLE
  5
B3
100
AcDbEntity
  8
0
 62
256
370
-1
 48
1.0
  6
BYLAYER
100
AcDbCircle
 10
-16.120000000000005
 20
-16.120000000000001
 30
0.0
 40
1.3999999999999999
  0
CIRCLE
  5
B4
100
AcDbEntity
  8
0
 62
256
370
-1
 48
1.0
  6
BYLAYER
100
AcDbCircle
 10
16.120000000000001
 20
-16.120000000000001
 30
0.0
 40
1.3999999999999999
  0
CIRCLE
  5
B5
100
AcDbEntity
  8
0
 62
256
370
-1
 48
1.0
  6
BYLAYER
100
AcDbCircle
 10
-16.120000000000001
 20
-16.120000000000001
 30
0.0
 40
1.3999999999999999
  0
CIRCLE
  5
B6
100
AcDbEntity
  8
0
 62
256
370
-1
 48
1.0
  6
BYLAYER
100
AcDbCircle
 10
16.120000000000005
 20
-16.120000000000182
 30
0.0
 40
1.3999999999999999
  0
CIRCLE
  5
B7
100
AcDbEntity
  8
0
 62
256
370
-1
 48
1.0
  6
BYLAYER
100
AcDbCircle
 10
16.120000000000005
 20
16.120000000000001
 30
0.0
 40
1.3999999999999999
  0
CIRCLE
  5
B8
100
AcDbEntity
  8
0
 62
256
370
-1
 48
1.0
  6
BYLAYER
100
AcDbCircle
 10
-16.120000000000005
 20
16.120000000000001
 30
0.0
 40
1.3999999999999999
  0
CIRCLE
  5
B9
100
AcDbEntity
  8
0
 62
256
370
-1
 48
1.0
  6
BYLAYER
100
AcDbCircle
 10
-16.120000000000001
 20
-16.119999999999997
 30
0.0
 40
1.3999999999999999
  0
CIRCLE
  5
BA
100
AcDbEntity
  8
0
 62
256
370
-1
 48
1.0
  6
BYLAYER
100
AcDbCircle
 10
16.120000000000001
 20
-16.120000000000001
 30
0.0
 40
1.3999999999999999
  0
CIRCLE
  5
BB
100
AcDbEntity
  8
0
 62
256
370
-1
 48
1.0
  6
BYLAYER
100
AcDbCircle
 10
-16.120000000000001
 20
-16.120000000000001
 30
0.0
 40
1.3999999999999999
  0
CIRCLE
  5
BC
100
AcDbEntity
  8
0
 62
256
370
-1
 48
1.0
  6
BYLAYER
100
AcDbCircle
 10
16.120000000000005
 20
-16.120000000000182
 30
0.0
 40
1.3999999999999999
  0
CIRCLE
  5
BD
100
AcDbEntity
  8
0
 62
256
370
-1
 48
1.0
  6
BYLAYER
100
AcDbCircle
 10
16.120000000000005
 20
16.120000000000001
 30
0.0
 40
1.3999999999999999
  0
CIRCLE
  5
BE
100
AcDbEntity
  8
0
 62
256
370
-1
 48
1.0
  6
BYLAYER
100
AcDbCircle
 10
-16.120000000000005
 20
16.120000000000001
 30
0.0
 40
1.3999999999999999
  0
CIRCLE
  5
BF
100
AcDbEntity
  8
0
 62
256
370
-1
 48
1.0
  6
BYLAYER
100
AcDbCircle
 10
-16.120000000000001
 20
-16.119999999999997
 30
0.0
 40
1.3999999999999999
  0
CIRCLE
  5
C0
100
AcDbEntity
  8
0
 62
256
370
-1
 48
1.0
  6
BYLAYER
100
AcDbCircle
 10
-16.120000000000005
 20
-16.120000000000001
 30
0.0
 40
1.3999999999999999
  0
CIRCLE
  5
C1
100
AcDbEntity
  8
0
 62
256
370
-1
 48
1.0
  6
BYLAYER
100
AcDbCircle
 10
68.5
 20
-68.5
 30
0.0
 40
3.5
  0
CIRCLE
  5
C2
100
AcDbEntity
  8
0
 62
256
370
-1
 48
1.0
  6
BYLAYER
100
AcDbCircle
 10
68.500000000000028
 20
68.499999999999986
 30
0.0
 40
3.5
  0
CIRCLE
  5
C3
100
AcDbEntity
  8
0
 62
256
370
-1
 48
1.0
  6
BYLAYER
100
AcDbCircle
 10
-68.499999999999986
 20
68.500000000000057
 30
0.0
 40
3.5
  0
CIRCLE
  5
C4
100
AcDbEntity
  8
0
 62
256
370
-1
 48
1.0
  6
BYLAYER
100
AcDbCircle
 10
-68.499999999999801
 20
-68.499999999999986
 30
0.0
 40
3.5
  0
LINE
  5
C5
100
AcDbEntity
  8
0
 62
256
370
-1
 48
1.0
  6
BYLAYER
100
AcDbLine
 10
83.782568097921171
 20
-70.360528004487406
 30
0.0
 11
76.176990410203189
 21
-73.360124132908993
 31
0.0
  0
LINE
  5
C6
100
AcDbEntity
  8
0
 62
256
370
-1
 48
1.0
  6
BYLAYER
100
AcDbLine
 10
70.360528046013002
 20
-83.782568056395576
 30
0.0
 11
73.360124174434617
 21
-76.176990368677565
 31
0.0
  0
LINE
  5
C7
100
AcDbEntity
  8
0
 62
256
370
-1
 48
1.0
  6
BYLAYER
100
AcDbLine
 10
70.360528004487435
 20
83.782568097921157
 30
0.0
 11
73.360124132909021
 21
76.176990410203175
 31
0.0
  0
LINE
  5
C8
100
AcDbEntity
  8
0
 62
256
370
-1
 48
1.0
  6
BYLAYER
100
AcDbLine
 10
83.782568056395604
 20
70.360528046012988
 30
0.0
 11
76.176990368677593
 21
73.360124174434603
 31
0.0
  0
LINE
  5
C9
100
AcDbEntity
  8
0
 62
256
370
-1
 48
1.0
  6
BYLAYER
100
AcDbLine
 10
-83.782568097921171
 20
70.360528004487506
 30
0.0
 11
-76.176990410203175
 21
73.36012413290905
 31
0.0
  0
LINE
  5
CA
100
AcDbEntity
  8
0
 62
256
370
-1
 48
1.0
  6
BYLAYER
100
AcDbLine
 10
-70.360528046012988
 20
83.782568056395633
 30
0.0
 11
-73.360124174434603
 21
76.176990368677622
 31
0.0
  0
LINE
  5
CB
100
AcDbEntity
  8
0
 62
256
370
-1
 48
1.0
  6
BYLAYER
100
AcDbLine
 10
-70.360528004487279
 20
-83.782568097921157
 30
0.0
 11
-73.360124132908808
 21
-76.176990410203175
 31
0.0
  0
LINE
  5
CC
100
AcDbEntity
  8
0
 62
256
370
-1
 48
1.0
  6
BYLAYER
100
AcDbLine
 10
-83.782568056395391
 20
-70.360528046012988
 30
0.0
 11
-76.17699036867738
 21
-73.360124174434603
 31
0.0
  0
LINE
  5
CD
100
AcDbEntity
  8
0
 62
256
370
-1
 48
1.0
  6
BYLAYER
100
AcDbLine
 10
83.782568097920887
 20
-66.639471912462142
 30
0.0
 11
75.725947505307474
 21
-63.461987054633084
 31
0.0
  0
LINE
  5
CE
100
AcDbEntity
  8
0
 62
256
370
-1
 48
1.0
  6
BYLAYER
100
AcDbLine
 10
66.639471953987766
 20
-83.782568056395291
 30
0.0
 11
63.461987096158708
 21
-75.725947463781864
 31
0.0
  0
LINE
  5
CF
100
AcDbEntity
  8
0
 62
256
370
-1
 48
1.0
  6
BYLAYER
100
AcDbLine
 10
66.63947191246217
 20
83.782568097920873
 30
0.0
 11
63.461987054633113
 21
75.725947505307445
 31
0.0
  0
LINE
  5
D0
100
AcDbEntity
  8
0
 62
256
370
-1
 48
1.0
  6
BYLAYER
100
AcDbLine
 10
83.78256805639532
 20
66.639471953987737
 30
0.0
 11
75.725947463781893
 21
63.461987096158694
 31
0.0
  0
LINE
  5
D1
100
AcDbEntity
  8
0
 62
256
370
-1
 48
1.0
  6
BYLAYER
100
AcDbLine
 10
-83.782568097920873
 20
66.639471912462199
 30
0.0
 11
-75.725947505307445
 21
63.461987054633141
 31
0.0
  0
LINE
  5
D2
100
AcDbEntity
  8
0
 62
256
370
-1
 48
1.0
  6
BYLAYER
100
AcDbLine
 10
-66.639471953987737
 20
83.782568056395334
 30
0.0
 11
-63.461987096158694
 21
75.725947463781907
 31
0.0
  0
LINE
  5
D3
100
AcDbEntity
  8
0
 62
256
370
-1
 48
1.0
  6
BYLAYER
100
AcDbLine
 10
-66.639471912461957
 20
-83.782568097920873
 30
0.0
 11
-63.4619870546329
 21
-75.725947505307445
 31
0.0
  0
LINE
  5
D4
100
AcDbEntity
  8
0
 62
256
370
-1
 48
1.0
  6
BYLAYER
100
AcDbLine
 10
-83.782568056395107
 20
-66.639471953987751
 30
0.0
 11
-75.725947463781651
 21
-63.461987096158694
 31
0.0
  0
LINE
  5
D5
100
AcDbEntity
  8
0
 62
256
370
-1
 48
1.0
  6
BYLAYER
100
AcDbLine
 10
73.283264541573232
 20
-61.400280824149689
 30
0.0
 11
70.210854795334797
 21
-56.32573394732978
 31
0.0
  0
LINE
  5
D6
100
AcDbEntity
  8
0
 62
256
370
-1
 48
1.0
  6
BYLAYER
100
AcDbLine
 10
61.400280865675313
 20
-73.283264500047636
 30
0.0
 11
56.325733988855376
 21
-70.210854753809201
 31
0.0
  0
LINE
  5
D7
100
AcDbEntity
  8
0
 62
256
370
-1
 48
1.0
  6
BYLAYER
100
AcDbLine
 10
61.400280824149718
 20
73.283264541573217
 30
0.0
 11
56.325733947329809
 21
70.210854795334782
 31
0.0
  0
LINE
  5
D8
100
AcDbEntity
  8
0
 62
256
370
-1
 48
1.0
  6
BYLAYER
100
AcDbLine
 10
73.283264500047665
 20
61.400280865675299
 30
0.0
 11
70.21085475380923
 21
56.325733988855347
 31
0.0
  0
LINE
  5
D9
100
AcDbEntity
  8
0
 62
256
370
-1
 48
1.0
  6
BYLAYER
100
AcDbLine
 10
-73.283264541573217
 20
61.400280824149746
 30
0.0
 11
-70.210854795334782
 21
56.325733947329837
 31
0.0
  0
LINE
  5
DA
100
AcDbEntity
  8
0
 62
256
370
-1
 48
1.0
  6
BYLAYER
100
AcDbLine
 10
-61.400280865675299
 20
73.283264500047693
 30
0.0
 11
-56.325733988855362
 21
70.210854753809329
 31
0.0
  0
LINE
  5
DB
100
AcDbEntity
  8
0
 62
256
370
-1
 48
1.0
  6
BYLAYER
100
AcDbLine
 10
-61.400280824149505
 20
-73.283264541573217
 30
0.0
 11
-56.325733947329581
 21
-70.210854795334782
 31
0.0
  0
LINE
  5
DC
100
AcDbEntity
  8
0
 62
256
370
-1
 48
1.0
  6
BYLAYER
100
AcDbLine
 10
-73.283264500047466
 20
-61.400280865675299
 30
0.0
 11
-70.210854753809102
 21
-56.325733988855362
 31
0.0
  0
ARC
  5
DD
100
AcDbEntity
  8
0
 62
256
370
-1
 48
1.0
  6
BYLAYER
100
AcDbCircle
 10
83.048786529605465
 20
-68.499999958474604
 30
0.0
 40
2.0
100
AcDbArc
 50
291.52399120472938
 51
68.476008795270687
  0
ARC
  5
DE
100
AcDbEntity
  8
0
 62
256
370
-1
 48
1.0
  6
BYLAYER
100
AcDbCircle
 10
68.500000000000199
 20
-83.048786488079855
 30
0.0
 40
2.0
100
AcDbArc
 50
201.52399120472933
 51
338.47600879527062
  0
ARC
  5
DF
100
AcDbEntity
  8
0
 62
256
370
-1
 48
1.0
  6
BYLAYER
100
AcDbCircle
 10
68.499999958474632
 20
83.048786529605437
 30
0.0
 40
2.0
100
AcDbArc
 50
21.52399120472942
 51
158.4760087952707
  0
ARC
  5
E0
100
AcDbEntity
  8
0
 62
256
370
-1
 48
1.0
  6
BYLAYER
100
AcDbCircle
 10
83.048786488079884
 20
68.500000000000171
 30
0.0
 40
2.0
100
AcDbArc
 50
291.52399120472933
 51
68.476008795270587
  0
ARC
  5
E1
100
AcDbEntity
  8
0
 62
256
370
-1
 48
1.0
  6
BYLAYER
100
AcDbCircle
 10
-83.048786529605437
 20
68.49999995847466
 30
0.0
 40
2.0
100
AcDbArc
 50
111.52399120472943
 51
248.47600879527067
  0
ARC
  5
E2
100
AcDbEntity
  8
0
 62
256
370
-1
 48
1.0
  6
BYLAYER
100
AcDbCircle
 10
-68.500000000000185
 20
83.048786488079912
 30
0.0
 40
2.0
100
AcDbArc
 50
21.523991204729317
 51
158.47600879527056
  0
ARC
  5
E3
100
AcDbEntity
  8
0
 62
256
370
-1
 48
1.0
  6
BYLAYER
100
AcDbCircle
 10
-68.499999958474419
 20
-83.048786529605437
 30
0.0
 40
2.0
100
AcDbArc
 50
201.52399120472941
 51
338.47600879527067
  0
ARC
  5
E4
100
AcDbEntity
  8
0
 62
256
370
-1
 48
1.0
  6
BYLAYER
100
AcDbCircle
 10
-83.048786488079656
 20
-68.500000000000185
 30
0.0
 40
2.0
100
AcDbArc
 50
111.52399120472931
 51
248.47600879527059
  0
ARC
  5
E5
100
AcDbEntity
  8
0
 62
256
370
-1
 48
1.0
  6
BYLAYER
100
AcDbCircle
 10
68.500000041525283
 20
-57.361579501149407
 30
0.0
 40
2.0
100
AcDbArc
 50
31.19301834296768
 51
82.383637189181854
  0
ARC
  5
E6
100
AcDbEntity
  8
0
 62
256
370
-1
 48
1.0
  6
BYLAYER
100
AcDbCircle
 10
57.361579542675031
 20
-68.499999999999687
 30
0.0
 40
2.0
100
AcDbArc
 50
187.61636281081817
 51
238.80698165703234
  0
ARC
  5
E7
100
AcDbEntity
  8
0
 62
256
370
-1
 48
1.0
  6
BYLAYER
100
AcDbCircle
 10
57.361579501149436
 20
68.500000041525269
 30
0.0
 40
2.0
100
AcDbArc
 50
121.19301834296768
 51
172.38363718918185
  0
ARC
  5
E8
100
AcDbEntity
  8
0
 62
256
370
-1
 48
1.0
  6
BYLAYER
100
AcDbCircle
 10
68.499999999999716
 20
57.361579542675017
 30
0.0
 40
2.0
100
AcDbArc
 50
277.61636281081815
 51
328.80698165703234
  0
ARC
  5
E9
100
AcDbEntity
  8
0
 62
256
370
-1
 48
1.0
  6
BYLAYER
100
AcDbCircle
 10
-68.500000041525269
 20
57.361579501149464
 30
0.0
 40
2.0
100
AcDbArc
 50
211.19301834296766
 51
262.38363718918185
  0
ARC
  5
EA
100
AcDbEntity
  8
0
 62
256
370
-1
 48
1.0
  6
BYLAYER
100
AcDbCircle
 10
-57.361579542675017
 20
68.499999999999716
 30
0.0
 40
2.0
100
AcDbArc
 50
7.6163628108181438
 51
58.806981657032317
  0
ARC
  5
EB
100
AcDbEntity
  8
0
 62
256
370
-1
 48
1.0
  6
BYLAYER
100
AcDbCircle
 10
-57.361579501149222
 20
-68.500000041525269
 30
0.0
 40
2.0
100
AcDbArc
 50
301.19301834296766
 51
352.38363718918185
  0
ARC
  5
EC
100
AcDbEntity
  8
0
 62
256
370
-1
 48
1.0
  6
BYLAYER
100
AcDbCircle
 10
-68.499999999999488
 20
-57.361579542675017
 30
0.0
 40
2.0
100
AcDbArc
 50
97.616362810818146
 51
148.80698165703228
  0
ARC
  5
ED
100
AcDbEntity
  8
0
 62
256
370
-1
 48
1.0
  6
BYLAYER
100
AcDbCircle
 10
78.011444289466652
 20
-78.011444289466681
 30
0.0
 40
5.0
100
AcDbArc
 50
111.52399120472931
 51
158.47600879527064
  0
ARC
  5
EE
100
AcDbEntity
  8
0
 62
256
370
-1
 48
1.0
  6
BYLAYER
100
AcDbCircle
 10
78.011444289466738
 20
78.01144428946661
 30
0.0
 40
5.0
100
AcDbArc
 50
201.52399120472933
 51
248.47600879527064
  0
ARC
  5
EF
100
AcDbEntity
  8
0
 62
256
370
-1
 48
1.0
  6
BYLAYER
100
AcDbCircle
 10
-78.011444289466638
 20
78.011444289466738
 30
0.0
 40
5.0
100
AcDbArc
 50
291.52399120472933
 51
338.47600879527062
  0
ARC
  5
F0
100
AcDbEntity
  8
0
 62
256
370
-1
 48
1.0
  6
BYLAYER
100
AcDbCircle
 10
-78.011444289466496
 20
-78.011444289466638
 30
0.0
 40
5.0
100
AcDbArc
 50
21.523991204729317
 51
68.47600879527063
  0
ARC
  5
F1
100
AcDbEntity
  8
0
 62
256
370
-1
 48
1.0
  6
BYLAYER
100
AcDbCircle
 10
77.560401426096803
 20
-58.810666939600964
 30
0.0
 40
5.0
100
AcDbArc
 50
211.19301834296766
 51
248.47600879527067
  0
ARC
  5
F2
100
AcDbEntity
  8
0
 62
256
370
-1
 48
1.0
  6
BYLAYER
100
AcDbCircle
 10
58.810666981126559
 20
-77.560401384571207
 30
0.0
 40
5.0
100
AcDbArc
 50
21.523991204729327
 51
58.806981657032367
  0
ARC
  5
F3
100
AcDbEntity
  8
0
 62
256
370
-1
 48
1.0
  6
BYLAYER
100
AcDbCircle
 10
58.810666939600992
 20
77.560401426096789
 30
0.0
 40
5.0
100
AcDbArc
 50
301.19301834296766
 51
338.47600879527067
  0
ARC
  5
F4
100
AcDbEntity
  8
0
 62
256
370
-1
 48
1.0
  6
BYLAYER
100
AcDbCircle
 10
77.560401384571236
 20
58.810666981126545
 30
0.0
 40
5.0
100
AcDbArc
 50
111.52399120472933
 51
148.80698165703234
  0
ARC
  5
F5
100
AcDbEntity
  8
0
 62
256
370
-1
 48
1.0
  6
BYLAYER
100
AcDbCircle
 10
-77.560401426096789
 20
58.81066693960102
 30
0.0
 40
5.0
100
AcDbArc
 50
31.19301834296768
 51
68.476008795270687
  0
ARC
  5
F6
100
AcDbEntity
  8
0
 62
256
370
-1
 48
1.0
  6
BYLAYER
100
AcDbCircle
 10
-58.810666981126538
 20
77.560401384571236
 30
0.0
 40
5.0
100
AcDbArc
 50
201.52399120472933
 51
238.80698165703237
  0
ARC
  5
F7
100
AcDbEntity
  8
0
 62
256
370
-1
 48
1.0
  6
BYLAYER
100
AcDbCircle
 10
-58.810666939600779
 20
-77.560401426096789
 30
0.0
 40
5.0
100
AcDbArc
 50
121.19301834296762
 51
158.4760087952707
  0
ARC
  5
F8
100
AcDbEntity
  8
0
 62
256
370
-1
 48
1.0
  6
BYLAYER
100
AcDbCircle
 10
-77.560401384571009
 20
-58.810666981126545
 30
0.0
 40
5.0
100
AcDbArc
 50
291.52399120472933
 51
328.8069816570324
  0
LINE
  5
F9
100
AcDbEntity
  8
0
 62
256
370
-1
 48
1.0
  6
BYLAYER
100
AcDbLine
 10
12.936643979631482
 20
-19.300605010309457
 30
0.0
 11
47.09843239822262
 21
-53.462393428900832
 31
0.0
  0
LINE
  5
FA
100
AcDbEntity
  8
0
 62
256
370
-1
 48
1.0
  6
BYLAYER
100
AcDbLine
 10
19.301980556864802
 20
-12.93801944313523
 30
0.0
 11
53.462393470428069
 21
-47.098432356698737
 31
0.0
  0
LINE
  5
FB
100
AcDbEntity
  8
0
 62
256
370
-1
 48
1.0
  6
BYLAYER
100
AcDbLine
 10
19.300605010309468
 20
12.936643979631473
 30
0.0
 11
53.462393428900867
 21
47.098432398222599
 31
0.0
  0
LINE
  5
FC
100
AcDbEntity
  8
0
 62
256
370
-1
 48
1.0
  6
BYLAYER
100
AcDbLine
 10
12.938019443135261
 20
19.301980556864788
 30
0.0
 11
47.098432356698936
 21
53.462393470428452
 31
0.0
  0
LINE
  5
FD
100
AcDbEntity
  8
0
 62
256
370
-1
 48
1.0
  6
BYLAYER
100
AcDbLine
 10
-12.936643979631455
 20
19.300605010309507
 30
0.0
 11
-47.098432398222599
 21
53.462393428900896
 31
0.0
  0
LINE
  5
FE
100
AcDbEntity
  8
0
 62
256
370
-1
 48
1.0
  6
BYLAYER
100
AcDbLine
 10
-19.301980556864805
 20
12.938019443135286
 30
0.0
 11
-53.462393470428047
 21
47.098432356698794
 31
0.0
  0
LINE
  5
FF
100
AcDbEntity
  8
0
 62
256
370
-1
 48
1.0
  6
BYLAYER
100
AcDbLine
 10
-19.30060501030928
 20
-12.936643979631455
 30
0.0
 11
-53.46239342890064
 21
-47.098432398222613
 31
0.0
  0
LINE
  5
100
100
AcDbEntity
  8
0
 62
256
370
-1
 48
1.0
  6
BYLAYER
100
AcDbLine
 10
-12.938019443135051
 20
-19.301980556864791
 30
0.0
 11
-47.098432356698524
 21
-53.462393470428054
 31
0.0
  0
LINE
  5
101
100
AcDbEntity
  8
0
 62
256
370
-1
 48
1.0
  6
BYLAYER
100
AcDbLine
 10
-18.312508485001409
 20
-24.676469598730947
 30
0.0
 11
-27.078019443135272
 21
-33.441980556864749
 31
0.0
  0
LINE
  5
102
100
AcDbEntity
  8
0
 62
256
370
-1
 48
1.0
  6
BYLAYER
100
AcDbLine
 10
18.312508485001388
 20
-24.676469598731153
 30
0.0
 11
27.078019443135247
 21
-33.441980556864955
 31
0.0
  0
LINE
  5
103
100
AcDbEntity
  8
0
 62
256
370
-1
 48
1.0
  6
BYLAYER
100
AcDbLine
 10
-18.312508485001196
 20
24.676469598730748
 30
0.0
 11
-27.078019443135059
 21
33.441980556864564
 31
0.0
  0
LINE
  5
104
100
AcDbEntity
  8
0
 62
256
370
-1
 48
1.0
  6
BYLAYER
100
AcDbLine
 10
18.312508485001601
 20
24.676469598730947
 30
0.0
 11
27.078019443135457
 21
33.441980556864763
 31
0.0
  0
LINE
  5
105
100
AcDbEntity
  8
0
 62
256
370
-1
 48
1.0
  6
BYLAYER
100
AcDbLine
 10
24.676469598730975
 20
-18.312508485001441
 30
0.0
 11
33.441980556864763
 21
-27.078019443135304
 31
0.0
  0
LINE
  5
106
100
AcDbEntity
  8
0
 62
256
370
-1
 48
1.0
  6
BYLAYER
100
AcDbLine
 10
24.676469598731202
 20
18.312508485001363
 30
0.0
 11
33.441980556865005
 21
27.078019443135215
 31
0.0
  0
LINE
  5
107
100
AcDbEntity
  8
0
 62
256
370
-1
 48
1.0
  6
BYLAYER
100
AcDbLine
 10
-24.676469598730563
 20
-18.312508485001672
 30
0.0
 11
-33.441980556864365
 21
-27.078019443135531
 31
0.0
  0
LINE
  5
108
100
AcDbEntity
  8
0
 62
256
370
-1
 48
1.0
  6
BYLAYER
100
AcDbLine
 10
-24.67646959873079
 20
18.312508485001139
 30
0.0
 11
-33.441980556864593
 21
27.078019443134991
 31
0.0
  0
LINE
  5
109
100
AcDbEntity
  8
0
 62
256
370
-1
 48
1.0
  6
BYLAYER
100
AcDbLine
 10
-450.0
 20
-900.0
 30
0.0
 11
450.0
 21
-900.0
 31
0.0
  0
ARC
  5
10A
100
AcDbEntity
  8
0
 62
256
370
-1
 48
1.0
  6
BYLAYER
100
AcDbCircle
 10
73.35176278317816
 20
-28.623276606318463
 30
0.0
 40
27.146240838461861
100
AcDbArc
 50
222.88888832926719
 51
260.56219962697963
  0
ARC
  5
10B
100
AcDbEntity
  8
0
 62
256
370
-1
 48
1.0
  6
BYLAYER
100
AcDbCircle
 10
28.623276647844079
 20
-73.351762741652536
 30
0.0
 40
27.146240838461861
100
AcDbArc
 50
9.4378003730203783
 51
47.111111670732839
  0
ARC
  5
10C
100
AcDbEntity
  8
0
 62
256
370
-1
 48
1.0
  6
BYLAYER
100
AcDbCircle
 10
28.623276606318484
 20
73.351762783178131
 30
0.0
 40
27.146240838461861
100
AcDbArc
 50
312.88888832926716
 51
350.56219962697963
  0
ARC
  5
10D
100
AcDbEntity
  8
0
 62
256
370
-1
 48
1.0
  6
BYLAYER
100
AcDbCircle
 10
73.35176274165255
 20
28.623276647844055
 30
0.0
 40
27.146240838461861
100
AcDbArc
 50
99.437800373020366
 51
137.11111167073284
  0
ARC
  5
10E
100
AcDbEntity
  8
0
 62
256
370
-1
 48
1.0
  6
BYLAYER
100
AcDbCircle
 10
-73.351762783178117
 20
28.623276606318509
 30
0.0
 40
27.146240838461861
100
AcDbArc
 50
42.888888329267161
 51
80.562199626979634
  0
ARC
  5
10F
100
AcDbEntity
  8
0
 62
256
370
-1
 48
1.0
  6
BYLAYER
100
AcDbCircle
 10
-28.623276647844065
 20
73.351762741652664
 30
0.0
 40
27.146240838461861
100
AcDbArc
 50
189.43780037302037
 51
227.11111167073281
  0
ARC
  5
110
100
AcDbEntity
  8
0
 62
256
370
-1
 48
1.0
  6
BYLAYER
100
AcDbCircle
 10
-28.623276606318274
 20
-73.351762783178131
 30
0.0
 40
27.146240838461861
100
AcDbArc
 50
132.88888832926713
 51
170.56219962697958
  0
ARC
  5
111
100
AcDbEntity
  8
0
 62
256
370
-1
 48
1.0
  6
BYLAYER
100
AcDbCircle
 10
-73.351762741652422
 20
-28.623276647844065
 30
0.0
 40
27.146240838461861
100
AcDbArc
 50
279.43780037302037
 51
317.11111167073284
  0
LINE
  5
112
100
AcDbEntity
  8
0
 62
256
370
-1
 48
1.0
  6
BYLAYER
100
AcDbLine
 10
450.0
 20
-900.0
 30
0.0
 11
450.0
 21
900.0
 31
0.0
  0
LINE
  5
113
100
AcDbEntity
  8
0
 62
256
370
-1
 48
1.0
  6
BYLAYER
100
AcDbLine
 10
450.0
 20
900.0
 30
0.0
 11
-450.0
 21
900.0
 31
0.0
  0
LINE
  5
114
100
AcDbEntity
  8
0
 62
256
370
-1
 48
1.0
  6
BYLAYER
100
AcDbLine
 10
-450.0
 20
900.0
 30
0.0
 11
-450.0
 21
-900.0
 31
0.0
  0
LINE
  5
115
100
AcDbEntity
  8
0
 62
256
370
-1
 48
1.0
  6
BYLAYER
100
AcDbLine
 10
-417.0
 20
-867.0
 30
0.0
 11
483.0
 21
-867.0
 31
0.0
  0
LINE
  5
116
100
AcDbEntity
  8
0
 62
256
370
-1
 48
1.0
  6
BYLAYER
100
AcDbLine
 10
483.0
 20
-867.0
 30
0.0
 11
483.0
 21
933.0
 31
0.0
  0
LINE
  5
117
100
AcDbEntity
  8
0
 62
256
370
-1
 48
1.0
  6
BYLAYER
100
AcDbLine
 10
483.0
 20
933.0
 30
0.0
 11
-417.0
 21
933.0
 31
0.0
  0
LINE
  5
118
100
AcDbEntity
  8
0
 62
256
370
-1
 48
1.0
  6
BYLAYER
100
AcDbLine
 10
-417.0
 20
933.0
 30
0.0
 11
-417.0
 21
-867.0
 31
0.0
  0
LINE
  5
119
100
AcDbEntity
  8
0
 62
256
370
-1
 48
1.0
  6
BYLAYER
100
AcDbLine
 10
-417.0
 20
-900.0
 30
0.0
 11
483.0
 21
-900.0
 31
0.0
  0
LINE
  5
11A
100
AcDbEntity
  8
0
 62
256
370
-1
 48
1.0
  6
BYLAYER
100
AcDbLine
 10
483.0
 20
-900.0
 30
0.0
 11
483.0
 21
900.0
 31
0.0
  0
LINE
  5
11B
100
AcDbEntity
  8
0
 62
256
370
-1
 48
1.0
  6
BYLAYER
100
AcDbLine
 10
483.0
 20
900.0
 30
0.0
 11
-417.0
 21
900.0
 31
0.0
  0
LINE
  5
11C
100
AcDbEntity
  8
0
 62
256
370
-1
 48
1.0
  6
BYLAYER
100
AcDbLine
 10
-417.0
 20
900.0
 30
0.0
 11
-417.0
 21
-900.0
 31
0.0
  0
LINE
  5
11D
100
AcDbEntity
  8
0
 62
256
370
-1
 48
1.0
  6
BYLAYER
100
AcDbLine
 10
-450.0
 20
-867.0
 30
0.0
 11
450.0
 21
-867.0
 31
0.0
  0
LINE
  5
11E
100
AcDbEntity
  8
0
 62
256
370
-1
 48
1.0
  6
BYLAYER
100
AcDbLine
 10
450.0
 20
-867.0
 30
0.0
 11
450.0
 21
933.0
 31
0.0
  0
LINE
  5
11F
100
AcDbEntity
  8
0
 62
256
370
-1
 48
1.0
  6
BYLAYER
100
AcDbLine
 10
450.0
 20
933.0
 30
0.0
 11
-450.0
 21
933.0
 31
0.0
  0
LINE
  5
120
100
AcDbEntity
  8
0
 62
256
370
-1
 48
1.0
  6
BYLAYER
100
AcDbLine
 10
-450.0
 20
933.0
 30
0.0
 11
-450.0
 21
-867.0
 31
0.0
  0
LINE
  5
121
100
AcDbEntity
  8
0
 62
256
370
-1
 48
1.0
  6
BYLAYER
100
AcDbLine
 10
-424.0
 20
-886.0
 30
0.0
 11
476.0
 21
-886.0
 31
0.0
  0
LINE
  5
122
100
AcDbEntity
  8
0
 62
256
370
-1
 48
1.0
  6
BYLAYER
100
AcDbLine
 10
476.0
 20
-886.0
 30
0.0
 11
476.0
 21
914.0
 31
0.0
  0
LINE
  5
123
100
AcDbEntity
  8
0
 62
256
370
-1
 48
1.0
  6
BYLAYER
100
AcDbLine
 10
476.0
 20
914.0
 30
0.0
 11
-424.0
 21
914.0
 31
0.0
  0
LINE
  5
124
100
AcDbEntity
  8
0
 62
256
370
-1
 48
1.0
  6
BYLAYER
100
AcDbLine
 10
-424.0
 20
914.0
 30
0.0
 11
-424.0
 21
-886.0
 31
0.0
  0
CIRCLE
  5
125
100
AcDbEntity
  8
0
 62
256
370
-1
 48
1.0
  6
BYLAYER
100
AcDbCircle
 10
68.500000000000028
 20
-68.5
 30
0.0
 40
65.0
  0
CIRCLE
  5
126
100
AcDbEntity
  8
0
 62
256
370
-1
 48
1.0
  6
BYLAYER
100
AcDbCircle
 10
68.500000000000028
 20
68.499999999999986
 30
0.0
 40
65.0
  0
CIRCLE
  5
127
100
AcDbEntity
  8
0
 62
256
370
-1
 48
1.0
  6
BYLAYER
100
AcDbCircle
 10
-68.499999999999986
 20
68.500000000000057
 30
0.0
 40
65.0
  0
CIRCLE
  5
128
100
AcDbEntity
  8
0
 62
256
370
-1
 48
1.0
  6
BYLAYER
100
AcDbCircle
 10
-68.499999999999801
 20
-68.499999999999986
 30
0.0
 40
65.0
  0
ARC
  5
129
100
AcDbEntity
  8
0
 62
256
370
-1
 48
1.0
  6
BYLAYER
100
AcDbCircle
 10
16.117278985547642
 20
-16.117278954868674
 30
0.0
 40
4.5
100
AcDbArc
 50
44.951004261978881
 51
225.0242279563852
  0
ARC
  5
12A
100
AcDbEntity
  8
0
 62
256
370
-1
 48
1.0
  6
BYLAYER
100
AcDbCircle
 10
16.117278954868709
 20
16.117278985547639
 30
0.0
 40
4.5
100
AcDbArc
 50
134.95100426197888
 51
315.02422795638523
  0
ARC
  5
12B
100
AcDbEntity
  8
0
 62
256
370
-1
 48
1.0
  6
BYLAYER
100
AcDbCircle
 10
-16.117278985547628
 20
16.117278954868748
 30
0.0
 40
4.5
100
AcDbArc
 50
224.95100426197888
 51
45.024227956385204
  0
ARC
  5
12C
100
AcDbEntity
  8
0
 62
256
370
-1
 48
1.0
  6
BYLAYER
100
AcDbCircle
 10
-16.117278954868507
 20
-16.117278985547614
 30
0.0
 40
4.5
100
AcDbArc
 50
314.95100426197888
 51
135.02422795638515
  0
ARC
  5
12D
100
AcDbEntity
  8
0
 62
256
370
-1
 48
1.0
  6
BYLAYER
100
AcDbCircle
 10
-30.259999999999977
 20
30.259999999999835
 30
0.0
 40
4.5
100
AcDbArc
 50
48.629246454475123
 51
221.37075354552462
  0
ARC
  5
12E
100
AcDbEntity
  8
0
 62
256
370
-1
 48
1.0
  6
BYLAYER
100
AcDbCircle
 10
-30.260000000000023
 20
-30.259999999999977
 30
0.0
 40
4.5
100
AcDbArc
 50
138.62924645447555
 51
311.37075354552491
  0
ARC
  5
12F
100
AcDbEntity
  8
0
 62
256
370
-1
 48
1.0
  6
BYLAYER
100
AcDbCircle
 10
30.260000000000019
 20
-30.260000000000183
 30
0.0
 40
4.5
100
AcDbArc
 50
228.62924645447507
 51
41.370753545524892
  0
ARC
  5
130
100
AcDbEntity
  8
0
 62
256
370
-1
 48
1.0
  6
BYLAYER
100
AcDbCircle
 10
16.125712492773843
 20
16.118639477434321
 30
0.0
 40
4.5
100
AcDbArc
 50
345.53315917534792
 51
161.64840840822379
  0
ARC
  5
131
100
AcDbEntity
  8
0
 62
256
370
-1
 48
1.0
  6
BYLAYER
100
AcDbCircle
 10
16.128433507226234
 20
-16.118639477434328
 30
0.0
 40
4.5
100
AcDbArc
 50
255.51450448916631
 51
14.476513020867138
  0
ARC
  5
132
100
AcDbEntity
  8
0
 62
256
370
-1
 48
1.0
  6
BYLAYER
100
AcDbCircle
 10
-16.128433507226205
 20
-16.11591843230299
 30
0.0
 40
4.5
100
AcDbArc
 50
165.52957129028835
 51
284.47582907909674
  0
ARC
  5
133
100
AcDbEntity
  8
0
 62
256
370
-1
 48
1.0
  6
BYLAYER
100
AcDbCircle
 10
-16.128433507226234
 20
16.118639477434328
 30
0.0
 40
4.5
100
AcDbArc
 50
18.351591591774639
 51
194.47042870971205
  0
ARC
  5
134
100
AcDbEntity
  8
0
 62
256
370
-1
 48
1.0
  6
BYLAYER
100
AcDbCircle
 10
78.580571154686609
 20
0.005271439668307
 30
0.0
 40
60.0
100
AcDbArc
 50
165.533159175348
 51
194.47651302086709
  0
ARC
  5
135
100
AcDbEntity
  8
0
 62
256
370
-1
 48
1.0
  6
BYLAYER
100
AcDbCircle
 10
-0.005268084674179
 20
-78.568248547015457
 30
0.0
 40
60.0
100
AcDbArc
 50
75.514504489166271
 51
104.47582907909684
  0
ARC
  5
136
100
AcDbEntity
  8
0
 62
256
370
-1
 48
1.0
  6
BYLAYER
100
AcDbCircle
 10
-78.582283021014788
 20
0.0013605225656157
 30
0.0
 40
60.0
100
AcDbArc
 50
345.52957129028852
 51
14.470428709711589
  0
ARC
  5
137
100
AcDbEntity
  8
0
 62
256
370
-1
 48
1.0
  6
BYLAYER
100
AcDbCircle
 10
0.0000000000000156
 20
-64.618571929570479
 30
0.0
 40
41.284048150414399
100
AcDbArc
 50
48.629246454475265
 51
131.37075354552474
  0
ARC
  5
138
100
AcDbEntity
  8
0
 62
256
370
-1
 48
1.0
  6
BYLAYER
100
AcDbCircle
 10
0.0000000000000573
 20
64.618571929570336
 30
0.0
 40
41.284048150414399
100
AcDbArc
 50
228.62924645447526
 51
311.37075354552474
  0
ARC
  5
139
100
AcDbEntity
  8
0
 62
256
370
-1
 48
1.0
  6
BYLAYER
100
AcDbCircle
 10
64.618571929570535
 20
-0.0000000000001563
 30
0.0
 40
41.284048150414399
100
AcDbArc
 50
138.62924645447526
 51
221.37075354552474
  0
ARC
  5
13A
100
AcDbEntity
  8
0
 62
256
370
-1
 48
1.0
  6
BYLAYER
100
AcDbCircle
 10
-64.618571929570464
 20
-0.0000000000001634
 30
0.0
 40
41.284048150414399
100
AcDbArc
 50
318.62924645447526
 51
41.370753545524757
  0
ARC
  5
13B
100
AcDbEntity
  8
0
 62
256
370
-1
 48
1.0
  6
BYLAYER
100
AcDbCircle
 10
30.260000000000019
 20
30.259999999999991
 30
0.0
 40
4.5
100
AcDbArc
 50
318.62924645447521
 51
131.3707535455251
  0
ENDSEC
  0
SECTION
  2
OBJECTS
  0
DICTIONARY
  5
C
100
AcDbDictionary
280
0
281
1
  3
ACAD_GROUP
350
D
  3
ACAD_LAYOUT
350
1A
  3
ACAD_MLINESTYLE
350
17
  3
ACAD_PLOTSETTINGS
350
19
  3
ACAD_PLOTSTYLENAME
350
E
  3
AcDbVariableDictionary
350
13C
  3
QCAD_OBJECTS
350
13D
  0
DICTIONARY
  5
D
100
AcDbDictionary
280
0
281
1
  0
ACDBDICTIONARYWDFLT
  5
E
100
AcDbDictionary
281
1
  3
Normal
350
F
100
AcDbDictionaryWithDefault
340
F
  0
ACDBPLACEHOLDER
  5
F
  0
DICTIONARY
  5
17
100
AcDbDictionary
280
0
281
1
  3
Standard
350
18
  0
MLINESTYLE
  5
18
100
AcDbMlineStyle
  2
STANDARD
 70
0
  3

 62
256
 51
90.0
 52
90.0
 71
2
 49
0.5
 62
256
  6
BYLAYER
 49
-0.5
 62
256
  6
BYLAYER
  0
DICTIONARY
  5
19
100
AcDbDictionary
280
0
281
1
  0
DICTIONARY
  5
1A
100
AcDbDictionary
281
1
  3
Layout1
350
1E
  3
Layout2
350
26
  3
Model
350
22
  0
LAYOUT
  5
1E
100
AcDbPlotSettings
  1

  2
none_device
  4

  6

 40
0.0
 41
0.0
 42
0.0
 43
0.0
 44
0.0
 45
0.0
 46
0.0
 47
0.0
 48
0.0
 49
0.0
140
0.0
141
0.0
142
1.0
143
1.0
 70
688
 72
0
 73
0
 74
5
  7

 75
16
147
1.0
148
0.0
149
0.0
100
AcDbLayout
  1
Layout1
 70
1
 71
1
 10
0.0
 20
0.0
 11
420.0
 21
297.0
 12
0.0
 22
0.0
 32
0.0
 14
100000000000000000000.0
 24
100000000000000000000.0
 34
100000000000000000000.0
 15
-100000000000000000000.0
 25
-100000000000000000000.0
 35
-100000000000000000000.0
146
0.0
 13
0.0
 23
0.0
 33
0.0
 16
1.0
 26
0.0
 36
0.0
 17
0.0
 27
1.0
 37
0.0
 76
0
330
1B
  0
LAYOUT
  5
22
100
AcDbPlotSettings
  1

  2
none_device
  4

  6

 40
0.0
 41
0.0
 42
0.0
 43
0.0
 44
0.0
 45
0.0
 46
0.0
 47
0.0
 48
0.0
 49
0.0
140
0.0
141
0.0
142
1.0
143
1.0
 70
1712
 72
0
 73
0
 74
0
  7

 75
0
147
1.0
148
0.0
149
0.0
100
AcDbLayout
  1
Model
 70
1
 71
0
 10
0.0
 20
0.0
 11
12.0
 21
9.0
 12
0.0
 22
0.0
 32
0.0
 14
0.0
 24
0.0
 34
0.0
 15
0.0
 25
0.0
 35
0.0
146
0.0
 13
0.0
 23
0.0
 33
0.0
 16
1.0
 26
0.0
 36
0.0
 17
0.0
 27
1.0
 37
0.0
 76
0
330
1F
  0
LAYOUT
  5
26
100
AcDbPlotSettings
  1

  2
none_device
  4

  6

 40
0.0
 41
0.0
 42
0.0
 43
0.0
 44
0.0
 45
0.0
 46
0.0
 47
0.0
 48
0.0
 49
0.0
140
0.0
141
0.0
142
1.0
143
1.0
 70
688
 72
0
 73
0
 74
5
  7

 75
16
147
1.0
148
0.0
149
0.0
100
AcDbLayout
  1
Layout2
 70
1
 71
2
 10
0.0
 20
0.0
 11
12.0
 21
9.0
 12
0.0
 22
0.0
 32
0.0
 14
0.0
 24
0.0
 34
0.0
 15
0.0
 25
0.0
 35
0.0
146
0.0
 13
0.0
 23
0.0
 33
0.0
 16
1.0
 26
0.0
 36
0.0
 17
0.0
 27
1.0
 37
0.0
 76
0
330
23
  0
DICTIONARY
  5
13C
100
AcDbDictionary
281
1
  3
DIMASSOC
350
13F
  3
HIDETEXT
350
13E
  0
DICTIONARYVAR
  5
13E
100
DictionaryVariables
280
0
  1
2
  0
DICTIONARYVAR
  5
13F
100
DictionaryVariables
280
0
  1
1
  0
DICTIONARY
  5
13D
100
AcDbDictionary
281
1
  3
ColorSettings/BackgroundColor
350
140
  3
ColorSettings/ColorMode
350
141
  3
Grid/DisplayGrid00
350
142
  3
Grid/DisplayGrid01
350
143
  3
Grid/DisplayGrid02
350
144
  3
Grid/DisplayGrid03
350
145
  3
Grid/GridSpacingX00
350
146
  3
Grid/GridSpacingX01
350
147
  3
Grid/GridSpacingX02
350
148
  3
Grid/GridSpacingX03
350
149
  3
Grid/GridSpacingY00
350
14A
  3
Grid/GridSpacingY01
350
14B
  3
Grid/GridSpacingY02
350
14C
  3
Grid/GridSpacingY03
350
14D
  3
Grid/IsometricGrid00
350
14E
  3
Grid/IsometricGrid01
350
14F
  3
Grid/IsometricGrid02
350
150
  3
Grid/IsometricGrid03
350
151
  3
Grid/IsometricProjection00
350
152
  3
Grid/IsometricProjection01
350
153
  3
Grid/IsometricProjection02
350
154
  3
Grid/IsometricProjection03
350
155
  3
Grid/MetaGridSpacingX00
350
156
  3
Grid/MetaGridSpacingX01
350
157
  3
Grid/MetaGridSpacingX02
350
158
  3
Grid/MetaGridSpacingX03
350
159
  3
Grid/MetaGridSpacingY00
350
15A
  3
Grid/MetaGridSpacingY01
350
15B
  3
Grid/MetaGridSpacingY02
350
15C
  3
Grid/MetaGridSpacingY03
350
15D
  3
MultiPageSettings/Columns
350
15E
  3
MultiPageSettings/GlueMarginsBottom
350
15F
  3
MultiPageSettings/GlueMarginsLeft
350
160
  3
MultiPageSettings/GlueMarginsRight
350
161
  3
MultiPageSettings/GlueMarginsTop
350
162
  3
MultiPageSettings/PrintCropMarks
350
163
  3
MultiPageSettings/Rows
350
164
  3
PageSettings/OffsetX
350
165
  3
PageSettings/OffsetY
350
166
  3
PageSettings/PageOrientation
350
167
  3
PageSettings/PaperHeight
350
168
  3
PageSettings/PaperWidth
350
169
  3
PageSettings/Scale
350
16A
  3
PageSettings/ShowPaperBorders
350
16B
  3
QCADVersion
350
16C
  3
UnitSettings/PaperUnit
350
16D
  3
ViewportCenter
350
16E
  3
ViewportHeight
350
16F
  3
ViewportWidth
350
170
  0
XRECORD
  5
140
330
13D
100
AcDbXrecord
280
1
1000
White
  0
XRECORD
  5
141
330
13D
100
AcDbXrecord
280
1
1000
FullColor
  0
XRECORD
  5
142
330
13D
100
AcDbXrecord
280
1
290
1
  0
XRECORD
  5
143
330
13D
100
AcDbXrecord
280
1
290
1
  0
XRECORD
  5
144
330
13D
100
AcDbXrecord
280
1
290
1
  0
XRECORD
  5
145
330
13D
100
AcDbXrecord
280
1
290
1
  0
XRECORD
  5
146
330
13D
100
AcDbXrecord
280
1
1000
auto
  0
XRECORD
  5
147
330
13D
100
AcDbXrecord
280
1
1000
auto
  0
XRECORD
  5
148
330
13D
100
AcDbXrecord
280
1
1000
auto
  0
XRECORD
  5
149
330
13D
100
AcDbXrecord
280
1
1000
auto
  0
XRECORD
  5
14A
330
13D
100
AcDbXrecord
280
1
1000
auto
  0
XRECORD
  5
14B
330
13D
100
AcDbXrecord
280
1
1000
auto
  0
XRECORD
  5
14C
330
13D
100
AcDbXrecord
280
1
1000
auto
  0
XRECORD
  5
14D
330
13D
100
AcDbXrecord
280
1
1000
auto
  0
XRECORD
  5
14E
330
13D
100
AcDbXrecord
280
1
290
0
  0
XRECORD
  5
14F
330
13D
100
AcDbXrecord
280
1
290
0
  0
XRECORD
  5
150
330
13D
100
AcDbXrecord
280
1
290
0
  0
XRECORD
  5
151
330
13D
100
AcDbXrecord
280
1
290
0
  0
XRECORD
  5
152
330
13D
100
AcDbXrecord
280
1
 90
65537
  0
XRECORD
  5
153
330
13D
100
AcDbXrecord
280
1
 90
65537
  0
XRECORD
  5
154
330
13D
100
AcDbXrecord
280
1
 90
65537
  0
XRECORD
  5
155
330
13D
100
AcDbXrecord
280
1
 90
65537
  0
XRECORD
  5
156
330
13D
100
AcDbXrecord
280
1
1000
auto
  0
XRECORD
  5
157
330
13D
100
AcDbXrecord
280
1
1000
auto
  0
XRECORD
  5
158
330
13D
100
AcDbXrecord
280
1
1000
auto
  0
XRECORD
  5
159
330
13D
100
AcDbXrecord
280
1
1000
auto
  0
XRECORD
  5
15A
330
13D
100
AcDbXrecord
280
1
1000
auto
  0
XRECORD
  5
15B
330
13D
100
AcDbXrecord
280
1
1000
auto
  0
XRECORD
  5
15C
330
13D
100
AcDbXrecord
280
1
1000
auto
  0
XRECORD
  5
15D
330
13D
100
AcDbXrecord
280
1
1000
auto
  0
XRECORD
  5
15E
330
13D
100
AcDbXrecord
280
1
 90
1
  0
XRECORD
  5
15F
330
13D
100
AcDbXrecord
280
1
 40
10.0
  0
XRECORD
  5
160
330
13D
100
AcDbXrecord
280
1
 40
10.0
  0
XRECORD
  5
161
330
13D
100
AcDbXrecord
280
1
 40
10.0
  0
XRECORD
  5
162
330
13D
100
AcDbXrecord
280
1
 40
10.0
  0
XRECORD
  5
163
330
13D
100
AcDbXrecord
280
1
290
0
  0
XRECORD
  5
164
330
13D
100
AcDbXrecord
280
1
 90
1
  0
XRECORD
  5
165
330
13D
100
AcDbXrecord
280
1
 40
0.0
  0
XRECORD
  5
166
330
13D
100
AcDbXrecord
280
1
 40
0.0
  0
XRECORD
  5
167
330
13D
100
AcDbXrecord
280
1
1000
Portrait
  0
XRECORD
  5
168
330
13D
100
AcDbXrecord
280
1
 40
279.39999999999998
  0
XRECORD
  5
169
330
13D
100
AcDbXrecord
280
1
 40
215.90000000000001
  0
XRECORD
  5
16A
330
13D
100
AcDbXrecord
280
1
1000
1:1
  0
XRECORD
  5
16B
330
13D
100
AcDbXrecord
280
1
290
1
  0
XRECORD
  5
16C
330
13D
100
AcDbXrecord
280
1
1000
3.23.0
  0
XRECORD
  5
16D
330
13D
100
AcDbXrecord
280
1
 90
4
  0
XRECORD
  5
16F
330
13D
100
AcDbXrecord
280
1
 40
106.35232127987513
  0
XRECORD
  5
170
330
13D
100
AcDbXrecord
280
1
 40
205.22112333572659
  0
ENDSEC
  0
EOF
