999
dxflib 3.17.0.0
  0
SECTION
  2
HEADER
  9
$ACADVER
  1
AC1015
  9
$HANDSEED
  5
FFFF
  9
$DIMADEC
 70
0
  9
$DIMASZ
 40
2.5
  9
$DIMAUNIT
 70
0
  9
$DIMAZIN
 70
2
  9
$DIMDEC
 70
4
  9
$DIMDLI
 40
5.0
  9
$DIMDSEP
 70
46
  9
$DIMEXE
 40
1.25
  9
$DIMEXO
 40
0.625
  9
$DIMGAP
 40
0.625
  9
$DIMLUNIT
 70
2
  9
$DIMSCALE
 40
1.0
  9
$DIMTSZ
 40
0.0
  9
$DIMTXT
 40
2.5
  9
$DIMZIN
 70
8
  9
$DWGCODEPAGE
  3
ANSI_1252
  9
$INSUNITS
 70
4
  9
$LTSCALE
 40
1.0
  9
$MAXACTVP
 70
64
  9
$MEASUREMENT
 70
1
  9
$PDMODE
 70
0
  9
$PDSIZE
 40
0.0
  0
ENDSEC
  0
SECTION
  2
TABLES
  0
TABLE
  2
VPORT
  5
8
100
AcDbSymbolTable
 70
1
  0
VPORT
  5
30
100
AcDbSymbolTableRecord
100
AcDbViewportTableRecord
  2
*Active
 70
0
 10
0.0
 20
0.0
 11
1.0
 21
1.0
 12
286.30555555555549
 22
148.5
 13
0.0
 23
0.0
 14
10.0
 24
10.0
 15
10.0
 25
10.0
 16
0.0
 26
0.0
 36
1.0
 17
0.0
 27
0.0
 37
0.0
 40
297.0
 41
1.92798353909465
 42
50.0
 43
0.0
 44
0.0
 50
0.0
 51
0.0
 71
0
 72
100
 73
1
 74
3
 75
1
 76
1
 77
0
 78
0
281
0
 65
1
110
0.0
120
0.0
130
0.0
111
1.0
121
0.0
131
0.0
112
0.0
122
1.0
132
0.0
 79
0
146
0.0
  0
ENDTAB
  0
TABLE
  2
LTYPE
  5
5
100
AcDbSymbolTable
 70
41
  0
LTYPE
  5
16
100
AcDbSymbolTableRecord
100
AcDbLinetypeTableRecord
  2
Continuous
 70
0
  3
Solid line
 72
65
 73
0
 40
0.0
  0
LTYPE
  5
31
100
AcDbSymbolTableRecord
100
AcDbLinetypeTableRecord
  2
CENTER
 70
0
  3
Center ____ _ ____ _ ____ _ ____ _ ____ _ ____
 72
65
 73
4
 40
50.800000000000004
 49
31.75
 74
0
 49
-6.3499999999999996
 74
0
 49
6.3499999999999996
 74
0
 49
-6.3499999999999996
 74
0
  0
LTYPE
  5
32
100
AcDbSymbolTableRecord
100
AcDbLinetypeTableRecord
  2
ACAD_ISO15W100
 70
0
  3
ISO double-dash triple-dot __ __ . . . __ __ . .
 72
65
 73
10
 40
39.000000000000007
 49
12.0
 74
0
 49
-3.0
 74
0
 49
12.0
 74
0
 49
-2.9500000000000002
 74
0
 49
0.1
 74
0
 49
-2.9000000000000004
 74
0
 49
0.1
 74
0
 49
-2.9000000000000004
 74
0
 49
0.1
 74
0
 49
-2.9500000000000002
 74
0
  0
LTYPE
  5
33
100
AcDbSymbolTableRecord
100
AcDbLinetypeTableRecord
  2
HIDDEN
 70
0
  3
Hidden __ __ __ __ __ __ __ __ __ __ __ __ __ __
 72
65
 73
2
 40
9.5249999999999986
 49
6.3499999999999996
 74
0
 49
-3.1749999999999998
 74
0
  0
LTYPE
  5
14
100
AcDbSymbolTableRecord
100
AcDbLinetypeTableRecord
  2
BYBLOCK
 70
0
  3

 72
65
 73
0
 40
0.0
  0
LTYPE
  5
34
100
AcDbSymbolTableRecord
100
AcDbLinetypeTableRecord
  2
PHANTOM2
 70
0
  3
Phantom (.5x) ___ _ _ ___ _ _ ___ _ _ ___ _ _
 72
65
 73
6
 40
31.750000000000004
 49
15.875
 74
0
 49
-3.1749999999999998
 74
0
 49
3.1749999999999998
 74
0
 49
-3.1749999999999998
 74
0
 49
3.1749999999999998
 74
0
 49
-3.1749999999999998
 74
0
  0
LTYPE
  5
35
100
AcDbSymbolTableRecord
100
AcDbLinetypeTableRecord
  2
ACAD_ISO10W100
 70
0
  3
ISO dash dot __ . __ . __ . __ . __ . __ . __ . 
 72
65
 73
4
 40
18.0
 49
12.0
 74
0
 49
-2.9500000000000002
 74
0
 49
0.1
 74
0
 49
-2.9500000000000002
 74
0
  0
LTYPE
  5
36
100
AcDbSymbolTableRecord
100
AcDbLinetypeTableRecord
  2
ACAD_ISO08W100
 70
0
  3
ISO long-dash short-dash ____ __ ____ __ ____ _
 72
65
 73
4
 40
36.0
 49
24.0
 74
0
 49
-3.0
 74
0
 49
6.0
 74
0
 49
-3.0
 74
0
  0
LTYPE
  5
37
100
AcDbSymbolTableRecord
100
AcDbLinetypeTableRecord
  2
DASHDOT
 70
0
  3
Dash dot __ . __ . __ . __ . __ . __ . __ . __
 72
65
 73
4
 40
25.400000000000002
 49
12.699999999999999
 74
0
 49
-6.2999999999999998
 74
0
 49
0.1
 74
0
 49
-6.2999999999999998
 74
0
  0
LTYPE
  5
38
100
AcDbSymbolTableRecord
100
AcDbLinetypeTableRecord
  2
DASHED2
 70
0
  3
Dashed (.5x) _ _ _ _ _ _ _ _ _ _ _ _ _ _ _ _ _ 
 72
65
 73
2
 40
9.5249999999999986
 49
6.3499999999999996
 74
0
 49
-3.1749999999999998
 74
0
  0
LTYPE
  5
39
100
AcDbSymbolTableRecord
100
AcDbLinetypeTableRecord
  2
DIVIDE
 70
0
  3
Divide ____ . . ____ . . ____ . . ____ . . ____
 72
65
 73
6
 40
31.750000000000004
 49
12.699999999999999
 74
0
 49
-6.2999999999999998
 74
0
 49
0.1
 74
0
 49
-6.25
 74
0
 49
0.1
 74
0
 49
-6.2999999999999998
 74
0
  0
LTYPE
  5
3A
100
AcDbSymbolTableRecord
100
AcDbLinetypeTableRecord
  2
ACAD_ISO06W100
 70
0
  3
ISO long-dash triple-dot ____ ... ____ ... ____
 72
65
 73
8
 40
36.000000000000007
 49
24.0
 74
0
 49
-2.9500000000000002
 74
0
 49
0.1
 74
0
 49
-2.9000000000000004
 74
0
 49
0.1
 74
0
 49
-2.9000000000000004
 74
0
 49
0.1
 74
0
 49
-2.9500000000000002
 74
0
  0
LTYPE
  5
3B
100
AcDbSymbolTableRecord
100
AcDbLinetypeTableRecord
  2
DIVIDEX2
 70
0
  3
Divide (2x) ________  .  .  ________  .  .  _
 72
65
 73
6
 40
63.5
 49
25.399999999999999
 74
0
 49
-12.649999999999999
 74
0
 49
0.1
 74
0
 49
-12.599999999999998
 74
0
 49
0.1
 74
0
 49
-12.649999999999999
 74
0
  0
LTYPE
  5
3C
100
AcDbSymbolTableRecord
100
AcDbLinetypeTableRecord
  2
DASHEDX2
 70
0
  3
Dashed (2x) ____  ____  ____  ____  ____  ___
 72
65
 73
2
 40
38.099999999999994
 49
25.399999999999999
 74
0
 49
-12.699999999999999
 74
0
  0
LTYPE
  5
3D
100
AcDbSymbolTableRecord
100
AcDbLinetypeTableRecord
  2
ACAD_ISO05W100
 70
0
  3
ISO long-dash double-dot ____ .. ____ .. ____ . 
 72
65
 73
6
 40
33.000000000000007
 49
24.0
 74
0
 49
-2.9500000000000002
 74
0
 49
0.1
 74
0
 49
-2.9000000000000004
 74
0
 49
0.1
 74
0
 49
-2.9500000000000002
 74
0
  0
LTYPE
  5
3E
100
AcDbSymbolTableRecord
100
AcDbLinetypeTableRecord
  2
ACAD_ISO02W100
 70
0
  3
ISO dash __ __ __ __ __ __ __ __ __ __ __ __ __
 72
65
 73
2
 40
15.0
 49
12.0
 74
0
 49
-3.0
 74
0
  0
LTYPE
  5
3F
100
AcDbSymbolTableRecord
100
AcDbLinetypeTableRecord
  2
ACAD_ISO07W100
 70
0
  3
ISO dot . . . . . . . . . . . . . . . . . . . . 
 72
65
 73
2
 40
3.0
 49
0.1
 74
0
 49
-2.8999999999999999
 74
0
  0
LTYPE
  5
40
100
AcDbSymbolTableRecord
100
AcDbLinetypeTableRecord
  2
ACAD_ISO14W100
 70
0
  3
ISO dash triple-dot __ . . . __ . . . __ . . . _
 72
65
 73
8
 40
24.000000000000004
 49
12.0
 74
0
 49
-2.9500000000000002
 74
0
 49
0.1
 74
0
 49
-2.9000000000000004
 74
0
 49
0.1
 74
0
 49
-2.9000000000000004
 74
0
 49
0.1
 74
0
 49
-2.9500000000000002
 74
0
  0
LTYPE
  5
41
100
AcDbSymbolTableRecord
100
AcDbLinetypeTableRecord
  2
ACAD_ISO04W100
 70
0
  3
ISO long-dash dot ____ . ____ . ____ . ____ . _
 72
65
 73
4
 40
30.0
 49
24.0
 74
0
 49
-2.9500000000000002
 74
0
 49
0.1
 74
0
 49
-2.9500000000000002
 74
0
  0
LTYPE
  5
42
100
AcDbSymbolTableRecord
100
AcDbLinetypeTableRecord
  2
PHANTOM
 70
0
  3
Phantom ______  __  __  ______  __  __  ______ 
 72
65
 73
6
 40
63.500000000000007
 49
31.75
 74
0
 49
-6.3499999999999996
 74
0
 49
6.3499999999999996
 74
0
 49
-6.3499999999999996
 74
0
 49
6.3499999999999996
 74
0
 49
-6.3499999999999996
 74
0
  0
LTYPE
  5
43
100
AcDbSymbolTableRecord
100
AcDbLinetypeTableRecord
  2
DASHDOTX2
 70
0
  3
Dash dot (2x) ____  .  ____  .  ____  .  ___
 72
65
 73
4
 40
50.799999999999997
 49
25.399999999999999
 74
0
 49
-12.649999999999999
 74
0
 49
0.1
 74
0
 49
-12.649999999999999
 74
0
  0
LTYPE
  5
44
100
AcDbSymbolTableRecord
100
AcDbLinetypeTableRecord
  2
DOTX2
 70
0
  3
Dot (2x) .  .  .  .  .  .  .  .  .  .  .  .  .  .
 72
65
 73
2
 40
12.699999999999999
 49
0.1
 74
0
 49
-12.6
 74
0
  0
LTYPE
  5
45
100
AcDbSymbolTableRecord
100
AcDbLinetypeTableRecord
  2
CENTER2
 70
0
  3
Center (.5x) ___ _ ___ _ ___ _ ___ _ ___ _ ___
 72
65
 73
4
 40
28.575000000000003
 49
19.050000000000001
 74
0
 49
-3.1749999999999998
 74
0
 49
3.1749999999999998
 74
0
 49
-3.1749999999999998
 74
0
  0
LTYPE
  5
46
100
AcDbSymbolTableRecord
100
AcDbLinetypeTableRecord
  2
BORDER
 70
0
  3
Border __ __ . __ __ . __ __ . __ __ . __ __ .
 72
65
 73
6
 40
44.449999999999996
 49
12.699999999999999
 74
0
 49
-6.3499999999999996
 74
0
 49
12.699999999999999
 74
0
 49
-6.2999999999999998
 74
0
 49
0.1
 74
0
 49
-6.2999999999999998
 74
0
  0
LTYPE
  5
47
100
AcDbSymbolTableRecord
100
AcDbLinetypeTableRecord
  2
DOT
 70
0
  3
Dot . . . . . . . . . . . . . . . . . . . . . . . .
 72
65
 73
2
 40
6.3499999999999996
 49
0.1
 74
0
 49
-6.25
 74
0
  0
LTYPE
  5
48
100
AcDbSymbolTableRecord
100
AcDbLinetypeTableRecord
  2
PHANTOMX2
 70
0
  3
Phantom (2x) ____________    ____    ____   _
 72
65
 73
6
 40
127.00000000000001
 49
63.5
 74
0
 49
-12.699999999999999
 74
0
 49
12.699999999999999
 74
0
 49
-12.699999999999999
 74
0
 49
12.699999999999999
 74
0
 49
-12.699999999999999
 74
0
  0
LTYPE
  5
49
100
AcDbSymbolTableRecord
100
AcDbLinetypeTableRecord
  2
HIDDENX2
 70
0
  3
Hidden (2x) ____ ____ ____ ____ ____ ____ ____ 
 72
65
 73
2
 40
19.049999999999997
 49
12.699999999999999
 74
0
 49
-6.3499999999999996
 74
0
  0
LTYPE
  5
4A
100
AcDbSymbolTableRecord
100
AcDbLinetypeTableRecord
  2
ACAD_ISO11W100
 70
0
  3
ISO double-dash dot __ __ . __ __ . __ __ . __ _
 72
65
 73
6
 40
33.0
 49
12.0
 74
0
 49
-3.0
 74
0
 49
12.0
 74
0
 49
-2.9500000000000002
 74
0
 49
0.1
 74
0
 49
-2.9500000000000002
 74
0
  0
LTYPE
  5
4B
100
AcDbSymbolTableRecord
100
AcDbLinetypeTableRecord
  2
DOT2
 70
0
  3
Dot (.5x) ........................................
 72
65
 73
2
 40
3.1749999999999998
 49
0.1
 74
0
 49
-3.0749999999999997
 74
0
  0
LTYPE
  5
4C
100
AcDbSymbolTableRecord
100
AcDbLinetypeTableRecord
  2
ACAD_ISO13W100
 70
0
  3
ISO double-dash double-dot __ __ . . __ __ . . _
 72
65
 73
8
 40
36.000000000000007
 49
12.0
 74
0
 49
-3.0
 74
0
 49
12.0
 74
0
 49
-2.9500000000000002
 74
0
 49
0.1
 74
0
 49
-2.9000000000000004
 74
0
 49
0.1
 74
0
 49
-2.9500000000000002
 74
0
  0
LTYPE
  5
4D
100
AcDbSymbolTableRecord
100
AcDbLinetypeTableRecord
  2
DIVIDE2
 70
0
  3
Divide (.5x) __..__..__..__..__..__..__..__.._
 72
65
 73
6
 40
15.874999999999998
 49
6.3499999999999996
 74
0
 49
-3.125
 74
0
 49
0.1
 74
0
 49
-3.0750000000000002
 74
0
 49
0.1
 74
0
 49
-3.125
 74
0
  0
LTYPE
  5
4E
100
AcDbSymbolTableRecord
100
AcDbLinetypeTableRecord
  2
DASHDOT2
 70
0
  3
Dash dot (.5x) _._._._._._._._._._._._._._._.
 72
65
 73
4
 40
12.699999999999999
 49
6.3499999999999996
 74
0
 49
-3.125
 74
0
 49
0.1
 74
0
 49
-3.125
 74
0
  0
LTYPE
  5
4F
100
AcDbSymbolTableRecord
100
AcDbLinetypeTableRecord
  2
BORDERX2
 70
0
  3
Border (2x) ____  ____  .  ____  ____  .  ___
 72
65
 73
6
 40
88.899999999999977
 49
25.399999999999999
 74
0
 49
-12.699999999999999
 74
0
 49
25.399999999999999
 74
0
 49
-12.649999999999999
 74
0
 49
0.1
 74
0
 49
-12.649999999999999
 74
0
  0
LTYPE
  5
50
100
AcDbSymbolTableRecord
100
AcDbLinetypeTableRecord
  2
HIDDEN2
 70
0
  3
Hidden (.5x) _ _ _ _ _ _ _ _ _ _ _ _ _ _ _ _ _ 
 72
65
 73
2
 40
4.7624999999999993
 49
3.1749999999999998
 74
0
 49
-1.5874999999999999
 74
0
  0
LTYPE
  5
51
100
AcDbSymbolTableRecord
100
AcDbLinetypeTableRecord
  2
ACAD_ISO03W100
 70
0
  3
ISO dash space __    __    __    __    __    __
 72
65
 73
2
 40
30.0
 49
12.0
 74
0
 49
-18.0
 74
0
  0
LTYPE
  5
52
100
AcDbSymbolTableRecord
100
AcDbLinetypeTableRecord
  2
ACAD_ISO09W100
 70
0
  3
ISO long-dash double-short-dash ____ __ __ ____
 72
65
 73
6
 40
45.0
 49
24.0
 74
0
 49
-3.0
 74
0
 49
6.0
 74
0
 49
-3.0
 74
0
 49
6.0
 74
0
 49
-3.0
 74
0
  0
LTYPE
  5
53
100
AcDbSymbolTableRecord
100
AcDbLinetypeTableRecord
  2
BORDER2
 70
0
  3
Border (.5x) __.__.__.__.__.__.__.__.__.__.__.
 72
65
 73
6
 40
22.225000000000001
 49
6.3499999999999996
 74
0
 49
-3.1749999999999998
 74
0
 49
6.3499999999999996
 74
0
 49
-3.125
 74
0
 49
0.1
 74
0
 49
-3.125
 74
0
  0
LTYPE
  5
54
100
AcDbSymbolTableRecord
100
AcDbLinetypeTableRecord
  2
ACAD_ISO12W100
 70
0
  3
ISO dash double-dot __ . . __ . . __ . . __ . . 
 72
65
 73
6
 40
21.0
 49
12.0
 74
0
 49
-2.9500000000000002
 74
0
 49
0.1
 74
0
 49
-2.9000000000000004
 74
0
 49
0.1
 74
0
 49
-2.9500000000000002
 74
0
  0
LTYPE
  5
55
100
AcDbSymbolTableRecord
100
AcDbLinetypeTableRecord
  2
CENTERX2
 70
0
  3
Center (2x) ________  __  ________  __  _____
 72
65
 73
4
 40
101.60000000000001
 49
63.5
 74
0
 49
-12.699999999999999
 74
0
 49
12.699999999999999
 74
0
 49
-12.699999999999999
 74
0
  0
LTYPE
  5
56
100
AcDbSymbolTableRecord
100
AcDbLinetypeTableRecord
  2
DASHED
 70
0
  3
Dashed __ __ __ __ __ __ __ __ __ __ __ __ __ _
 72
65
 73
2
 40
19.049999999999997
 49
12.699999999999999
 74
0
 49
-6.3499999999999996
 74
0
  0
LTYPE
  5
15
100
AcDbSymbolTableRecord
100
AcDbLinetypeTableRecord
  2
BYLAYER
 70
0
  3

 72
65
 73
0
 40
0.0
  0
ENDTAB
  0
TABLE
  2
LAYER
  5
2
100
AcDbSymbolTable
 70
1
  0
LAYER
  5
10
100
AcDbSymbolTableRecord
100
AcDbLayerTableRecord
  2
0
 70
0
 62
7
420
16777215
  6
Continuous
370
25
390
F
  0
ENDTAB
  0
TABLE
  2
STYLE
  5
3
100
AcDbSymbolTable
 70
5
  0
STYLE
  5
57
100
AcDbSymbolTableRecord
100
AcDbTextStyleTableRecord
  2
Standard
 70
0
 40
0.0
 41
1.0
 50
0.0
 71
0
 42
2.5
  3

  4

1001
ACAD
1000
txt
1071
0
  0
STYLE
  5
58
100
AcDbSymbolTableRecord
100
AcDbTextStyleTableRecord
  2
textstyle0
 70
0
 40
0.0
 41
1.0
 50
0.0
 71
0
 42
1.0
  3

  4

1001
ACAD
1000
Arial
1071
33554432
  0
STYLE
  5
59
100
AcDbSymbolTableRecord
100
AcDbTextStyleTableRecord
  2
textstyle1
 70
0
 40
0.0
 41
1.0
 50
0.0
 71
0
 42
1.0
  3

  4

1001
ACAD
1000
Arial
1071
33554432
  0
STYLE
  5
5A
100
AcDbSymbolTableRecord
100
AcDbTextStyleTableRecord
  2
textstyle2
 70
0
 40
0.0
 41
1.0
 50
0.0
 71
0
 42
1.0
  3

  4

1001
ACAD
1000
Arial
1071
33554432
  0
STYLE
  5
5B
100
AcDbSymbolTableRecord
100
AcDbTextStyleTableRecord
  2
textstyle3
 70
0
 40
0.0
 41
1.0
 50
0.0
 71
0
 42
1.0
  3

  4

1001
ACAD
1000
Arial
1071
33554432
  0
ENDTAB
  0
TABLE
  2
VIEW
  5
6
100
AcDbSymbolTable
 70
0
  0
ENDTAB
  0
TABLE
  2
UCS
  5
7
100
AcDbSymbolTable
 70
0
  0
ENDTAB
  0
TABLE
  2
APPID
  5
9
100
AcDbSymbolTable
 70
1
  0
APPID
  5
12
100
AcDbSymbolTableRecord
100
AcDbRegAppTableRecord
  2
ACAD
 70
0
  0
APPID
  5
5C
100
AcDbSymbolTableRecord
100
AcDbRegAppTableRecord
  2
QCAD
 70
0
  0
ENDTAB
  0
TABLE
  2
DIMSTYLE
  5
A
100
AcDbSymbolTable
 70
1
100
AcDbDimStyleTable
 71
0
  0
DIMSTYLE
105
27
100
AcDbSymbolTableRecord
100
AcDbDimStyleTableRecord
  2
Standard
 41
2.5
 42
0.625
 43
3.75
 44
1.25
 70
0
 73
0
 74
0
 77
1
 78
8
140
2.5
141
2.5
143
0.03937007874016
147
0.625
171
3
172
1
271
2
272
2
274
3
278
44
283
0
284
8
340
57
  0
ENDTAB
  0
TABLE
  2
BLOCK_RECORD
  5
1
100
AcDbSymbolTable
 70
1
  0
BLOCK_RECORD
  5
1F
100
AcDbSymbolTableRecord
100
AcDbBlockTableRecord
  2
*Model_Space
340
22
  0
BLOCK_RECORD
  5
1B
100
AcDbSymbolTableRecord
100
AcDbBlockTableRecord
  2
*Paper_Space
340
1E
  0
BLOCK_RECORD
  5
23
100
AcDbSymbolTableRecord
100
AcDbBlockTableRecord
  2
*Paper_Space0
340
26
  0
BLOCK_RECORD
  5
5D
100
AcDbSymbolTableRecord
100
AcDbBlockTableRecord
  2
triangle
340
0
  0
BLOCK_RECORD
  5
5E
100
AcDbSymbolTableRecord
100
AcDbBlockTableRecord
  2
basehalf
340
0
  0
ENDTAB
  0
ENDSEC
  0
SECTION
  2
BLOCKS
  0
BLOCK
  5
20
100
AcDbEntity
  8
0
100
AcDbBlockBegin
  2
*Model_Space
 70
0
 10
0.0
 20
0.0
 30
0.0
  3
*Model_Space
  1

  0
ENDBLK
  5
21
100
AcDbEntity
  8
0
100
AcDbBlockEnd
  0
BLOCK
  5
1C
100
AcDbEntity
 67
1
  8
0
100
AcDbBlockBegin
  2
*Paper_Space
 70
0
 10
0.0
 20
0.0
 30
0.0
  3
*Paper_Space
  1

  0
ENDBLK
  5
1D
100
AcDbEntity
 67
1
  8
0
100
AcDbBlockEnd
  0
BLOCK
  5
24
100
AcDbEntity
  8
0
100
AcDbBlockBegin
  2
*Paper_Space0
 70
0
 10
0.0
 20
0.0
 30
0.0
  3
*Paper_Space0
  1

  0
ENDBLK
  5
25
100
AcDbEntity
  8
0
100
AcDbBlockEnd
  0
BLOCK
  5
5F
100
AcDbEntity
  8
0
100
AcDbBlockBegin
  2
triangle
 70
0
 10
0.0
 20
0.0
 30
0.0
  3
triangle
  1

  0
LINE
  5
60
100
AcDbEntity
  8
0
 62
256
370
-1
 48
1.0
  6
BYLAYER
100
AcDbLine
 10
0.0
 20
-2.3094010767584479
 30
0.0
 11
0.0000000000001137
 21
2.3094010767584479
 31
0.0
  0
ARC
  5
61
100
AcDbEntity
  8
0
 62
256
370
-1
 48
1.0
  6
BYLAYER
100
AcDbCircle
 10
-1.9999999999998863
 20
2.3094010767584479
 30
0.0
 40
2.0
100
AcDbArc
 50
360.0
 51
120.00000000000065
  0
LINE
  5
62
100
AcDbEntity
  8
0
 62
256
370
-1
 48
1.0
  6
BYLAYER
100
AcDbLine
 10
-2.9999999999998863
 20
4.0414518843273122
 30
0.0
 11
-6.9999999999998863
 21
1.7320508075688359
 31
0.0
  0
ARC
  5
63
100
AcDbEntity
  8
0
 62
256
370
-1
 48
1.0
  6
BYLAYER
100
AcDbCircle
 10
-5.9999999999998863
 20
-0.0000000000000284
 30
0.0
 40
2.0
100
AcDbArc
 50
120.00000000000075
 51
239.99999999999932
  0
LINE
  5
64
100
AcDbEntity
  8
0
 62
256
370
-1
 48
1.0
  6
BYLAYER
100
AcDbLine
 10
-6.9999999999998863
 20
-1.7320508075688927
 30
0.0
 11
-3.0
 21
-4.0414518843273157
 31
0.0
  0
ARC
  5
65
100
AcDbEntity
  8
0
 62
256
370
-1
 48
1.0
  6
BYLAYER
100
AcDbCircle
 10
-2.0
 20
-2.3094010767584479
 30
0.0
 40
2.0
100
AcDbArc
 50
239.99999999999963
 51
360.0
  0
ENDBLK
  5
66
100
AcDbEntity
  8
0
100
AcDbBlockEnd
  0
BLOCK
  5
67
100
AcDbEntity
  8
0
100
AcDbBlockBegin
  2
basehalf
 70
0
 10
0.0
 20
0.0
 30
0.0
  3
basehalf
  1

  0
CIRCLE
  5
68
100
AcDbEntity
  8
0
 62
256
370
-1
 48
1.0
  6
BYLAYER
100
AcDbCircle
 10
-16.127073000000053
 20
-10.897185640522252
 30
0.0
 40
1.4750000000000001
  0
CIRCLE
  5
69
100
AcDbEntity
  8
0
 62
256
370
-1
 48
1.0
  6
BYLAYER
100
AcDbCircle
 10
-6.8180194846606241
 20
-20.206239125182833
 30
0.0
 40
1.4750000000000001
  0
CIRCLE
  5
6A
100
AcDbEntity
  8
0
 62
256
370
-1
 48
1.0
  6
BYLAYER
100
AcDbCircle
 10
-16.127073000000053
 20
-83.022770695591987
 30
0.0
 40
1.4750000000000001
  0
CIRCLE
  5
6B
100
AcDbEntity
  8
0
 62
256
370
-1
 48
1.0
  6
BYLAYER
100
AcDbCircle
 10
-6.8180194846606241
 20
-73.713717210931406
 30
0.0
 40
1.4750000000000001
  0
LINE
  5
6C
100
AcDbEntity
  8
0
 62
256
370
-1
 48
1.0
  6
BYLAYER
100
AcDbLine
 10
-7.0
 20
-59.247465417451117
 30
0.0
 11
-6.9999999999999982
 21
-34.672490918663136
 31
0.0
  0
ARC
  5
6D
100
AcDbEntity
  8
0
 62
256
370
-1
 48
1.0
  6
BYLAYER
100
AcDbCircle
 10
-16.127073000000053
 20
-83.022770695591987
 30
0.0
 40
4.5
100
AcDbArc
 50
135.00000000000006
 51
301.02583569582328
  0
ARC
  5
6E
100
AcDbEntity
  8
0
 62
256
370
-1
 48
1.0
  6
BYLAYER
100
AcDbCircle
 10
-16.127073000000053
 20
-10.897185640522252
 30
0.0
 40
4.5
100
AcDbArc
 50
131.48493026511932
 51
225.0
  0
LINE
  5
6F
100
AcDbEntity
  8
0
 62
256
370
-1
 48
1.0
  6
BYLAYER
100
AcDbLine
 10
-19.309053515339517
 20
-79.840790180252526
 30
0.0
 11
-12.857864376269056
 21
-73.389601041182061
 31
0.0
  0
ARC
  5
70
100
AcDbEntity
  8
0
 62
256
370
-1
 48
1.0
  6
BYLAYER
100
AcDbCircle
 10
-27.0
 20
-59.247465417451117
 30
0.0
 40
20.0
100
AcDbArc
 50
315.0
 51
0.0
  0
LINE
  5
71
100
AcDbEntity
  8
0
 62
256
370
-1
 48
1.0
  6
BYLAYER
100
AcDbLine
 10
-19.309053515339517
 20
-14.079166155861717
 30
0.0
 11
-12.857864376269045
 21
-20.530355294932193
 31
0.0
  0
ARC
  5
72
100
AcDbEntity
  8
0
 62
256
370
-1
 48
1.0
  6
BYLAYER
100
AcDbCircle
 10
-27.0
 20
-34.672490918663136
 30
0.0
 40
20.0
100
AcDbArc
 50
0.0
 51
44.999999999999972
  0
ARC
  5
73
100
AcDbEntity
  8
0
 62
256
370
-1
 48
1.0
  6
BYLAYER
100
AcDbCircle
 10
0.7647144586240575
 20
-30.0
 30
0.0
 40
30.0
100
AcDbArc
 50
91.460180830533943
 51
131.48493026511932
  0
ARC
  5
74
100
AcDbEntity
  8
0
 62
256
370
-1
 48
1.0
  6
BYLAYER
100
AcDbCircle
 10
-0.9220492274082094
 20
-108.30235241829691
 30
0.0
 40
25.0
100
AcDbArc
 50
87.886339450927835
 51
121.02583569582323
  0
ENDBLK
  5
75
100
AcDbEntity
  8
0
100
AcDbBlockEnd
  0
ENDSEC
  0
SECTION
  2
ENTITIES
  0
CIRCLE
  5
76
100
AcDbEntity
  8
0
 62
256
370
-1
 48
1.0
  6
BYLAYER
100
AcDbCircle
 10
10.000000000000057
 20
-13.999999999999936
 30
0.0
 40
1.5
  0
CIRCLE
  5
77
100
AcDbEntity
  8
0
 62
256
370
-1
 48
1.0
  6
BYLAYER
100
AcDbCircle
 10
-9.9999999999999432
 20
-13.999999999999936
 30
0.0
 40
1.5
  0
CIRCLE
  5
78
100
AcDbEntity
  8
0
 62
256
370
-1
 48
1.0
  6
BYLAYER
100
AcDbCircle
 10
10.000000000000057
 20
6.0000000000000639
 30
0.0
 40
1.5
  0
CIRCLE
  5
79
100
AcDbEntity
  8
0
 62
256
370
-1
 48
1.0
  6
BYLAYER
100
AcDbCircle
 10
-9.9999999999999432
 20
6.0000000000000639
 30
0.0
 40
1.5
  0
CIRCLE
  5
7A
100
AcDbEntity
  8
0
 62
256
370
-1
 48
1.0
  6
BYLAYER
100
AcDbCircle
 10
15.252293270193888
 20
11.252293270193769
 30
0.0
 40
1.5
  0
CIRCLE
  5
7B
100
AcDbEntity
  8
0
 62
256
370
-1
 48
1.0
  6
BYLAYER
100
AcDbCircle
 10
-15.252293270193775
 20
11.252293270193761
 30
0.0
 40
1.5
  0
CIRCLE
  5
7C
100
AcDbEntity
  8
0
 62
256
370
-1
 48
1.0
  6
BYLAYER
100
AcDbCircle
 10
6.8180194846607378
 20
-24.253739042874308
 30
0.0
 40
2.25
  0
CIRCLE
  5
7D
100
AcDbEntity
  8
0
 62
256
370
-1
 48
1.0
  6
BYLAYER
100
AcDbCircle
 10
-16.127072999999996
 20
33.562792527534846
 30
0.0
 40
1.5
  0
CIRCLE
  5
7E
100
AcDbEntity
  8
0
 62
256
370
-1
 48
1.0
  6
BYLAYER
100
AcDbCircle
 10
-6.8180194846605673
 20
24.253739042874265
 30
0.0
 40
2.25
  0
CIRCLE
  5
7F
100
AcDbEntity
  8
0
 62
256
370
-1
 48
1.0
  6
BYLAYER
100
AcDbCircle
 10
-16.127073000000053
 20
-33.562792527534889
 30
0.0
 40
1.5
  0
CIRCLE
  5
80
100
AcDbEntity
  8
0
 62
256
370
-1
 48
1.0
  6
BYLAYER
100
AcDbCircle
 10
-6.8180194846606241
 20
-24.253739042874308
 30
0.0
 40
2.25
  0
CIRCLE
  5
81
100
AcDbEntity
  8
0
 62
7
420
16777215
370
25
 48
1.0
  6
Continuous
100
AcDbCircle
 10
60.509794067526371
 20
-85.895513531140438
 30
0.0
 40
1.3999999999999999
  0
CIRCLE
  5
82
100
AcDbEntity
  8
0
 62
7
420
16777215
370
25
 48
1.0
  6
Continuous
100
AcDbCircle
 10
60.509794067526315
 20
85.895513531140452
 30
0.0
 40
1.3999999999999999
  0
CIRCLE
  5
83
100
AcDbEntity
  8
0
 62
256
370
-1
 48
1.0
  6
BYLAYER
100
AcDbCircle
 10
16.127072999999996
 20
33.562792527534896
 30
0.0
 40
1.5
  0
CIRCLE
  5
84
100
AcDbEntity
  8
0
 62
7
420
16777215
370
25
 48
1.0
  6
Continuous
100
AcDbCircle
 10
76.509794067526229
 20
-85.895513531140551
 30
0.0
 40
1.3999999999999999
  0
CIRCLE
  5
85
100
AcDbEntity
  8
0
 62
7
420
16777215
370
25
 48
1.0
  6
Continuous
100
AcDbCircle
 10
76.509794067526173
 20
85.895513531140551
 30
0.0
 40
1.3999999999999999
  0
CIRCLE
  5
86
100
AcDbEntity
  8
0
 62
256
370
-1
 48
1.0
  6
BYLAYER
100
AcDbCircle
 10
6.8180194846605673
 20
24.253739042874262
 30
0.0
 40
2.25
  0
CIRCLE
  5
87
100
AcDbEntity
  8
0
 62
7
420
16777215
370
25
 48
1.0
  6
Continuous
100
AcDbCircle
 10
68.50979406752657
 20
-93.895513531140182
 30
0.0
 40
1.3999999999999999
  0
CIRCLE
  5
88
100
AcDbEntity
  8
0
 62
7
420
16777215
370
25
 48
1.0
  6
Continuous
100
AcDbCircle
 10
68.509794067526514
 20
93.895513531140196
 30
0.0
 40
1.3999999999999999
  0
CIRCLE
  5
89
100
AcDbEntity
  8
0
 62
256
370
-1
 48
1.0
  6
BYLAYER
100
AcDbCircle
 10
16.127073000000053
 20
-33.562792527534903
 30
0.0
 40
1.5
  0
CIRCLE
  5
8A
100
AcDbEntity
  8
0
 62
7
420
16777215
370
25
 48
1.0
  6
Continuous
100
AcDbCircle
 10
68.509794067526258
 20
-77.89551353114058
 30
0.0
 40
1.3999999999999999
  0
CIRCLE
  5
8B
100
AcDbEntity
  8
0
 62
7
420
16777215
370
25
 48
1.0
  6
Continuous
100
AcDbCircle
 10
68.509794067526201
 20
77.89551353114058
 30
0.0
 40
1.3999999999999999
  0
CIRCLE
  5
8C
100
AcDbEntity
  8
0
 62
256
370
-1
 48
1.0
  6
BYLAYER
100
AcDbCircle
 10
15.252293270193888
 20
-19.252293270193888
 30
0.0
 40
1.5
  0
CIRCLE
  5
8D
100
AcDbEntity
  8
0
 62
256
370
-1
 48
1.0
  6
BYLAYER
100
AcDbCircle
 10
16.127073000000053
 20
-33.562792527534903
 30
0.0
 40
1.3999999999999999
  0
CIRCLE
  5
8E
100
AcDbEntity
  8
0
 62
256
370
-1
 48
1.0
  6
BYLAYER
100
AcDbCircle
 10
16.127072999999996
 20
33.562792527534896
 30
0.0
 40
1.3999999999999999
  0
CIRCLE
  5
8F
100
AcDbEntity
  8
0
 62
256
370
-1
 48
1.0
  6
BYLAYER
100
AcDbCircle
 10
6.8180194846605673
 20
24.253739042874262
 30
0.0
 40
1.3999999999999999
  0
CIRCLE
  5
90
100
AcDbEntity
  8
0
 62
256
370
-1
 48
1.0
  6
BYLAYER
100
AcDbCircle
 10
6.8180194846607378
 20
-24.253739042874308
 30
0.0
 40
1.3999999999999999
  0
CIRCLE
  5
91
100
AcDbEntity
  8
0
 62
256
370
-1
 48
1.0
  6
BYLAYER
100
AcDbCircle
 10
-15.252293270193775
 20
-19.252293270193881
 30
0.0
 40
1.5
  0
LINE
  5
92
100
AcDbEntity
  8
0
 62
256
370
-1
 48
1.0
  6
BYLAYER
100
AcDbLine
 10
18.252293270193775
 20
11.411282764893356
 30
0.0
 11
18.252293270193775
 21
-16.920700836072648
 31
0.0
  0
CIRCLE
  5
93
100
AcDbEntity
  8
0
 62
256
370
-1
 48
1.0
  6
BYLAYER
100
AcDbCircle
 10
68.509794029791948
 20
-85.945513557326819
 30
0.0
 40
3.5
  0
CIRCLE
  5
94
100
AcDbEntity
  8
0
 62
256
370
-1
 48
1.0
  6
BYLAYER
100
AcDbCircle
 10
68.509794029791863
 20
85.945513557326848
 30
0.0
 40
3.5
  0
LINE
  5
95
100
AcDbEntity
  8
0
 62
256
370
-1
 48
1.0
  6
BYLAYER
100
AcDbLine
 10
-18.252293270193775
 20
11.41128276489331
 30
0.0
 11
-18.252293270193775
 21
-16.920701039928879
 31
0.0
  0
LINE
  5
96
100
AcDbEntity
  8
0
 62
256
370
-1
 48
1.0
  6
BYLAYER
100
AcDbLine
 10
83.792362112373695
 20
-87.806041577153621
 30
0.0
 11
76.186784424655684
 21
-90.805637705575265
 31
0.0
  0
LINE
  5
97
100
AcDbEntity
  8
0
 62
256
370
-1
 48
1.0
  6
BYLAYER
100
AcDbLine
 10
83.792362112373638
 20
87.806041577153636
 30
0.0
 11
76.186784424655627
 21
90.805637705575265
 31
0.0
  0
ARC
  5
98
100
AcDbEntity
  8
0
 62
256
370
-1
 48
1.0
  6
BYLAYER
100
AcDbCircle
 10
16.127072999999996
 20
33.562792527534896
 30
0.0
 40
4.5
100
AcDbArc
 50
347.76181395680044
 51
134.99999999999994
  0
LINE
  5
99
100
AcDbEntity
  8
0
 62
256
370
-1
 48
1.0
  6
BYLAYER
100
AcDbLine
 10
73.369918230412509
 20
-93.62250389981844
 30
0.0
 11
70.370322101990553
 21
-101.22808158753671
 31
0.0
  0
LINE
  5
9A
100
AcDbEntity
  8
0
 62
256
370
-1
 48
1.0
  6
BYLAYER
100
AcDbLine
 10
73.369918230412424
 20
93.622503899818454
 30
0.0
 11
70.370322101990496
 21
101.22808158753671
 31
0.0
  0
ARC
  5
9B
100
AcDbEntity
  8
0
 62
256
370
-1
 48
1.0
  6
BYLAYER
100
AcDbCircle
 10
-16.127072999999996
 20
33.562792527534846
 30
0.0
 40
4.5
100
AcDbArc
 50
45.0
 51
192.23818604320095
  0
LINE
  5
9C
100
AcDbEntity
  8
0
 62
256
370
-1
 48
1.0
  6
BYLAYER
100
AcDbLine
 10
66.649266009965174
 20
-101.22808158753651
 30
0.0
 11
63.471781152136032
 21
-93.171460994923223
 31
0.0
  0
LINE
  5
9D
100
AcDbEntity
  8
0
 62
256
370
-1
 48
1.0
  6
BYLAYER
100
AcDbLine
 10
66.649266009965089
 20
101.22808158753652
 30
0.0
 11
63.471781152135947
 21
93.171460994923237
 31
0.0
  0
ARC
  5
9E
100
AcDbEntity
  8
0
 62
256
370
-1
 48
1.0
  6
BYLAYER
100
AcDbCircle
 10
-16.127073000000053
 20
-33.562792527534889
 30
0.0
 40
4.5
100
AcDbArc
 50
163.75775809427572
 51
284.63702345537558
  0
LINE
  5
9F
100
AcDbEntity
  8
0
 62
256
370
-1
 48
1.0
  6
BYLAYER
100
AcDbLine
 10
83.792362112373468
 20
-84.084985485128271
 30
0.0
 11
75.735741519760154
 21
-80.907500627299157
 31
0.0
  0
LINE
  5
A0
100
AcDbEntity
  8
0
 62
256
370
-1
 48
1.0
  6
BYLAYER
100
AcDbLine
 10
83.792362112373411
 20
84.084985485128271
 30
0.0
 11
75.735741519760097
 21
80.907500627299157
 31
0.0
  0
ARC
  5
A1
100
AcDbEntity
  8
0
 62
256
370
-1
 48
1.0
  6
BYLAYER
100
AcDbCircle
 10
16.127073000000053
 20
-33.562792527534903
 30
0.0
 40
4.5
100
AcDbArc
 50
255.36297654462439
 51
16.242241905724253
  0
LINE
  5
A2
100
AcDbEntity
  8
0
 62
256
370
-1
 48
1.0
  6
BYLAYER
100
AcDbLine
 10
-12.945092484660506
 20
36.744773042874314
 30
0.0
 11
-7.0710678118655323
 21
30.870748370079262
 31
0.0
  0
LINE
  5
A3
100
AcDbEntity
  8
0
 62
256
370
-1
 48
1.0
  6
BYLAYER
100
AcDbLine
 10
61.410074921652836
 20
-90.728778031188767
 30
0.0
 11
56.335528044832927
 21
-87.656368284950332
 31
0.0
  0
LINE
  5
A4
100
AcDbEntity
  8
0
 62
256
370
-1
 48
1.0
  6
BYLAYER
100
AcDbLine
 10
61.410074921652779
 20
90.728778031188767
 30
0.0
 11
56.33552804483287
 21
87.656368284950332
 31
0.0
  0
LINE
  5
A5
100
AcDbEntity
  8
0
 62
256
370
-1
 48
1.0
  6
BYLAYER
100
AcDbLine
 10
12.945092484660506
 20
36.744773042874307
 30
0.0
 11
7.0710678118654755
 21
30.870748370079255
 31
0.0
  0
LINE
  5
A6
100
AcDbEntity
  8
0
 62
256
370
-1
 48
1.0
  6
BYLAYER
100
AcDbLine
 10
73.293058556025755
 20
-78.845794396815904
 30
0.0
 11
70.220648809787349
 21
-73.771247519995995
 31
0.0
  0
LINE
  5
A7
100
AcDbEntity
  8
0
 62
256
370
-1
 48
1.0
  6
BYLAYER
100
AcDbLine
 10
73.293058556025699
 20
78.845794396815904
 30
0.0
 11
70.220648809787292
 21
73.77124751999601
 31
0.0
  0
ARC
  5
A8
100
AcDbEntity
  8
0
 62
256
370
-1
 48
1.0
  6
BYLAYER
100
AcDbCircle
 10
-73.252293270193775
 20
-16.920701039928879
 30
0.0
 40
55.0
100
AcDbArc
 50
343.75775809427535
 51
0.0
  0
ARC
  5
A9
100
AcDbEntity
  8
0
 62
256
370
-1
 48
1.0
  6
BYLAYER
100
AcDbCircle
 10
68.509794055977864
 20
-100.49430001922099
 30
0.0
 40
2.0
100
AcDbArc
 50
201.52399120472933
 51
338.47600879527062
  0
ARC
  5
AA
100
AcDbEntity
  8
0
 62
256
370
-1
 48
1.0
  6
BYLAYER
100
AcDbCircle
 10
68.509794055977778
 20
100.49430001922101
 30
0.0
 40
2.0
100
AcDbArc
 50
21.523991204729434
 51
158.47600879527073
  0
ARC
  5
AB
100
AcDbEntity
  8
0
 62
256
370
-1
 48
1.0
  6
BYLAYER
100
AcDbCircle
 10
73.252293270193775
 20
-16.920701039928879
 30
0.0
 40
55.0
100
AcDbArc
 50
180.0
 51
196.24224190572465
  0
ARC
  5
AC
100
AcDbEntity
  8
0
 62
256
370
-1
 48
1.0
  6
BYLAYER
100
AcDbCircle
 10
83.058580544057975
 20
-85.945513531140847
 30
0.0
 40
2.0
100
AcDbArc
 50
291.52399120472938
 51
68.476008795270687
  0
ARC
  5
AD
100
AcDbEntity
  8
0
 62
256
370
-1
 48
1.0
  6
BYLAYER
100
AcDbCircle
 10
83.058580544057889
 20
85.945513531140875
 30
0.0
 40
2.0
100
AcDbArc
 50
291.52399120472933
 51
68.476008795270587
  0
ARC
  5
AE
100
AcDbEntity
  8
0
 62
256
370
-1
 48
1.0
  6
BYLAYER
100
AcDbCircle
 10
0.0
 20
37.941816181944695
 30
0.0
 40
10.0
100
AcDbArc
 50
224.9999999999996
 51
315.00000000000011
  0
ARC
  5
AF
100
AcDbEntity
  8
0
 62
256
370
-1
 48
1.0
  6
BYLAYER
100
AcDbCircle
 10
57.371373598652553
 20
-85.945513531140847
 30
0.0
 40
2.0
100
AcDbArc
 50
172.45317011648191
 51
238.80698165703237
  0
ARC
  5
B0
100
AcDbEntity
  8
0
 62
256
370
-1
 48
1.0
  6
BYLAYER
100
AcDbCircle
 10
57.371373598652497
 20
85.945513531140847
 30
0.0
 40
2.0
100
AcDbArc
 50
121.19301834296762
 51
187.54682988351806
  0
ARC
  5
B1
100
AcDbEntity
  8
0
 62
256
370
-1
 48
1.0
  6
BYLAYER
100
AcDbCircle
 10
68.509794055977864
 20
-74.807093073815565
 30
0.0
 40
2.0
100
AcDbArc
 50
31.19301834296768
 51
82.383637189181854
  0
ARC
  5
B2
100
AcDbEntity
  8
0
 62
256
370
-1
 48
1.0
  6
BYLAYER
100
AcDbCircle
 10
68.509794055977807
 20
74.807093073815565
 30
0.0
 40
2.0
100
AcDbArc
 50
277.61636281081815
 51
328.80698165703234
  0
INSERT
  5
B3
100
AcDbEntity
  8
0
 62
256
370
-1
 48
1.0
  6
BYLAYER
100
AcDbBlockReference
  2
triangle
 10
-0.0000000000000037
 20
7.0000000000001137
 30
0.0
 41
1.0
 42
-1.0
 43
1.0
 50
270.0
  0
ARC
  5
B4
100
AcDbEntity
  8
0
 62
256
370
-1
 48
1.0
  6
BYLAYER
100
AcDbCircle
 10
78.0212383192586
 20
-95.456957846793472
 30
0.0
 40
5.0
100
AcDbArc
 50
111.52399120472931
 51
158.47600879527064
  0
ARC
  5
B5
100
AcDbEntity
  8
0
 62
256
370
-1
 48
1.0
  6
BYLAYER
100
AcDbCircle
 10
78.021238319258515
 20
95.456957846793472
 30
0.0
 40
5.0
100
AcDbArc
 50
201.52399120472936
 51
248.47600879527067
  0
ARC
  5
B6
100
AcDbEntity
  8
0
 62
256
370
-1
 48
1.0
  6
BYLAYER
100
AcDbCircle
 10
118.25229327019377
 20
11.411282764893356
 30
0.0
 40
100.0
100
AcDbArc
 50
167.76181395679978
 51
180.0
  0
ARC
  5
B7
100
AcDbEntity
  8
0
 62
256
370
-1
 48
1.0
  6
BYLAYER
100
AcDbCircle
 10
58.82046103710411
 20
-95.00591491571231
 30
0.0
 40
5.0
100
AcDbArc
 50
21.523991204729267
 51
58.806981657032367
  0
ARC
  5
B8
100
AcDbEntity
  8
0
 62
256
370
-1
 48
1.0
  6
BYLAYER
100
AcDbCircle
 10
58.820461037104053
 20
95.00591491571231
 30
0.0
 40
5.0
100
AcDbArc
 50
301.1930183429676
 51
338.47600879527073
  0
ARC
  5
B9
100
AcDbEntity
  8
0
 62
256
370
-1
 48
1.0
  6
BYLAYER
100
AcDbCircle
 10
-118.25229327019377
 20
11.411282764893311
 30
0.0
 40
100.0
100
AcDbArc
 50
360.0
 51
12.238186043200189
  0
ARC
  5
BA
100
AcDbEntity
  8
0
 62
256
370
-1
 48
1.0
  6
BYLAYER
100
AcDbCircle
 10
77.570195440549327
 20
-76.256180512267179
 30
0.0
 40
5.0
100
AcDbArc
 50
211.19301834296766
 51
248.47600879527067
  0
ARC
  5
BB
100
AcDbEntity
  8
0
 62
256
370
-1
 48
1.0
  6
BYLAYER
100
AcDbCircle
 10
77.57019544054927
 20
76.256180512267193
 30
0.0
 40
5.0
100
AcDbArc
 50
111.52399120472933
 51
148.80698165703237
  0
MTEXT
  5
BC
100
AcDbEntity
  8
0
 62
256
370
-1
 48
1.0
  6
BYLAYER
100
AcDbMText
 10
4.3231463238718657
 20
20.673507420566793
 30
0.0
 40
1.0
 41
0.0
 71
1
 72
1
  1
\c0;Sunknuts
  7
textstyle1
 50
0.0
 73
2
 44
1.0
  0
LINE
  5
BD
100
AcDbEntity
  8
0
 62
256
370
-1
 48
1.0
  6
BYLAYER
100
AcDbLine
 10
52.057973922506108
 20
-75.857654428347757
 30
0.0
 11
0.0000000523721155
 21
-23.799680558213876
 31
0.0
  0
LINE
  5
BE
100
AcDbEntity
  8
0
 62
256
370
-1
 48
1.0
  6
BYLAYER
100
AcDbLine
 10
52.057973922506037
 20
75.857654428347757
 30
0.0
 11
0.0000000523720587
 21
23.799680558213872
 31
0.0
  0
MTEXT
  5
BF
100
AcDbEntity
  8
0
 62
256
370
-1
 48
1.0
  6
BYLAYER
100
AcDbMText
 10
-8.7571425534840621
 20
21.006057137787707
 30
0.0
 40
1.0
 41
0.0
 71
1
 72
1
  1
\c0;Sunknuts
  7
textstyle2
 50
0.0
 73
2
 44
1.0
  0
ARC
  5
C0
100
AcDbEntity
  8
0
 62
256
370
-1
 48
1.0
  6
BYLAYER
100
AcDbCircle
 10
43.771837035904753
 20
-84.143791314949112
 30
0.0
 40
11.718367164711477
100
AcDbArc
 50
352.453170116482
 51
45.0
  0
ARC
  5
C1
100
AcDbEntity
  8
0
 62
256
370
-1
 48
1.0
  6
BYLAYER
100
AcDbCircle
 10
43.771837035904696
 20
84.143791314949112
 30
0.0
 40
11.718367164711477
100
AcDbArc
 50
315.0
 51
7.5468298835180194
  0
MTEXT
  5
C2
100
AcDbEntity
  8
0
 62
256
370
-1
 48
1.0
  6
BYLAYER
100
AcDbMText
 10
3.9905966066509566
 20
-19.675858268904037
 30
0.0
 40
1.0
 41
0.0
 71
1
 72
1
  1
\c0;Sunknuts
  7
textstyle3
 50
0.0
 73
2
 44
1.0
  0
LINE
  5
C3
100
AcDbEntity
  8
0
 62
256
370
-1
 48
1.0
  6
BYLAYER
100
AcDbLine
 10
0.000000052372066
 20
-16.999999999999947
 30
0.0
 11
0.0000000523721155
 21
-23.799680558213876
 31
0.0
  0
LINE
  5
C4
100
AcDbEntity
  8
0
 62
256
370
-1
 48
1.0
  6
BYLAYER
100
AcDbLine
 10
0.0000000523720018
 20
16.99999999999995
 30
0.0
 11
0.0000000523720587
 21
23.799680558213872
 31
0.0
  0
MTEXT
  5
C5
100
AcDbEntity
  8
0
 62
256
370
-1
 48
1.0
  6
BYLAYER
100
AcDbMText
 10
-8.5354427420034629
 20
-20.119257891865253
 30
0.0
 40
1.0
 41
0.0
 71
1
 72
1
  1
\c0;Sunknuts
  7
textstyle0
 50
0.0
 73
2
 44
1.0
  0
LINE
  5
C6
100
AcDbEntity
  8
0
 62
256
370
-1
 48
1.0
  6
BYLAYER
100
AcDbLine
 10
44.279799329453908
 20
-55.351557773938119
 30
0.0
 11
54.886401047252122
 21
-65.958159491736353
 31
0.0
  0
LINE
  5
C7
100
AcDbEntity
  8
0
 62
256
370
-1
 48
1.0
  6
BYLAYER
100
AcDbLine
 10
44.279799329453851
 20
55.351557773938119
 30
0.0
 11
54.886401047252065
 21
65.958159491736353
 31
0.0
  0
INSERT
  5
C8
100
AcDbEntity
  8
0
 62
256
370
-1
 48
1.0
  6
BYLAYER
100
AcDbBlockReference
  2
triangle
 10
-0.0000000000000037
 20
-4.9999999999998863
 30
0.0
 41
1.0
 42
-1.0
 43
1.0
 50
270.0
  0
ARC
  5
C9
100
AcDbEntity
  8
0
 62
256
370
-1
 48
1.0
  6
BYLAYER
100
AcDbCircle
 10
0.0000000000000273
 20
-95.311975375268673
 30
0.0
 40
59.320404777078835
100
AcDbArc
 50
75.362976544624331
 51
104.63702345537571
  0
ARC
  5
CA
100
AcDbEntity
  8
0
 62
256
370
-1
 48
1.0
  6
BYLAYER
100
AcDbCircle
 10
126.95310477451733
 20
27.321747671124328
 30
0.0
 40
116.91770980662147
100
AcDbArc
 50
212.83553130748817
 51
224.9999999999998
  0
ARC
  5
CB
100
AcDbEntity
  8
0
 62
256
370
-1
 48
1.0
  6
BYLAYER
100
AcDbCircle
 10
126.95310477451727
 20
-27.321747671124342
 30
0.0
 40
116.91770980662147
100
AcDbArc
 50
135.0000000000002
 51
147.16446869251186
  0
ARC
  5
CC
100
AcDbEntity
  8
0
 62
256
370
-1
 48
1.0
  6
BYLAYER
100
AcDbCircle
 10
-3.4999999999999432
 20
-32.0
 30
0.0
 40
1.5
100
AcDbArc
 50
180.0
 51
0.0
  0
ARC
  5
CD
100
AcDbEntity
  8
0
 62
256
370
-1
 48
1.0
  6
BYLAYER
100
AcDbCircle
 10
73.361556797630726
 20
-46.068790178984649
 30
0.0
 40
27.146240838461861
100
AcDbArc
 50
222.88888832926719
 51
260.56219962697963
  0
ARC
  5
CE
100
AcDbEntity
  8
0
 62
256
370
-1
 48
1.0
  6
BYLAYER
100
AcDbCircle
 10
73.361556797630669
 20
46.068790178984642
 30
0.0
 40
27.146240838461861
100
AcDbArc
 50
99.437800373020366
 51
137.11111167073284
  0
ARC
  5
CF
100
AcDbEntity
  8
0
 62
256
370
-1
 48
1.0
  6
BYLAYER
100
AcDbCircle
 10
-3.4999999999999432
 20
-30.000000000000107
 30
0.0
 40
1.5
100
AcDbArc
 50
0.0
 51
180.0
  0
ARC
  5
D0
100
AcDbEntity
  8
0
 62
256
370
-1
 48
1.0
  6
BYLAYER
100
AcDbCircle
 10
3.5000000000000568
 20
-30.000000000000107
 30
0.0
 40
1.5
100
AcDbArc
 50
0.0
 51
180.0
  0
ARC
  5
D1
100
AcDbEntity
  8
0
 62
256
370
-1
 48
1.0
  6
BYLAYER
100
AcDbCircle
 10
3.5000000000000568
 20
-32.0
 30
0.0
 40
1.5
100
AcDbArc
 50
180.0
 51
0.0
  0
LINE
  5
D2
100
AcDbEntity
  8
0
 62
256
370
-1
 48
1.0
  6
BYLAYER
100
AcDbLine
 10
-4.9999999999999432
 20
-30.000000000000107
 30
0.0
 11
-4.9999999999999432
 21
-32.0
 31
0.0
  0
LINE
  5
D3
100
AcDbEntity
  8
0
 62
256
370
-1
 48
1.0
  6
BYLAYER
100
AcDbLine
 10
-1.9999999999999432
 20
-30.000000000000107
 30
0.0
 11
-1.9999999999999432
 21
-32.0
 31
0.0
  0
LINE
  5
D4
100
AcDbEntity
  8
0
 62
256
370
-1
 48
1.0
  6
BYLAYER
100
AcDbLine
 10
2.0000000000000568
 20
-32.0
 30
0.0
 11
2.0000000000000568
 21
-30.000000000000107
 31
0.0
  0
LINE
  5
D5
100
AcDbEntity
  8
0
 62
256
370
-1
 48
1.0
  6
BYLAYER
100
AcDbLine
 10
5.0000000000000568
 20
-30.000000000000107
 30
0.0
 11
5.0000000000000568
 21
-32.0
 31
0.0
  0
INSERT
  5
D6
100
AcDbEntity
  8
0
 62
256
370
-1
 48
1.0
  6
BYLAYER
100
AcDbBlockReference
  2
triangle
 10
-0.0000000000000037
 20
-16.999999999999886
 30
0.0
 41
1.0
 42
-1.0
 43
1.0
 50
270.0
  0
ARC
  5
D7
100
AcDbEntity
  8
0
 62
256
370
-1
 48
1.0
  6
BYLAYER
100
AcDbCircle
 10
-8.1310817306622063
 20
-59.852680238578138
 30
0.0
 40
43.852680269256822
100
AcDbArc
 50
32.835531307488168
 51
72.413346651253775
  0
ARC
  5
D8
100
AcDbEntity
  8
0
 62
256
370
-1
 48
1.0
  6
BYLAYER
100
AcDbCircle
 10
-8.1310817306622596
 20
59.852680238577221
 30
0.0
 40
43.852680269256822
100
AcDbArc
 50
287.58665334874627
 51
327.16446869251189
  0
ARC
  5
D9
100
AcDbEntity
  8
0
 62
256
370
-1
 48
1.0
  6
BYLAYER
100
AcDbCircle
 10
-2.4347850441111314
 20
-41.881153942973398
 30
0.0
 40
25.0
100
AcDbArc
 50
72.413346651253775
 51
84.411024418563713
  0
ARC
  5
DA
100
AcDbEntity
  8
0
 62
256
370
-1
 48
1.0
  6
BYLAYER
100
AcDbCircle
 10
-2.4347850441111802
 20
41.881153942973398
 30
0.0
 40
25.0
100
AcDbArc
 50
275.58897558143627
 51
287.58665334874627
  0
ENDSEC
  0
SECTION
  2
OBJECTS
  0
DICTIONARY
  5
C
100
AcDbDictionary
280
0
281
1
  3
ACAD_GROUP
350
D
  3
ACAD_LAYOUT
350
1A
  3
ACAD_MLINESTYLE
350
17
  3
ACAD_PLOTSETTINGS
350
19
  3
ACAD_PLOTSTYLENAME
350
E
  3
AcDbVariableDictionary
350
DB
  3
QCAD_OBJECTS
350
DC
  0
DICTIONARY
  5
D
100
AcDbDictionary
280
0
281
1
  0
ACDBDICTIONARYWDFLT
  5
E
100
AcDbDictionary
281
1
  3
Normal
350
F
100
AcDbDictionaryWithDefault
340
F
  0
ACDBPLACEHOLDER
  5
F
  0
DICTIONARY
  5
17
100
AcDbDictionary
280
0
281
1
  3
Standard
350
18
  0
MLINESTYLE
  5
18
100
AcDbMlineStyle
  2
STANDARD
 70
0
  3

 62
256
 51
90.0
 52
90.0
 71
2
 49
0.5
 62
256
  6
BYLAYER
 49
-0.5
 62
256
  6
BYLAYER
  0
DICTIONARY
  5
19
100
AcDbDictionary
280
0
281
1
  0
DICTIONARY
  5
1A
100
AcDbDictionary
281
1
  3
Layout1
350
1E
  3
Layout2
350
26
  3
Model
350
22
  0
LAYOUT
  5
1E
100
AcDbPlotSettings
  1

  2
none_device
  4

  6

 40
0.0
 41
0.0
 42
0.0
 43
0.0
 44
0.0
 45
0.0
 46
0.0
 47
0.0
 48
0.0
 49
0.0
140
0.0
141
0.0
142
1.0
143
1.0
 70
688
 72
0
 73
0
 74
5
  7

 75
16
147
1.0
148
0.0
149
0.0
100
AcDbLayout
  1
Layout1
 70
1
 71
1
 10
0.0
 20
0.0
 11
420.0
 21
297.0
 12
0.0
 22
0.0
 32
0.0
 14
100000000000000000000.0
 24
100000000000000000000.0
 34
100000000000000000000.0
 15
-100000000000000000000.0
 25
-100000000000000000000.0
 35
-100000000000000000000.0
146
0.0
 13
0.0
 23
0.0
 33
0.0
 16
1.0
 26
0.0
 36
0.0
 17
0.0
 27
1.0
 37
0.0
 76
0
330
1B
  0
LAYOUT
  5
22
100
AcDbPlotSettings
  1

  2
none_device
  4

  6

 40
0.0
 41
0.0
 42
0.0
 43
0.0
 44
0.0
 45
0.0
 46
0.0
 47
0.0
 48
0.0
 49
0.0
140
0.0
141
0.0
142
1.0
143
1.0
 70
1712
 72
0
 73
0
 74
0
  7

 75
0
147
1.0
148
0.0
149
0.0
100
AcDbLayout
  1
Model
 70
1
 71
0
 10
0.0
 20
0.0
 11
12.0
 21
9.0
 12
0.0
 22
0.0
 32
0.0
 14
0.0
 24
0.0
 34
0.0
 15
0.0
 25
0.0
 35
0.0
146
0.0
 13
0.0
 23
0.0
 33
0.0
 16
1.0
 26
0.0
 36
0.0
 17
0.0
 27
1.0
 37
0.0
 76
0
330
1F
  0
LAYOUT
  5
26
100
AcDbPlotSettings
  1

  2
none_device
  4

  6

 40
0.0
 41
0.0
 42
0.0
 43
0.0
 44
0.0
 45
0.0
 46
0.0
 47
0.0
 48
0.0
 49
0.0
140
0.0
141
0.0
142
1.0
143
1.0
 70
688
 72
0
 73
0
 74
5
  7

 75
16
147
1.0
148
0.0
149
0.0
100
AcDbLayout
  1
Layout2
 70
1
 71
2
 10
0.0
 20
0.0
 11
12.0
 21
9.0
 12
0.0
 22
0.0
 32
0.0
 14
0.0
 24
0.0
 34
0.0
 15
0.0
 25
0.0
 35
0.0
146
0.0
 13
0.0
 23
0.0
 33
0.0
 16
1.0
 26
0.0
 36
0.0
 17
0.0
 27
1.0
 37
0.0
 76
0
330
23
  0
DICTIONARY
  5
DB
100
AcDbDictionary
281
1
  3
DIMASSOC
350
DE
  3
HIDETEXT
350
DD
  0
DICTIONARYVAR
  5
DD
100
DictionaryVariables
280
0
  1
2
  0
DICTIONARYVAR
  5
DE
100
DictionaryVariables
280
0
  1
1
  0
DICTIONARY
  5
DC
100
AcDbDictionary
281
1
  3
ColorSettings/BackgroundColor
350
DF
  3
ColorSettings/ColorMode
350
E0
  3
Grid/DisplayGrid00
350
E1
  3
Grid/DisplayGrid01
350
E2
  3
Grid/DisplayGrid02
350
E3
  3
Grid/DisplayGrid03
350
E4
  3
Grid/GridSpacingX00
350
E5
  3
Grid/GridSpacingX01
350
E6
  3
Grid/GridSpacingX02
350
E7
  3
Grid/GridSpacingX03
350
E8
  3
Grid/GridSpacingY00
350
E9
  3
Grid/GridSpacingY01
350
EA
  3
Grid/GridSpacingY02
350
EB
  3
Grid/GridSpacingY03
350
EC
  3
Grid/IsometricGrid00
350
ED
  3
Grid/IsometricGrid01
350
EE
  3
Grid/IsometricGrid02
350
EF
  3
Grid/IsometricGrid03
350
F0
  3
Grid/IsometricProjection00
350
F1
  3
Grid/IsometricProjection01
350
F2
  3
Grid/IsometricProjection02
350
F3
  3
Grid/IsometricProjection03
350
F4
  3
Grid/MetaGridSpacingX00
350
F5
  3
Grid/MetaGridSpacingX01
350
F6
  3
Grid/MetaGridSpacingX02
350
F7
  3
Grid/MetaGridSpacingX03
350
F8
  3
Grid/MetaGridSpacingY00
350
F9
  3
Grid/MetaGridSpacingY01
350
FA
  3
Grid/MetaGridSpacingY02
350
FB
  3
Grid/MetaGridSpacingY03
350
FC
  3
MultiPageSettings/Columns
350
FD
  3
MultiPageSettings/GlueMarginsBottom
350
FE
  3
MultiPageSettings/GlueMarginsLeft
350
FF
  3
MultiPageSettings/GlueMarginsRight
350
100
  3
MultiPageSettings/GlueMarginsTop
350
101
  3
MultiPageSettings/PrintCropMarks
350
102
  3
MultiPageSettings/Rows
350
103
  3
PageSettings/OffsetX
350
104
  3
PageSettings/OffsetY
350
105
  3
PageSettings/PageOrientation
350
106
  3
PageSettings/PaperHeight
350
107
  3
PageSettings/PaperWidth
350
108
  3
PageSettings/Scale
350
109
  3
PageSettings/ShowPaperBorders
350
10A
  3
QCADVersion
350
10B
  3
UnitSettings/PaperUnit
350
10C
  3
ViewportCenter
350
10D
  3
ViewportHeight
350
10E
  3
ViewportWidth
350
10F
  0
XRECORD
  5
DF
330
DC
100
AcDbXrecord
280
1
1000
White
  0
XRECORD
  5
E0
330
DC
100
AcDbXrecord
280
1
1000
FullColor
  0
XRECORD
  5
E1
330
DC
100
AcDbXrecord
280
1
290
1
  0
XRECORD
  5
E2
330
DC
100
AcDbXrecord
280
1
290
1
  0
XRECORD
  5
E3
330
DC
100
AcDbXrecord
280
1
290
1
  0
XRECORD
  5
E4
330
DC
100
AcDbXrecord
280
1
290
1
  0
XRECORD
  5
E5
330
DC
100
AcDbXrecord
280
1
1000
auto
  0
XRECORD
  5
E6
330
DC
100
AcDbXrecord
280
1
1000
auto
  0
XRECORD
  5
E7
330
DC
100
AcDbXrecord
280
1
1000
auto
  0
XRECORD
  5
E8
330
DC
100
AcDbXrecord
280
1
1000
auto
  0
XRECORD
  5
E9
330
DC
100
AcDbXrecord
280
1
1000
auto
  0
XRECORD
  5
EA
330
DC
100
AcDbXrecord
280
1
1000
auto
  0
XRECORD
  5
EB
330
DC
100
AcDbXrecord
280
1
1000
auto
  0
XRECORD
  5
EC
330
DC
100
AcDbXrecord
280
1
1000
auto
  0
XRECORD
  5
ED
330
DC
100
AcDbXrecord
280
1
290
0
  0
XRECORD
  5
EE
330
DC
100
AcDbXrecord
280
1
290
0
  0
XRECORD
  5
EF
330
DC
100
AcDbXrecord
280
1
290
0
  0
XRECORD
  5
F0
330
DC
100
AcDbXrecord
280
1
290
0
  0
XRECORD
  5
F1
330
DC
100
AcDbXrecord
280
1
 90
65537
  0
XRECORD
  5
F2
330
DC
100
AcDbXrecord
280
1
 90
65537
  0
XRECORD
  5
F3
330
DC
100
AcDbXrecord
280
1
 90
65537
  0
XRECORD
  5
F4
330
DC
100
AcDbXrecord
280
1
 90
65537
  0
XRECORD
  5
F5
330
DC
100
AcDbXrecord
280
1
1000
auto
  0
XRECORD
  5
F6
330
DC
100
AcDbXrecord
280
1
1000
auto
  0
XRECORD
  5
F7
330
DC
100
AcDbXrecord
280
1
1000
auto
  0
XRECORD
  5
F8
330
DC
100
AcDbXrecord
280
1
1000
auto
  0
XRECORD
  5
F9
330
DC
100
AcDbXrecord
280
1
1000
auto
  0
XRECORD
  5
FA
330
DC
100
AcDbXrecord
280
1
1000
auto
  0
XRECORD
  5
FB
330
DC
100
AcDbXrecord
280
1
1000
auto
  0
XRECORD
  5
FC
330
DC
100
AcDbXrecord
280
1
1000
auto
  0
XRECORD
  5
FD
330
DC
100
AcDbXrecord
280
1
 90
1
  0
XRECORD
  5
FE
330
DC
100
AcDbXrecord
280
1
 40
10.0
  0
XRECORD
  5
FF
330
DC
100
AcDbXrecord
280
1
 40
10.0
  0
XRECORD
  5
100
330
DC
100
AcDbXrecord
280
1
 40
10.0
  0
XRECORD
  5
101
330
DC
100
AcDbXrecord
280
1
 40
10.0
  0
XRECORD
  5
102
330
DC
100
AcDbXrecord
280
1
290
0
  0
XRECORD
  5
103
330
DC
100
AcDbXrecord
280
1
 90
1
  0
XRECORD
  5
104
330
DC
100
AcDbXrecord
280
1
 40
0.0
  0
XRECORD
  5
105
330
DC
100
AcDbXrecord
280
1
 40
0.0
  0
XRECORD
  5
106
330
DC
100
AcDbXrecord
280
1
1000
Portrait
  0
XRECORD
  5
107
330
DC
100
AcDbXrecord
280
1
 40
279.39999999999998
  0
XRECORD
  5
108
330
DC
100
AcDbXrecord
280
1
 40
215.90000000000001
  0
XRECORD
  5
109
330
DC
100
AcDbXrecord
280
1
1000
1:1
  0
XRECORD
  5
10A
330
DC
100
AcDbXrecord
280
1
290
1
  0
XRECORD
  5
10B
330
DC
100
AcDbXrecord
280
1
1000
3.23.0
  0
XRECORD
  5
10C
330
DC
100
AcDbXrecord
280
1
 90
4
  0
XRECORD
  5
10E
330
DC
100
AcDbXrecord
280
1
 40
210.84387556403166
  0
XRECORD
  5
10F
330
DC
100
AcDbXrecord
280
1
 40
481.03217077260814
  0
ENDSEC
  0
EOF
